{
.appVersion = "3260";
.formatVersion = 3;
axes = (
{
name = Weight;
tag = wght;
},
{
name = Width;
tag = wdth;
},
{
name = Custom;
tag = CUS1;
}
);
classes = (
{
code = "colon exclam period question semicolon quotedblleft quotedblright quoteleft quoteright questiondown exclamdown periodcentered ellipsis comma divide";
name = circular_punctuation;
},
{
code = "colon.ss01 exclam.ss01 period.ss01 question.ss01 semicolon.ss01 quotedblleft.ss01 quotedblright.ss01 quoteleft.ss01 quoteright.ss01 questiondown.ss01 exclamdown.ss01 periodcentered.ss01 ellipsis.ss01 comma.ss01 divide.ss01";
name = square_punctuation;
},
{
code = "a aacute abreve acircumflex adieresis agrave amacron aogonek aring atilde ";
name = single_storey_a;
},
{
code = "a.ss02 aacute.ss02 abreve.ss02 acircumflex.ss02 adieresis.ss02 agrave.ss02 amacron.ss02 aogonek.ss02 aring.ss02 atilde.ss02 ";
name = double_storey_a;
}
);
customParameters = (
{
name = glyphOrder;
value = (
A,
Aacute,
Abreve,
Acircumflex,
Adieresis,
Agrave,
Amacron,
Aogonek,
Aring,
Atilde,
AE,
AEacute,
B,
C,
Cacute,
Ccaron,
Ccedilla,
Cdotaccent,
D,
Eth,
Dcaron,
Dcroat,
E,
Eacute,
Ebreve,
Ecaron,
Ecircumflex,
Edieresis,
Edotaccent,
Egrave,
Emacron,
Eogonek,
Etilde,
F,
G,
Gbreve,
Gcommaaccent,
Gdotaccent,
H,
I,
Iacute,
Ibreve,
Icircumflex,
Idieresis,
Idotaccent,
Igrave,
Imacron,
Iogonek,
Itilde,
J,
K,
Kcommaaccent,
L,
Lacute,
Lcaron,
Lcommaaccent,
Ldot,
Lslash,
M,
N,
Nacute,
Ncaron,
Ncommaaccent,
Ntilde,
O,
Oacute,
Obreve,
Ocircumflex,
Odieresis,
Ograve,
Ohungarumlaut,
Omacron,
Oslash,
Otilde,
OE,
P,
Thorn,
Q,
R,
Racute,
Rcaron,
Rcommaaccent,
S,
Sacute,
Scaron,
Scedilla,
Scommaaccent,
T,
Tcaron,
Tcedilla,
Tcommaaccent,
U,
Uacute,
Ubreve,
Ucircumflex,
Udieresis,
Ugrave,
Uhungarumlaut,
Umacron,
Uogonek,
Uring,
Utilde,
V,
W,
Wacute,
Wcircumflex,
Wdieresis,
Wgrave,
X,
Y,
Yacute,
Ycircumflex,
Ydieresis,
Ygrave,
Ytilde,
Z,
Zacute,
Zcaron,
Zdotaccent,
a,
aacute,
abreve,
acircumflex,
adieresis,
agrave,
amacron,
aogonek,
aring,
atilde,
ae,

glyphs = (
{
glyphname = A;
lastChange = "2024-07-30 10:39:23 +0000";
layers = (
{
anchors = (
{
name = ogonek;
pos = (620,0);
},
{
name = top;
pos = (327,690);
}
);
layerId = "CDDB5E63-2DBC-4745-B175-3A13AC81D5EA";
shapes = (
{
closed = 1;
nodes = (
(287,690,l),
(32,0,l),
(106,0,l),
(344,650,l),
(309,650,l),
(546,0,l),
(620,0,l),
(366,690,l)
);
},
{
closed = 1;
nodes = (
(128,166,l),
(521,166,l),
(502,224,l),
(146,224,l)
);
}
);
width = 652;
}
);
unicode = 65;
userData = {
com.schriftgestaltung.Glyphs.ColorIndex = 4;
com.typesupply.AccentFactory.yCoordinates = {
bottom = {
name = origin;
type = glyphMetric;
};
top = {
name = capHeight;
type = fontInfo;
};
};
};
},
{
glyphname = Aogonek;
lastChange = "2024-07-30 10:39:23 +0000";
layers = (
{
anchors = (
{
name = _ogonek;
pos = (620,0);
}
);
layerId = "CDDB5E63-2DBC-4745-B175-3A13AC81D5EA";
shapes = (
{
closed = 1;
nodes = (
(547,13,ls),
(468,-23,o),
(439,-64,o),
(439,-109,cs),
(439,-176,o),
(494,-201,o),
(552,-201,cs),
(576,-201,o),
(602,-196,o),
(624,-188,c),
(624,-139,l),
(602,-148,o),
(579,-153,o),
(559,-153,cs),
(523,-153,o),
(498,-135,o),
(498,-102,cs),
(498,-76,o),
(513,-52,o),
(561,-29,cs),
(620,0,l),
(601,38,l)
);
},
{
alignment = -1;
ref = A;
}
);
width = 652;
}
);
unicode = 260;
userData = {
com.schriftgestaltung.Glyphs.ColorIndex = 8;
com.typesupply.AccentFactory.compileType = manual;
};
},
{
glyphname = AE;
lastChange = "2024-07-30 10:39:23 +0000";
layers = (
{
layerId = "CDDB5E63-2DBC-4745-B175-3A13AC81D5EA";
shapes = (
{
closed = 1;
nodes = (
(145,166,l),
(490,166,l),
(490,222,l),
(174,222,l)
);
},
{
closed = 1;
nodes = (
(823,644,l),
(823,700,l),
(417,700,l),
(11,0,l),
(88,0,l),
(458,640,l),
(458,0,l),
(823,0,l),
(823,56,l),
(528,56,l),
(528,324,l),
(793,324,l),
(793,380,l),
(528,380,l),
(528,644,l)
);
}
);
width = 882;
}
);
unicode = 198;
userData = {
com.schriftgestaltung.Glyphs.ColorIndex = 4;
com.typemytype.robofont.layerData = {
b = {
anchors = (
);
components = (
);
contours = (
{
points = (
{
segmentType = line;
smooth = 0;
x = 138;
y = 183;
},
{
segmentType = line;
smooth = 0;
x = 449;
y = 183;
},
{
segmentType = line;
smooth = 0;
x = 449;
y = 202;
},
{
segmentType = line;
smooth = 0;
x = 149;
y = 202;
}
);
},
{
points = (
{
segmentType = line;
smooth = 0;
x = 757;
y = 663;
},
{
segmentType = line;
smooth = 0;
x = 757;
y = 683;
},
{
segmentType = line;
smooth = 0;
x = 442;
y = 683;
},
{
segmentType = line;
smooth = 0;
x = 11;
y = 0;
},
{
segmentType = line;
smooth = 0;
x = 32;
y = 0;
},
{
segmentType = line;
smooth = 0;
x = 443;
y = 658;
},
{
segmentType = line;
smooth = 0;
x = 443;
y = 0;
},
{
segmentType = line;
smooth = 0;
x = 757;
y = 0;
},
{
segmentType = line;
smooth = 0;
x = 757;
y = 19;
},
{
segmentType = line;
smooth = 0;
x = 463;
y = 19;
},
{
segmentType = line;
smooth = 0;
x = 463;
y = 332;
},
{
segmentType = line;
smooth = 0;
x = 727;
y = 332;
},
{
segmentType = line;
smooth = 0;
x = 727;
y = 351;
},
{
segmentType = line;
smooth = 0;
x = 463;
y = 351;
},
{
segmentType = line;
smooth = 0;
x = 463;
y = 663;
}
);
}
);
lib = {
};
name = AE;
unicodes = (
);
width = 837;
};
};
com.typesupply.AccentFactory.yCoordinates = {
bottom = {
name = origin;
type = glyphMetric;
};
top = {
name = capHeight;
type = fontInfo;
};
};
};
},
{
glyphname = B;
lastChange = "2024-07-30 10:39:23 +0000";
layers = (
{
layerId = "CDDB5E63-2DBC-4745-B175-3A13AC81D5EA";
shapes = (
{
closed = 1;
nodes = (
(461,516,c),
(461,438,o),
(408,390,o),
(313,390,cs),
(150,390,l),
(150,640,l),
(310,640,ls),
(411,640,o),
(461,591,o)
);
},
{
closed = 1;
nodes = (
(548,187,cs),
(548,284,o),
(471,362,o),
(382,364,c),
(369,354,l),
(451,363,o),
(532,414,o),
(532,523,c),
(532,621,o),
(462,699,o),
(315,699,cs),
(80,699,l),
(80,0,l),
(322,0,ls),
(469,0,o),
(548,82,o)
);
},
{
closed = 1;
nodes = (
(478,194,cs),
(478,110,o),
(418,59,o),
(317,59,cs),
(150,59,l),
(150,332,l),
(314,332,ls),
(414,332,o),
(478,278,o)
);
}
);
width = 597;
}
);
unicode = 66;
userData = {
com.schriftgestaltung.Glyphs.ColorIndex = 4;
com.typesupply.AccentFactory.yCoordinates = {
bottom = {
name = origin;
type = glyphMetric;
};
top = {
name = capHeight;
type = fontInfo;
};
};
};
},
{
glyphname = C;
lastChange = "2024-07-30 10:39:23 +0000";
layers = (
{
anchors = (
{
name = bottom;
pos = (398,0);
},
{
name = top;
pos = (401,694);
}
);
layerId = "CDDB5E63-2DBC-4745-B175-3A13AC81D5EA";
shapes = (
{
closed = 1;
nodes = (
(48,350,c),
(48,140,o),
(196,-6,o),
(390,-6,c),
(546,-6,o),
(662,72,o),
(712,204,c),
(630,204,l),
(591,113,o),
(509,55,o),
(390,55,c),
(237,55,o),
(120,168,o),
(120,350,c),
(120,533,o),
(237,646,o),
(390,646,c),
(509,646,o),
(591,588,o),
(630,495,c),
(712,495,l),
(662,629,o),
(546,707,o),
(390,707,c),
(196,707,o),
(48,560,o)
);
}
);
width = 771;
}
);
unicode = 67;
userData = {
com.schriftgestaltung.Glyphs.ColorIndex = 4;
com.typesupply.AccentFactory.yCoordinates = {
bottom = {
name = origin;
type = glyphMetric;
};
top = {
name = capHeight;
type = fontInfo;
};
};
};
},
{
glyphname = D;
lastChange = "2024-07-30 10:39:23 +0000";
layers = (
{
anchors = (
{
name = top;
pos = (348,690);
}
);
layerId = "CDDB5E63-2DBC-4745-B175-3A13AC81D5EA";
shapes = (
{
closed = 1;
nodes = (
(287,699,c),
(80,699,l),
(80,0,l),
(287,0,l),
(520,0,o),
(657,131,o),
(657,348,c),
(657,567,o),
(520,699,o)
);
},
{
closed = 1;
nodes = (
(150,58,l),
(150,641,l),
(287,641,l),
(485,641,o),
(586,529,o),
(586,348,c),
(586,168,o),
(485,58,o),
(287,58,c)
);
}
);
width = 706;
}
);
unicode = 68;
userData = {
com.schriftgestaltung.Glyphs.ColorIndex = 4;
com.typemytype.robofont.guides = (
{
angle = 0;
isGlobal = 0;
magnetic = 5;
x = 122;
y = 684;
}
);
com.typesupply.AccentFactory.yCoordinates = {
bottom = {
name = origin;
type = glyphMetric;
};
top = {
name = capHeight;
type = fontInfo;
};
};
};
},
{
glyphname = Eth;
lastChange = "2024-07-30 10:39:23 +0000";
layers = (
{
layerId = "CDDB5E63-2DBC-4745-B175-3A13AC81D5EA";
shapes = (
{
closed = 1;
nodes = (
(9,316,l),
(379,316,l),
(379,381,l),
(9,381,l)
);
},
{
closed = 1;
nodes = (
(312,699,c),
(104,699,l),
(104,0,l),
(312,0,l),
(545,0,o),
(682,131,o),
(682,348,c),
(682,567,o),
(545,699,o)
);
},
{
closed = 1;
nodes = (
(175,55,l),
(175,642,l),
(312,642,l),
(509,642,o),
(610,529,o),
(610,348,c),
(610,168,o),
(509,55,o),
(312,55,c)
);
}
);
width = 730;
}
);
unicode = 208;
userData = {
com.schriftgestaltung.Glyphs.ColorIndex = 4;
};
},
{
glyphname = E;
lastChange = "2024-07-30 10:39:23 +0000";
layers = (
{
anchors = (
{
name = bottom;
pos = (248,0);
},
{
name = ogonek;
pos = (445,0);
},
{
name = top;
pos = (248,690);
}
);
layerId = "CDDB5E63-2DBC-4745-B175-3A13AC81D5EA";
shapes = (
{
closed = 1;
nodes = (
(445,700,l),
(80,700,l),
(80,0,l),
(445,0,l),
(445,58,l),
(150,58,l),
(150,323,l),
(415,323,l),
(415,381,l),
(150,381,l),
(150,642,l),
(445,642,l)
);
}
);
width = 503;
}
);
unicode = 69;
userData = {
com.schriftgestaltung.Glyphs.ColorIndex = 4;
com.typesupply.AccentFactory.yCoordinates = {
bottom = {
name = origin;
type = glyphMetric;
};
top = {
name = capHeight;
type = fontInfo;
};
};
};
},
{
glyphname = F;
lastChange = "2024-07-30 10:39:23 +0000";
layers = (
{
layerId = "CDDB5E63-2DBC-4745-B175-3A13AC81D5EA";
shapes = (
{
closed = 1;
nodes = (
(80,0,l),
(150,0,l),
(150,322,l),
(410,322,l),
(410,380,l),
(150,380,l),
(150,641,l),
(458,641,l),
(458,699,l),
(80,699,l)
);
}
);
width = 493;
}
);
unicode = 70;
userData = {
com.schriftgestaltung.Glyphs.ColorIndex = 4;
com.typesupply.AccentFactory.yCoordinates = {
bottom = {
name = origin;
type = glyphMetric;
};
top = {
name = capHeight;
type = fontInfo;
};
};
};
},
{
glyphname = G;
lastChange = "2024-07-30 10:39:23 +0000";
layers = (
{
anchors = (
{
name = bottom;
pos = (398,0);
},
{
name = top;
pos = (398,690);
}
);
layerId = "CDDB5E63-2DBC-4745-B175-3A13AC81D5EA";
shapes = (
{
closed = 1;
nodes = (
(662,628,o),
(544,707,o),
(394,707,c),
(198,707,o),
(48,559,o),
(48,350,c),
(48,140,o),
(198,-7,o),
(394,-7,c),
(585,-7,o),
(723,135,o),
(734,320,c),
(734,371,l),
(366,371,l),
(366,314,l),
(660,314,l),
(649,155,o),
(541,56,o),
(394,56,c),
(239,56,o),
(120,169,o),
(120,350,c),
(120,531,o),
(239,643,o),
(394,643,c),
(506,643,o),
(591,585,o),
(630,495,c),
(712,495,l)
);
}
);
width = 782;
}
);
unicode = 71;
userData = {
com.schriftgestaltung.Glyphs.ColorIndex = 4;
com.typemytype.robofont.layerData = {
b = {
anchors = (
{
name = top;
x = 411;
y = 683;
},
{
name = bottom;
x = 411;
y = 0;
}
);
components = (
);
contours = (
{
points = (
{
segmentType = curve;
smooth = 1;
x = 60;
y = 341;
},
{
smooth = 0;
x = 60;
y = 138;
},
{
smooth = 0;
x = 214;
y = -6;
},
{
segmentType = curve;
smooth = 1;
x = 407;
y = -6;
},
{
smooth = 0;
x = 590;
y = -6;
},
{
smooth = 0;
x = 747;
y = 110;
},
{
segmentType = curve;
smooth = 0;
x = 764;
y = 341;
},
{
segmentType = line;
smooth = 0;
x = 764;
y = 360;
},
{
segmentType = line;
smooth = 0;
x = 381;
y = 360;
},
{
segmentType = line;
smooth = 0;
x = 381;
y = 341;
},
{
segmentType = line;
smooth = 0;
x = 747;
y = 341;
},
{
smooth = 0;
x = 733;
y = 132;
},
{
smooth = 0;
x = 600;
y = 6;
},
{
segmentType = curve;
smooth = 1;
x = 407;
y = 6;
},
{
smooth = 0;
x = 226;
y = 6;
},
{
smooth = 0;
x = 80;
y = 137;
},
{
segmentType = curve;
smooth = 1;
x = 80;
y = 341;
},
{
smooth = 0;
x = 80;
y = 547;
},
{
smooth = 0;
x = 226;
y = 677;
},
{
segmentType = curve;
smooth = 1;
x = 407;
y = 677;
},
{
smooth = 0;
x = 528;
y = 677;
},
{
smooth = 0;
x = 633;
y = 618;
},
{
segmentType = curve;
smooth = 0;
x = 683;
y = 525;
},
{
segmentType = line;
smooth = 0;
x = 709;
y = 525;
},
{
smooth = 0;
x = 648;
y = 637;
},
{
smooth = 0;
x = 537;
y = 690;
},
{
segmentType = curve;
smooth = 1;
x = 407;
y = 690;
},
{
smooth = 0;
x = 214;
y = 690;
},
{
smooth = 0;
x = 60;
y = 546;
}
);
}
);
lib = {
};
name = G;
unicodes = (
);
width = 792;
};
};
com.typesupply.AccentFactory.yCoordinates = {
bottom = {
name = origin;
type = glyphMetric;
};
top = {
name = capHeight;
type = fontInfo;
};
};
};
},
{
glyphname = Gcommaaccent;
lastChange = "2024-07-30 10:39:23 +0000";
layers = (
{
anchors = (
{
name = _bottom;
pos = (391,-4);
}
);
layerId = "CDDB5E63-2DBC-4745-B175-3A13AC81D5EA";
shapes = (
{
closed = 1;
nodes = (
(353,-52,l),
(353,-121,l),
(396,-121,l),
(396,-135,ls),
(396,-171,o),
(383,-191,o),
(350,-191,c),
(350,-226,l),
(406,-226,o),
(440,-197,o),
(440,-119,cs),
(440,-100,o),
(437,-76,o),
(432,-52,c)
);
},
{
alignment = -1;
ref = G;
}
);
width = 782;
}
);
unicode = 290;
userData = {
com.schriftgestaltung.Glyphs.ColorIndex = 8;
com.typesupply.AccentFactory.compileType = manual;
};
},
{
glyphname = H;
lastChange = "2024-07-30 10:39:23 +0000";
layers = (
{
layerId = "CDDB5E63-2DBC-4745-B175-3A13AC81D5EA";
shapes = (
{
closed = 1;
nodes = (
(80,0,l),
(150,0,l),
(150,699,l),
(80,699,l)
);
},
{
closed = 1;
nodes = (
(529,0,l),
(599,0,l),
(599,699,l),
(529,699,l)
);
},
{
closed = 1;
nodes = (
(134,327,l),
(549,327,l),
(549,385,l),
(134,385,l)
);
}
);
width = 679;
}
);
unicode = 72;
userData = {
com.schriftgestaltung.Glyphs.ColorIndex = 4;
com.typesupply.AccentFactory.yCoordinates = {
bottom = {
name = origin;
type = glyphMetric;
};
top = {
name = capHeight;
type = fontInfo;
};
};
};
},
{
glyphname = I;
lastChange = "2024-07-30 10:39:23 +0000";
layers = (
{
anchors = (
{
name = ogonek;
pos = (150,1);
},
{
name = top;
pos = (115,690);
}
);
layerId = "CDDB5E63-2DBC-4745-B175-3A13AC81D5EA";
shapes = (
{
closed = 1;
nodes = (
(80,0,l),
(150,0,l),
(150,699,l),
(80,699,l)
);
}
);
width = 229;
}
);
unicode = 73;
userData = {
com.schriftgestaltung.Glyphs.ColorIndex = 4;
com.typemytype.robofont.guides = (
{
angle = 0;
isGlobal = 0;
magnetic = 5;
x = 83;
y = 684;
}
);
com.typesupply.AccentFactory.yCoordinates = {
bottom = {
name = origin;
type = glyphMetric;
};
top = {
name = capHeight;
type = fontInfo;
};
};
};
},
{
glyphname = J;
lastChange = "2024-07-30 10:39:23 +0000";
layers = (
{
layerId = "CDDB5E63-2DBC-4745-B175-3A13AC81D5EA";
shapes = (
{
closed = 1;
nodes = (
(333,170,ls),
(333,112,o),
(304,55,o),
(223,55,cs),
(140,55,o),
(109,114,o),
(108,184,c),
(37,184,l),
(37,66,o),
(110,-7,o),
(223,-7,cs),
(333,-7,o),
(403,64,o),
(403,170,cs),
(403,699,l),
(333,699,l)
);
}
);
width = 499;
}
);
unicode = 74;
userData = {
com.schriftgestaltung.Glyphs.ColorIndex = 4;
com.typesupply.AccentFactory.yCoordinates = {
bottom = {
name = origin;
type = glyphMetric;
};
top = {
name = capHeight;
type = fontInfo;
};
};
};
},
{
glyphname = K;
lastChange = "2024-07-30 10:39:23 +0000";
layers = (
{
anchors = (
{
name = bottom;
pos = (288,0);
},
{
name = top;
pos = (288,690);
}
);
layerId = "CDDB5E63-2DBC-4745-B175-3A13AC81D5EA";
shapes = (
{
closed = 1;
nodes = (
(80,0,l),
(150,0,l),
(150,699,l),
(80,699,l)
);
},
{
closed = 1;
nodes = (
(127,347,l),
(453,0,l),
(545,0,l),
(205,360,l),
(200,334,l),
(542,699,l),
(453,699,l)
);
}
);
width = 568;
}
);
unicode = 75;
userData = {
com.schriftgestaltung.Glyphs.ColorIndex = 4;
com.typesupply.AccentFactory.yCoordinates = {
bottom = {
name = origin;
type = glyphMetric;
};
top = {
name = capHeight;
type = fontInfo;
};
};
};
},
{
glyphname = Kcommaaccent;
lastChange = "2024-07-30 10:39:23 +0000";
layers = (
{
anchors = (
{
name = _bottom;
pos = (281,0);
}
);
layerId = "CDDB5E63-2DBC-4745-B175-3A13AC81D5EA";
shapes = (
{
closed = 1;
nodes = (
(241,-52,l),
(241,-121,l),
(284,-121,l),
(284,-135,ls),
(284,-171,o),
(271,-191,o),
(238,-191,c),
(238,-226,l),
(294,-226,o),
(328,-197,o),
(328,-119,cs),
(328,-100,o),
(325,-76,o),
(320,-52,c)
);
},
{
alignment = -1;
ref = K;
}
);
width = 568;
}
);
unicode = 310;
userData = {
com.schriftgestaltung.Glyphs.ColorIndex = 8;
com.typesupply.AccentFactory.compileType = manual;
};
},
{
glyphname = L;
lastChange = "2024-07-30 10:39:23 +0000";
layers = (
{
anchors = (
{
name = bottom;
pos = (235,0);
},
{
name = commaaccent;
pos = (235,10);
},
{
name = top;
pos = (213,690);
},
{
name = topright;
pos = (401,690);
}
);
layerId = "CDDB5E63-2DBC-4745-B175-3A13AC81D5EA";
shapes = (
{
closed = 1;
nodes = (
(80,699,l),
(80,0,l),
(401,0,l),
(401,57,l),
(150,57,l),
(150,699,l)
);
}
);
width = 421;
}
);
unicode = 76;
userData = {
com.schriftgestaltung.Glyphs.ColorIndex = 4;
com.typesupply.AccentFactory.yCoordinates = {
bottom = {
name = origin;
type = glyphMetric;
};
top = {
name = capHeight;
type = fontInfo;
};
};
};
},
{
glyphname = Lcaron;
lastChange = "2024-07-30 10:39:23 +0000";
layers = (
{
anchors = (
{
name = _bottom;
pos = (308,741);
}
);
layerId = "CDDB5E63-2DBC-4745-B175-3A13AC81D5EA";
shapes = (
{
closed = 1;
nodes = (
(267,699,l),
(267,623,l),
(313,623,l),
(313,599,ls),
(313,565,o),
(300,547,o),
(266,547,c),
(266,511,l),
(324,511,o),
(357,541,o),
(357,614,cs),
(357,638,o),
(354,666,o),
(348,699,c)
);
},
{
alignment = -1;
ref = L;
}
);
width = 431;
}
);
unicode = 317;
userData = {
com.schriftgestaltung.Glyphs.ColorIndex = 8;
com.typesupply.AccentFactory.compileType = manual;
};
},
{
glyphname = Lcommaaccent;
lastChange = "2024-07-30 10:39:23 +0000";
layers = (
{
anchors = (
{
name = _commaaccent;
pos = (240,0);
}
);
layerId = "CDDB5E63-2DBC-4745-B175-3A13AC81D5EA";
shapes = (
{
closed = 1;
nodes = (
(200,-52,l),
(200,-121,l),
(242,-121,l),
(242,-135,ls),
(242,-171,o),
(229,-191,o),
(196,-191,c),
(196,-226,l),
(253,-226,o),
(287,-197,o),
(287,-119,cs),
(287,-100,o),
(284,-76,o),
(278,-52,c)
);
},
{
alignment = -1;
ref = L;
}
);
width = 421;
}
);
unicode = 315;
userData = {
com.schriftgestaltung.Glyphs.ColorIndex = 8;
com.typesupply.AccentFactory.compileType = manual;
};
},
{
color = 4;
glyphname = Ldot;
lastChange = "2024-07-30 10:39:23 +0000";
layers = (
{
layerId = "CDDB5E63-2DBC-4745-B175-3A13AC81D5EA";
shapes = (
{
closed = 1;
nodes = (
(401,0,l),
(401,57,l),
(150,57,l),
(150,699,l),
(80,699,l),
(80,0,l)
);
},
{
closed = 1;
nodes = (
(363,330,o),
(384,351,o),
(384,376,cs),
(384,401,o),
(363,422,o),
(338,422,cs),
(312,422,o),
(292,401,o),
(292,376,cs),
(292,351,o),
(312,330,o),
(338,330,cs)
);
}
);
width = 421;
}
);
unicode = 319;
},
{
glyphname = Lslash;
lastChange = "2024-07-30 10:39:23 +0000";
layers = (
{
layerId = "CDDB5E63-2DBC-4745-B175-3A13AC81D5EA";
shapes = (
{
closed = 1;
nodes = (
(9,289,l),
(290,399,l),
(290,454,l),
(9,344,l)
);
},
{
closed = 1;
nodes = (
(95,699,l),
(95,0,l),
(416,0,l),
(416,55,l),
(165,55,l),
(165,699,l)
);
}
);
width = 430;
}
);
unicode = 321;
userData = {
com.schriftgestaltung.Glyphs.ColorIndex = 4;
};
},
{
glyphname = M;
lastChange = "2024-07-30 10:39:23 +0000";
layers = (
{
layerId = "CDDB5E63-2DBC-4745-B175-3A13AC81D5EA";
shapes = (
{
closed = 1;
nodes = (
(80,0,l),
(150,0,l),
(150,610,l),
(123,609,l),
(396,0,l),
(447,0,l),
(719,609,l),
(693,610,l),
(693,0,l),
(763,0,l),
(763,690,l),
(688,690,l),
(408,62,l),
(435,62,l),
(154,690,l),
(80,690,l)
);
}
);
width = 842;
}
);
unicode = 77;
userData = {
com.schriftgestaltung.Glyphs.ColorIndex = 4;
com.typesupply.AccentFactory.yCoordinates = {
bottom = {
name = origin;
type = glyphMetric;
};
top = {
name = capHeight;
type = fontInfo;
};
};
};
},
{
glyphname = N;
lastChange = "2024-07-30 10:39:23 +0000";
layers = (
{
anchors = (
{
name = bottom;
pos = (344,0);
},
{
name = top;
pos = (344,690);
}
);
layerId = "CDDB5E63-2DBC-4745-B175-3A13AC81D5EA";
shapes = (
{
closed = 1;
nodes = (
(537,699,l),
(537,112,l),
(150,699,l),
(80,699,l),
(80,0,l),
(150,0,l),
(150,588,l),
(537,0,l),
(607,0,l),
(607,699,l)
);
}
);
width = 686;
}
);
unicode = 78;
userData = {
com.schriftgestaltung.Glyphs.ColorIndex = 4;
com.typesupply.AccentFactory.yCoordinates = {
bottom = {
name = origin;
type = glyphMetric;
};
top = {
name = capHeight;
type = fontInfo;
};
};
};
},
{
glyphname = Ncommaaccent;
lastChange = "2024-07-30 10:39:23 +0000";
layers = (
{
anchors = (
{
name = _bottom;
pos = (343,0);
}
);
layerId = "CDDB5E63-2DBC-4745-B175-3A13AC81D5EA";
shapes = (
{
closed = 1;
nodes = (
(302,-52,l),
(302,-121,l),
(344,-121,l),
(344,-135,ls),
(344,-171,o),
(331,-191,o),
(299,-191,c),
(299,-226,l),
(355,-226,o),
(389,-197,o),
(389,-119,cs),
(389,-100,o),
(386,-76,o),
(380,-52,c)
);
},
{
alignment = -1;
ref = N;
}
);
width = 686;
}
);
unicode = 325;
userData = {
com.schriftgestaltung.Glyphs.ColorIndex = 8;
com.typesupply.AccentFactory.compileType = manual;
};
},
{
glyphname = O;
lastChange = "2024-07-30 10:39:23 +0000";
layers = (
{
anchors = (
{
name = top;
pos = (399,690);
}
);
layerId = "CDDB5E63-2DBC-4745-B175-3A13AC81D5EA";
shapes = (
{
closed = 1;
nodes = (
(591,-7,o),
(740,140,o),
(740,350,c),
(740,559,o),
(591,707,o),
(394,707,c),
(198,707,o),
(48,559,o),
(48,350,c),
(48,140,o),
(198,-7,o),
(394,-7,c)
);
},
{
closed = 1;
nodes = (
(239,54,o),
(120,167,o),
(120,350,c),
(120,533,o),
(239,645,o),
(394,645,c),
(549,645,o),
(668,533,o),
(668,350,c),
(668,167,o),
(549,54,o),
(394,54,c)
);
}
);
width = 788;
}
);
unicode = 79;
userData = {
com.schriftgestaltung.Glyphs.ColorIndex = 4;
com.typemytype.robofont.layerData = {
b = {
anchors = (
{
name = top;
x = 407;
y = 683;
}
);
components = (
);
contours = (
{
points = (
{
segmentType = curve;
smooth = 1;
x = 60;
y = 341;
},
{
smooth = 0;
x = 60;
y = 138;
},
{
smooth = 0;
x = 214;
y = -7;
},
{
segmentType = curve;
smooth = 1;
x = 407;
y = -7;
},
{
smooth = 0;
x = 601;
y = -7;
},
{
smooth = 0;
x = 754;
y = 138;
},
{
segmentType = curve;
smooth = 1;
x = 754;
y = 341;
},
{
smooth = 0;
x = 754;
y = 546;
},
{
smooth = 0;
x = 601;
y = 690;
},
{
segmentType = curve;
smooth = 1;
x = 407;
y = 690;
},
{
smooth = 0;
x = 214;
y = 690;
},
{
smooth = 0;
x = 60;
y = 546;
}
);
},
{
points = (
{
segmentType = curve;
smooth = 1;
x = 733;
y = 341;
},
{
smooth = 0;
x = 733;
y = 137;
},
{
smooth = 0;
x = 588;
y = 4;
},
{
segmentType = curve;
smooth = 1;
x = 407;
y = 4;
},
{
smooth = 0;
x = 226;
y = 4;
},
{
smooth = 0;
x = 80;
y = 137;
},
{
segmentType = curve;
smooth = 1;
x = 80;
y = 341;
},
{
smooth = 0;
x = 80;
y = 547;
},
{
smooth = 0;
x = 226;
y = 677;
},
{
segmentType = curve;
smooth = 1;
x = 407;
y = 677;
},
{
smooth = 0;
x = 588;
y = 677;
},
{
smooth = 0;
x = 733;
y = 547;
}
);
}
);
lib = {
};
name = O;
unicodes = (
);
width = 792;
};
};
com.typesupply.AccentFactory.yCoordinates = {
bottom = {
name = origin;
type = glyphMetric;
};
top = {
name = capHeight;
type = fontInfo;
};
};
};
},
{
glyphname = Oslash;
lastChange = "2024-07-30 10:39:23 +0000";
layers = (
{
layerId = "CDDB5E63-2DBC-4745-B175-3A13AC81D5EA";
shapes = (
{
closed = 1;
nodes = (
(42,0,l),
(102,0,l),
(745,700,l),
(686,700,l)
);
},
{
alignment = -1;
ref = O;
}
);
width = 788;
}
);
unicode = 216;
userData = {
com.schriftgestaltung.Glyphs.ColorIndex = 4;
};
},
{
glyphname = OE;
lastChange = "2024-07-30 10:39:23 +0000";
layers = (
{
layerId = "CDDB5E63-2DBC-4745-B175-3A13AC81D5EA";
shapes = (
{
closed = 1;
nodes = (
(1034,643,l),
(1034,699,l),
(668,699,l),
(668,530,l),
(623,640,o),
(517,707,o),
(389,707,c),
(198,707,o),
(48,560,o),
(48,350,c),
(48,140,o),
(198,-7,o),
(389,-7,c),
(517,-7,o),
(623,59,o),
(668,171,c),
(668,0,l),
(1034,0,l),
(1034,56,l),
(738,56,l),
(738,324,l),
(1004,324,l),
(1004,379,l),
(738,379,l),
(738,643,l)
);
},
{
closed = 1;
nodes = (
(120,531,o),
(239,643,o),
(394,643,c),
(549,643,o),
(668,531,o),
(668,350,c),
(668,169,o),
(549,56,o),
(394,56,c),
(239,56,o),
(120,169,o),
(120,350,c)
);
}
);
width = 1092;
}
);
metricLeft = O;
metricRight = E;
unicode = 338;
userData = {
com.schriftgestaltung.Glyphs.ColorIndex = 4;
com.typesupply.AccentFactory.yCoordinates = {
bottom = {
name = origin;
type = glyphMetric;
};
top = {
name = capHeight;
type = fontInfo;
};
};
};
},
{
glyphname = P;
lastChange = "2024-07-30 10:39:23 +0000";
layers = (
{
layerId = "CDDB5E63-2DBC-4745-B175-3A13AC81D5EA";
shapes = (
{
closed = 1;
nodes = (
(150,358,l),
(150,640,l),
(291,640,ls),
(409,640,o),
(455,588,o),
(455,498,cs),
(455,412,o),
(409,358,o),
(291,358,cs)
);
},
{
closed = 1;
nodes = (
(527,498,cs),
(527,613,o),
(453,699,o),
(291,699,cs),
(80,699,l),
(80,0,l),
(150,0,l),
(150,298,l),
(291,298,ls),
(455,298,o),
(527,385,o)
);
}
);
width = 564;
}
);
unicode = 80;
userData = {
com.schriftgestaltung.Glyphs.ColorIndex = 4;
com.typesupply.AccentFactory.yCoordinates = {
bottom = {
name = origin;
type = glyphMetric;
};
top = {
name = capHeight;
type = fontInfo;
};
};
};
},
{
glyphname = Thorn;
lastChange = "2024-07-30 10:39:23 +0000";
layers = (
{
layerId = "CDDB5E63-2DBC-4745-B175-3A13AC81D5EA";
shapes = (
{
closed = 1;
nodes = (
(150,207,l),
(150,494,l),
(291,494,ls),
(409,494,o),
(455,439,o),
(455,350,cs),
(455,264,o),
(409,207,o),
(291,207,cs)
);
},
{
closed = 1;
nodes = (
(527,350,cs),
(527,465,o),
(453,551,o),
(291,551,cs),
(149,551,l),
(149,700,l),
(80,700,l),
(80,0,l),
(150,0,l),
(150,150,l),
(291,150,ls),
(455,150,o),
(527,236,o)
);
}
);
width = 564;
}
);
unicode = 222;
userData = {
com.schriftgestaltung.Glyphs.ColorIndex = 4;
};
},
{
glyphname = Q;
lastChange = "2024-07-30 10:39:23 +0000";
layers = (
{
layerId = "CDDB5E63-2DBC-4745-B175-3A13AC81D5EA";
shapes = (
{
closed = 1;
nodes = (
(474,33,l),
(657,-137,l),
(751,-137,l),
(538,59,l)
);
},
{
alignment = -1;
ref = O;
}
);
width = 789;
}
);
unicode = 81;
userData = {
com.schriftgestaltung.Glyphs.ColorIndex = 4;
com.typesupply.AccentFactory.yCoordinates = {
bottom = {
name = origin;
type = glyphMetric;
};
top = {
name = capHeight;
type = fontInfo;
};
};
};
},
{
glyphname = R;
lastChange = "2024-07-30 10:39:23 +0000";
layers = (
{
anchors = (
{
name = bottom;
pos = (307,0);
},
{
name = top;
pos = (307,690);
}
);
layerId = "CDDB5E63-2DBC-4745-B175-3A13AC81D5EA";
shapes = (
{
closed = 1;
nodes = (
(456,496,cs),
(456,411,o),
(405,349,o),
(291,349,cs),
(150,349,l),
(150,640,l),
(290,640,ls),
(408,640,o),
(456,584,o)
);
},
{
closed = 1;
nodes = (
(80,699,l),
(80,0,l),
(150,0,l),
(150,292,l),
(291,292,ls),
(455,292,o),
(528,384,o),
(528,496,cs),
(528,611,o),
(452,699,o),
(290,699,cs)
);
},
{
closed = 1;
nodes = (
(265,315,l),
(452,0,l),
(536,0,l),
(345,315,l)
);
}
);
width = 587;
}
);
unicode = 82;
userData = {
com.schriftgestaltung.Glyphs.ColorIndex = 4;
com.typesupply.AccentFactory.yCoordinates = {
bottom = {
name = origin;
type = glyphMetric;
};
top = {
name = capHeight;
type = fontInfo;
};
};
};
},
{
glyphname = Rcommaaccent;
lastChange = "2024-07-30 10:39:23 +0000";
layers = (
{
anchors = (
{
name = _bottom;
pos = (291,0);
}
);
layerId = "CDDB5E63-2DBC-4745-B175-3A13AC81D5EA";
shapes = (
{
closed = 1;
nodes = (
(250,-52,l),
(250,-121,l),
(292,-121,l),
(292,-135,ls),
(292,-171,o),
(279,-191,o),
(247,-191,c),
(247,-226,l),
(303,-226,o),
(337,-197,o),
(337,-119,cs),
(337,-100,o),
(334,-76,o),
(329,-52,c)
);
},
{
alignment = -1;
ref = R;
}
);
width = 587;
}
);
unicode = 342;
userData = {
com.schriftgestaltung.Glyphs.ColorIndex = 8;
com.typesupply.AccentFactory.compileType = manual;
};
},
{
glyphname = S;
lastChange = "2024-07-30 10:39:23 +0000";
layers = (
{
anchors = (
{
name = bottom;
pos = (287,-4);
},
{
name = top;
pos = (284,694);
}
);
layerId = "CDDB5E63-2DBC-4745-B175-3A13AC81D5EA";
shapes = (
{
closed = 1;
nodes = (
(440,-7,o),
(517,89,o),
(517,184,cs),
(517,444,o),
(133,320,o),
(133,522,cs),
(133,603,o),
(201,648,o),
(283,647,c),
(380,646,o),
(427,586,o),
(435,537,c),
(511,537,l),
(499,633,o),
(419,707,o),
(286,707,c),
(151,707,o),
(62,628,o),
(62,520,cs),
(62,257,o),
(446,387,o),
(446,181,cs),
(446,109,o),
(389,52,o),
(292,52,cs),
(179,52,o),
(136,122,o),
(130,180,c),
(56,180,l),
(60,73,o),
(152,-7,o),
(292,-7,cs)
);
}
);
width = 572;
}
);
unicode = 83;
userData = {
com.schriftgestaltung.Glyphs.ColorIndex = 4;
com.typesupply.AccentFactory.yCoordinates = {
bottom = {
name = origin;
type = glyphMetric;
};
top = {
name = capHeight;
type = fontInfo;
};
};
};
},
{
glyphname = Scommaaccent;
lastChange = "2024-07-30 10:39:23 +0000";
layers = (
{
anchors = (
{
name = _bottom;
pos = (297,-3);
}
);
layerId = "CDDB5E63-2DBC-4745-B175-3A13AC81D5EA";
shapes = (
{
closed = 1;
nodes = (
(257,-52,l),
(257,-121,l),
(300,-121,l),
(300,-135,ls),
(300,-171,o),
(286,-191,o),
(253,-191,c),
(253,-226,l),
(310,-226,o),
(344,-197,o),
(344,-119,cs),
(344,-100,o),
(341,-76,o),
(336,-52,c)
);
},
{
alignment = -1;
ref = S;
}
);
width = 572;
}
);
unicode = 536;
userData = {
com.schriftgestaltung.Glyphs.ColorIndex = 8;
com.typesupply.AccentFactory.compileType = manual;
};
},
{
glyphname = T;
lastChange = "2024-07-30 10:39:23 +0000";
layers = (
{
anchors = (
{
name = bottom;
pos = (258,0);
},
{
name = top;
pos = (260,690);
}
);
layerId = "CDDB5E63-2DBC-4745-B175-3A13AC81D5EA";
shapes = (
{
closed = 1;
nodes = (
(30,641,l),
(225,641,l),
(225,0,l),
(295,0,l),
(295,641,l),
(489,641,l),
(489,699,l),
(30,699,l)
);
}
);
width = 520;
}
);
unicode = 84;
userData = {
com.schriftgestaltung.Glyphs.ColorIndex = 4;
com.typesupply.AccentFactory.yCoordinates = {
bottom = {
name = origin;
type = glyphMetric;
};
top = {
name = capHeight;
type = fontInfo;
};
};
};
},
{
glyphname = Tcommaaccent;
lastChange = "2024-07-30 10:39:23 +0000";
layers = (
{
layerId = "CDDB5E63-2DBC-4745-B175-3A13AC81D5EA";
shapes = (
{
closed = 1;
nodes = (
(218,-52,l),
(218,-121,l),
(261,-121,l),
(261,-135,ls),
(261,-171,o),
(247,-191,o),
(215,-191,c),
(215,-226,l),
(271,-226,o),
(305,-197,o),
(305,-119,cs),
(305,-100,o),
(302,-76,o),
(297,-52,c)
);
},
{
alignment = -1;
ref = T;
}
);
width = 520;
}
);
unicode = 538;
userData = {
com.schriftgestaltung.Glyphs.ColorIndex = 8;
com.typesupply.AccentFactory.compileType = manual;
};
},
{
glyphname = U;
lastChange = "2024-07-30 10:39:23 +0000";
layers = (
{
anchors = (
{
name = ogonek;
pos = (399,0);
},
{
name = top;
pos = (330,690);
}
);
layerId = "CDDB5E63-2DBC-4745-B175-3A13AC81D5EA";
shapes = (
{
closed = 1;
nodes = (
(77,260,ls),
(77,75,o),
(189,-7,o),
(331,-7,cs),
(473,-7,o),
(585,75,o),
(585,260,cs),
(585,699,l),
(515,699,l),
(515,259,ls),
(515,114,o),
(441,55,o),
(332,55,cs),
(223,55,o),
(147,114,o),
(147,259,cs),
(147,699,l),
(77,699,l)
);
}
);
width = 661;
}
);
unicode = 85;
userData = {
com.schriftgestaltung.Glyphs.ColorIndex = 4;
com.typesupply.AccentFactory.yCoordinates = {
bottom = {
name = origin;
type = glyphMetric;
};
top = {
name = capHeight;
type = fontInfo;
};
};
};
},
{
glyphname = V;
lastChange = "2024-07-30 10:39:23 +0000";
layers = (
{
layerId = "CDDB5E63-2DBC-4745-B175-3A13AC81D5EA";
shapes = (
{
closed = 1;
nodes = (
(329,76,l),
(100,699,l),
(24,699,l),
(289,0,l),
(369,0,l),
(634,699,l),
(560,699,l)
);
}
);
width = 659;
}
);
unicode = 86;
userData = {
com.schriftgestaltung.Glyphs.ColorIndex = 4;
com.typesupply.AccentFactory.yCoordinates = {
bottom = {
name = origin;
type = glyphMetric;
};
top = {
name = capHeight;
type = fontInfo;
};
};
};
},
{
glyphname = W;
lastChange = "2024-07-30 10:39:23 +0000";
layers = (
{
layerId = "CDDB5E63-2DBC-4745-B175-3A13AC81D5EA";
shapes = (
{
closed = 1;
nodes = (
(220,-1,l),
(296,0,l),
(488,634,l),
(465,634,l),
(652,0,l),
(730,0,l),
(928,699,l),
(853,699,l),
(681,42,l),
(705,42,l),
(518,699,l),
(440,699,l),
(248,43,l),
(272,43,l),
(101,699,l),
(26,699,l)
);
}
);
width = 955;
}
);
unicode = 87;
userData = {
com.schriftgestaltung.Glyphs.ColorIndex = 4;
com.typemytype.robofont.layerData = {
b = {
anchors = (
);
components = (
);
contours = (
{
points = (
{
segmentType = line;
smooth = 0;
x = 229;
y = -2;
},
{
segmentType = line;
smooth = 0;
x = 245;
y = 0;
},
{
segmentType = line;
smooth = 0;
x = 473;
y = 727;
},
{
segmentType = line;
smooth = 0;
x = 435;
y = 727;
},
{
segmentType = line;
smooth = 0;
x = 638;
y = 0;
},
{
segmentType = line;
smooth = 0;
x = 654;
y = 0;
},
{
segmentType = line;
smooth = 0;
x = 877;
y = 684;
},
{
segmentType = line;
smooth = 0;
x = 860;
y = 684;
},
{
segmentType = line;
smooth = 0;
x = 636;
y = 7;
},
{
segmentType = line;
smooth = 0;
x = 650;
y = 5;
},
{
segmentType = line;
smooth = 0;
x = 459;
y = 684;
},
{
segmentType = line;
smooth = 0;
x = 442;
y = 684;
},
{
segmentType = line;
smooth = 0;
x = 230;
y = 10;
},
{
segmentType = line;
smooth = 0;
x = 239;
y = 10;
},
{
segmentType = line;
smooth = 0;
x = 54;
y = 684;
},
{
segmentType = line;
smooth = 0;
x = 36;
y = 684;
}
);
}
);
lib = {
};
name = W;
unicodes = (
);
width = 904;
};
};
com.typesupply.AccentFactory.yCoordinates = {
bottom = {
name = origin;
type = glyphMetric;
};
top = {
name = capHeight;
type = fontInfo;
};
};
};
},
{
glyphname = X;
lastChange = "2024-07-30 10:39:23 +0000";
layers = (
{
layerId = "CDDB5E63-2DBC-4745-B175-3A13AC81D5EA";
shapes = (
{
closed = 1;
nodes = (
(466,0,l),
(544,0,l),
(119,699,l),
(41,699,l)
);
},
{
closed = 1;
nodes = (
(266,375,l),
(41,0,l),
(119,0,l),
(306,323,l)
);
},
{
closed = 1;
nodes = (
(321,331,l),
(545,699,l),
(467,699,l),
(281,383,l)
);
}
);
width = 585;
}
);
unicode = 88;
userData = {
com.schriftgestaltung.Glyphs.ColorIndex = 4;
com.typemytype.robofont.guides = (
{
angle = 90;
isGlobal = 0;
magnetic = 5;
x = 50;
y = 16;
},
{
angle = 90;
isGlobal = 0;
magnetic = 5;
x = 490;
y = 36;
},
{
angle = 0;
isGlobal = 0;
magnetic = 5;
x = 511;
y = 352;
}
);
com.typesupply.AccentFactory.yCoordinates = {
bottom = {
name = origin;
type = glyphMetric;
};
top = {
name = capHeight;
type = fontInfo;
};
};
};
},
{
glyphname = Y;
lastChange = "2024-07-30 10:39:23 +0000";
layers = (
{
anchors = (
{
name = top;
pos = (283,690);
}
);
layerId = "CDDB5E63-2DBC-4745-B175-3A13AC81D5EA";
shapes = (
{
closed = 1;
nodes = (
(248,272,l),
(248,0,l),
(318,0,l),
(318,272,l),
(542,699,l),
(464,699,l),
(267,304,l),
(299,304,l),
(101,699,l),
(22,699,l)
);
}
);
width = 564;
}
);
unicode = 89;
userData = {
com.schriftgestaltung.Glyphs.ColorIndex = 4;
com.typesupply.AccentFactory.yCoordinates = {
bottom = {
name = origin;
type = glyphMetric;
};
top = {
name = capHeight;
type = fontInfo;
};
};
};
},
{
glyphname = Z;
lastChange = "2024-07-30 10:39:23 +0000";
layers = (
{
anchors = (
{
name = top;
pos = (263,690);
}
);
layerId = "CDDB5E63-2DBC-4745-B175-3A13AC81D5EA";
shapes = (
{
closed = 1;
nodes = (
(477,699,l),
(49,699,l),
(49,637,l),
(395,637,l),
(43,56,l),
(43,0,l),
(482,0,l),
(482,62,l),
(125,62,l),
(477,643,l)
);
}
);
width = 525;
}
);
unicode = 90;
userData = {
com.schriftgestaltung.Glyphs.ColorIndex = 4;
com.typesupply.AccentFactory.yCoordinates = {
bottom = {
name = origin;
type = glyphMetric;
};
top = {
name = capHeight;
type = fontInfo;
};
};
};
},
{
glyphname = a;
lastChange = "2024-07-30 10:39:23 +0000";
layers = (
{
anchors = (
{
name = ogonek;
pos = (595,0);
},
{
name = top;
pos = (339,546);
}
);
layerId = "CDDB5E63-2DBC-4745-B175-3A13AC81D5EA";
shapes = (
{
closed = 1;
nodes = (
(48,274,c),
(48,103,o),
(159,-8,o),
(308,-8,c),
(417,-8,o),
(493,51,o),
(525,121,c),
(525,0,l),
(595,0,l),
(595,546,l),
(525,546,l),
(525,426,l),
(494,495,o),
(419,554,o),
(309,554,c),
(159,554,o),
(48,445,o)
);
},
{
closed = 1;
nodes = (
(525,273,c),
(525,137,o),
(434,53,o),
(322,53,c),
(207,53,o),
(119,136,o),
(119,274,c),
(119,413,o),
(207,493,o),
(322,493,c),
(434,493,o),
(525,409,o)
);
}
);
width = 675;
}
);
unicode = 97;
userData = {
com.schriftgestaltung.Glyphs.ColorIndex = 4;
com.typemytype.robofont.guides = (
{
angle = 90;
isGlobal = 0;
magnetic = 5;
x = 306;
y = 501;
},
{
angle = 0;
isGlobal = 0;
magnetic = 5;
x = 88;
y = 270;
}
);
com.typesupply.AccentFactory.yCoordinates = {
bottom = {
name = origin;
type = glyphMetric;
};
top = {
name = xHeight;
type = fontInfo;
};
};
};
},
{
glyphname = ae;
lastChange = "2024-07-30 10:39:23 +0000";
layers = (
{
layerId = "CDDB5E63-2DBC-4745-B175-3A13AC81D5EA";
shapes = (
{
closed = 1;
nodes = (
(586,248,l),
(1057,248,l),
(1060,267,o),
(1061,281,o),
(1061,302,cs),
(1061,438,o),
(965,554,o),
(807,554,cs),
(712,554,o),
(632,512,o),
(588,422,c),
(588,546,l),
(529,546,l),
(529,423,l),
(490,503,o),
(414,554,o),
(312,554,c),
(159,554,o),
(48,445,o),
(48,274,c),
(48,103,o),
(159,-8,o),
(309,-8,c),
(414,-8,o),
(492,49,o),
(527,126,c),
(527,0,l),
(588,0,l),
(588,126,l),
(624,41,o),
(710,-8,o),
(807,-8,cs),
(940,-8,o),
(1028,70,o),
(1053,173,c),
(977,173,l),
(960,99,o),
(893,51,o),
(796,51,cs),
(697,51,o),
(596,120,o),
(596,265,cs),
(596,283,ls),
(596,421,o),
(691,494,o),
(797,494,cs),
(901,494,o),
(993,429,o),
(989,300,c),
(586,300,l)
);
},
{
closed = 1;
nodes = (
(119,274,c),
(119,413,o),
(207,493,o),
(322,493,c),
(434,493,o),
(525,409,o),
(525,273,c),
(525,137,o),
(434,53,o),
(322,53,c),
(207,53,o),
(119,136,o)
);
}
);
width = 1108;
}
);
unicode = 230;
userData = {
com.schriftgestaltung.Glyphs.ColorIndex = 4;
com.typemytype.robofont.layerData = {
b = {
anchors = (
);
components = (
);
contours = (
{
points = (
{
segmentType = line;
smooth = 0;
x = 547;
y = 261;
},
{
segmentType = line;
smooth = 0;
x = 1043;
y = 261;
},
{
smooth = 0;
x = 1046;
y = 280;
},
{
smooth = 0;
x = 1047;
y = 298;
},
{
segmentType = curve;
smooth = 1;
x = 1047;
y = 315;
},
{
smooth = 0;
x = 1047;
y = 439;
},
{
smooth = 0;
x = 956;
y = 552;
},
{
segmentType = curve;
smooth = 1;
x = 799;
y = 552;
},
{
smooth = 0;
x = 703;
y = 552;
},
{
smooth = 0;
x = 638;
y = 528;
},
{
segmentType = curve;
smooth = 0;
x = 582;
y = 437;
},
{
segmentType = line;
smooth = 0;
x = 582;
y = 540;
},
{
segmentType = line;
smooth = 0;
x = 562;
y = 540;
},
{
segmentType = line;
smooth = 0;
x = 562;
y = 437;
},
{
smooth = 0;
x = 508;
y = 528;
},
{
smooth = 0;
x = 432;
y = 552;
},
{
segmentType = curve;
smooth = 1;
x = 344;
y = 552;
},
{
smooth = 0;
x = 174;
y = 552;
},
{
smooth = 0;
x = 60;
y = 448;
},
{
segmentType = curve;
smooth = 1;
x = 60;
y = 278;
},
{
smooth = 0;
x = 60;
y = 108;
},
{
smooth = 0;
x = 174;
y = -12;
},
{
segmentType = curve;
smooth = 1;
x = 329;
y = -12;
},
{
smooth = 0;
x = 432;
y = -12;
},
{
smooth = 0;
x = 521;
y = 41;
},
{
segmentType = curve;
smooth = 0;
x = 562;
y = 105;
},
{
segmentType = line;
smooth = 0;
x = 562;
y = 0;
},
{
segmentType = line;
smooth = 0;
x = 582;
y = 0;
},
{
segmentType = line;
smooth = 0;
x = 582;
y = 103;
},
{
smooth = 0;
x = 627;
y = 34;
},
{
smooth = 0;
x = 696;
y = -12;
},
{
segmentType = curve;
smooth = 1;
x = 780;
y = -12;
},
{
smooth = 0;
x = 924;
y = -12;
},
{
smooth = 0;
x = 995;
y = 66;
},
{
segmentType = curve;
smooth = 0;
x = 1027;
y = 137;
},
{
segmentType = line;
smooth = 0;
x = 1007;
y = 137;
},
{
smooth = 0;
x = 982;
y = 60;
},
{
smooth = 0;
x = 917;
y = -1;
},
{
segmentType = curve;
smooth = 1;
x = 807;
y = -1;
},
{
smooth = 0;
x = 667;
y = -1;
},
{
smooth = 0;
x = 561;
y = 118;
},
{
segmentType = curve;
smooth = 1;
x = 561;
y = 274;
},
{
segmentType = line;
smooth = 1;
x = 561;
y = 259;
},
{
smooth = 0;
x = 561;
y = 432;
},
{
smooth = 0;
x = 674;
y = 541;
},
{
segmentType = curve;
smooth = 1;
x = 804;
y = 541;
},
{
smooth = 0;
x = 933;
y = 541;
},
{
smooth = 0;
x = 1030;
y = 448;
},
{
segmentType = curve;
smooth = 0;
x = 1027;
y = 290;
},
{
segmentType = line;
smooth = 0;
x = 552;
y = 290;
}
);
},
{
points = (
{
segmentType = curve;
smooth = 1;
x = 81;
y = 278;
},
{
smooth = 0;
x = 81;
y = 438;
},
{
smooth = 0;
x = 192;
y = 536;
},
{
segmentType = curve;
smooth = 1;
x = 323;
y = 536;
},
{
smooth = 0;
x = 456;
y = 536;
},
{
smooth = 0;
x = 567;
y = 430;
},
{
segmentType = curve;
smooth = 1;
x = 567;
y = 270;
},
{
smooth = 0;
x = 567;
y = 110;
},
{
smooth = 0;
x = 456;
y = 5;
},
{
segmentType = curve;
smooth = 1;
x = 323;
y = 5;
},
{
smooth = 0;
x = 192;
y = 5;
},
{
smooth = 0;
x = 81;
y = 118;
}
);
}
);
lib = {
};
name = ae;
unicodes = (
);
width = 1135;
};
};
com.typesupply.AccentFactory.yCoordinates = {
bottom = {
name = origin;
type = glyphMetric;
};
top = {
name = xHeight;
type = fontInfo;
};
};
};
},
{
glyphname = b;
lastChange = "2024-07-30 10:39:23 +0000";
layers = (
{
layerId = "CDDB5E63-2DBC-4745-B175-3A13AC81D5EA";
shapes = (
{
closed = 1;
nodes = (
(149,425,c),
(149,740,l),
(80,740,l),
(80,0,l),
(149,0,l),
(149,120,l),
(182,49,o),
(257,-8,o),
(366,-8,c),
(515,-8,o),
(626,103,o),
(626,274,c),
(626,445,o),
(516,554,o),
(366,554,c),
(259,554,o),
(183,497,o)
);
},
{
closed = 1;
nodes = (
(555,274,c),
(555,136,o),
(467,53,o),
(352,53,c),
(241,53,o),
(149,137,o),
(149,273,c),
(149,409,o),
(241,493,o),
(352,493,c),
(467,493,o),
(555,413,o)
);
}
);
width = 675;
}
);
unicode = 98;
userData = {
com.schriftgestaltung.Glyphs.ColorIndex = 4;
com.typemytype.robofont.layerData = {
b = {
anchors = (
);
components = (
);
contours = (
{
points = (
{
segmentType = curve;
smooth = 0;
x = 105;
y = 398;
},
{
segmentType = line;
smooth = 0;
x = 105;
y = 740;
},
{
segmentType = line;
smooth = 0;
x = 85;
y = 740;
},
{
segmentType = line;
smooth = 0;
x = 85;
y = 0;
},
{
segmentType = line;
smooth = 0;
x = 105;
y = 0;
},
{
segmentType = line;
smooth = 0;
x = 105;
y = 140;
},
{
smooth = 0;
x = 137;
y = 60;
},
{
smooth = 0;
x = 223;
y = -12;
},
{
segmentType = curve;
smooth = 1;
x = 342;
y = -12;
},
{
smooth = 0;
x = 498;
y = -12;
},
{
smooth = 0;
x = 611;
y = 108;
},
{
segmentType = curve;
smooth = 1;
x = 611;
y = 278;
},
{
smooth = 0;
x = 611;
y = 448;
},
{
smooth = 0;
x = 498;
y = 552;
},
{
segmentType = curve;
smooth = 1;
x = 342;
y = 552;
},
{
smooth = 0;
x = 223;
y = 552;
},
{
smooth = 0;
x = 138;
y = 480;
}
);
},
{
points = (
{
segmentType = curve;
smooth = 1;
x = 590;
y = 278;
},
{
smooth = 0;
x = 590;
y = 118;
},
{
smooth = 0;
x = 480;
y = 5;
},
{
segmentType = curve;
smooth = 1;
x = 347;
y = 5;
},
{
smooth = 0;
x = 215;
y = 5;
},
{
smooth = 0;
x = 105;
y = 110;
},
{
segmentType = curve;
smooth = 1;
x = 105;
y = 270;
},
{
smooth = 0;
x = 105;
y = 430;
},
{
smooth = 0;
x = 215;
y = 536;
},
{
segmentType = curve;
smooth = 1;
x = 347;
y = 536;
},
{
smooth = 0;
x = 480;
y = 536;
},
{
smooth = 0;
x = 590;
y = 438;
}
);
}
);
lib = {
};
name = b;
unicodes = (
);
width = 671;
};
};
com.typesupply.AccentFactory.yCoordinates = {
bottom = {
name = origin;
type = glyphMetric;
};
top = {
name = ascender;
type = fontInfo;
};
};
};
},
{
glyphname = c;
lastChange = "2024-07-30 10:39:23 +0000";
layers = (
{
anchors = (
{
name = bottom;
pos = (308,0);
},
{
name = top;
pos = (308,546);
}
);
layerId = "CDDB5E63-2DBC-4745-B175-3A13AC81D5EA";
shapes = (
{
closed = 1;
nodes = (
(48,273,c),
(48,100,o),
(159,-8,o),
(313,-8,cs),
(450,-8,o),
(539,69,o),
(564,178,c),
(489,178,l),
(470,98,o),
(405,51,o),
(313,51,cs),
(206,51,o),
(119,125,o),
(119,273,c),
(119,421,o),
(206,494,o),
(313,494,cs),
(405,494,o),
(471,446,o),
(489,368,c),
(564,368,l),
(539,481,o),
(450,554,o),
(313,554,cs),
(159,554,o),
(48,446,o)
);
}
);
width = 613;
}
);
unicode = 99;
userData = {
com.schriftgestaltung.Glyphs.ColorIndex = 4;
com.typemytype.robofont.guides = (
{
angle = 90;
isGlobal = 0;
magnetic = 5;
x = 287;
y = 532;
}
);
com.typesupply.AccentFactory.yCoordinates = {
bottom = {
name = origin;
type = glyphMetric;
};
top = {
name = xHeight;
type = fontInfo;
};
};
};
},
{
glyphname = d;
lastChange = "2024-07-30 10:39:23 +0000";
layers = (
{
anchors = (
{
name = topright;
pos = (595,740);
}
);
layerId = "CDDB5E63-2DBC-4745-B175-3A13AC81D5EA";
shapes = (
{
closed = 1;
nodes = (
(48,274,c),
(48,103,o),
(159,-8,o),
(309,-8,c),
(417,-8,o),
(493,50,o),
(525,122,c),
(525,0,l),
(595,0,l),
(595,740,l),
(525,740,l),
(525,428,l),
(490,500,o),
(408,554,o),
(310,554,c),
(159,554,o),
(48,445,o)
);
},
{
closed = 1;
nodes = (
(525,273,c),
(525,137,o),
(434,53,o),
(322,53,c),
(207,53,o),
(119,136,o),
(119,274,c),
(119,413,o),
(207,493,o),
(322,493,c),
(434,493,o),
(525,409,o)
);
}
);
width = 675;
}
);
unicode = 100;
userData = {
com.schriftgestaltung.Glyphs.ColorIndex = 4;
com.typesupply.AccentFactory.yCoordinates = {
bottom = {
name = origin;
type = glyphMetric;
};
top = {
name = ascender;
type = fontInfo;
};
};
};
},
{
glyphname = eth;
lastChange = "2024-07-30 10:39:23 +0000";
layers = (
{
layerId = "CDDB5E63-2DBC-4745-B175-3A13AC81D5EA";
shapes = (
{
closed = 1;
nodes = (
(258,640,l),
(258,599,l),
(554,701,l),
(554,742,l)
);
},
{
closed = 1;
nodes = (
(160,556,o),
(48,447,o),
(48,281,cs),
(48,108,o),
(157,-8,o),
(318,-8,cs),
(477,-8,o),
(592,98,o),
(592,312,cs),
(592,481,o),
(518,617,o),
(366,740,c),
(294,740,l),
(427,634,o),
(486,548,o),
(515,432,c),
(475,517,o),
(402,556,o),
(314,556,cs)
);
},
{
closed = 1;
nodes = (
(206,51,o),
(119,133,o),
(119,281,cs),
(119,422,o),
(209,497,o),
(319,497,cs),
(427,497,o),
(521,419,o),
(521,273,cs),
(521,130,o),
(427,51,o),
(318,51,cs)
);
}
);
width = 640;
}
);
unicode = 240;
userData = {
com.schriftgestaltung.Glyphs.ColorIndex = 4;
};
},
{
glyphname = dcaron;
lastChange = "2024-07-30 10:39:23 +0000";
layers = (
{
layerId = "CDDB5E63-2DBC-4745-B175-3A13AC81D5EA";
shapes = (
{
closed = 1;
nodes = (
(648,740,l),
(648,664,l),
(694,664,l),
(694,639,ls),
(694,606,o),
(682,588,o),
(647,588,c),
(647,552,l),
(706,552,o),
(739,581,o),
(739,655,cs),
(739,679,o),
(736,707,o),
(729,740,c)
);
},
{
alignment = -1;
ref = d;
}
);
width = 730;
}
);
unicode = 271;
userData = {
com.schriftgestaltung.Glyphs.ColorIndex = 8;
com.typesupply.AccentFactory.compileType = manual;
};
},
{
glyphname = dcroat;
lastChange = "2024-07-30 10:39:23 +0000";
layers = (
{
layerId = "CDDB5E63-2DBC-4745-B175-3A13AC81D5EA";
shapes = (
{
closed = 1;
nodes = (
(385,618,l),
(658,618,l),
(658,662,l),
(385,662,l)
);
},
{
alignment = -1;
ref = d;
}
);
width = 671;
}
);
unicode = 273;
userData = {
com.schriftgestaltung.Glyphs.ColorIndex = 8;
};
},
{
glyphname = e;
lastChange = "2024-07-30 10:39:23 +0000";
layers = (
{
anchors = (
{
name = bottom;
pos = (311,0);
},
{
name = ogonek;
pos = (423,13);
},
{
name = top;
pos = (311,546);
}
);
layerId = "CDDB5E63-2DBC-4745-B175-3A13AC81D5EA";
shapes = (
{
closed = 1;
nodes = (
(105,246,l),
(572,246,l),
(574,265,o),
(574,279,o),
(574,301,cs),
(574,440,o),
(476,554,o),
(316,554,cs),
(159,554,o),
(48,447,o),
(48,273,c),
(48,100,o),
(161,-8,o),
(316,-8,cs),
(453,-8,o),
(541,70,o),
(566,173,c),
(492,173,l),
(472,100,o),
(409,51,o),
(316,51,cs),
(211,51,o),
(119,122,o),
(119,258,cs),
(119,286,ls),
(119,424,o),
(210,494,o),
(313,494,cs),
(414,494,o),
(506,430,o),
(503,303,c),
(105,303,l)
);
}
);
width = 622;
}
);
unicode = 101;
userData = {
com.schriftgestaltung.Glyphs.ColorIndex = 4;
com.typemytype.robofont.layerData = {
b = {
anchors = (
{
name = top;
x = 314;
y = 540;
},
{
name = ogonek;
x = 442;
y = 45;
},
{
name = bottom;
x = 314;
y = 0;
}
);
components = (
);
contours = (
{
points = (
{
segmentType = line;
smooth = 0;
x = 54;
y = 261;
},
{
segmentType = line;
smooth = 0;
x = 564;
y = 261;
},
{
smooth = 0;
x = 567;
y = 280;
},
{
smooth = 0;
x = 568;
y = 298;
},
{
segmentType = curve;
smooth = 1;
x = 568;
y = 315;
},
{
smooth = 0;
x = 568;
y = 434;
},
{
smooth = 0;
x = 482;
y = 552;
},
{
segmentType = curve;
smooth = 1;
x = 330;
y = 552;
},
{
smooth = 0;
x = 164;
y = 552;
},
{
smooth = 0;
x = 60;
y = 438;
},
{
segmentType = curve;
smooth = 1;
x = 60;
y = 270;
},
{
smooth = 0;
x = 60;
y = 103;
},
{
smooth = 0;
x = 164;
y = -12;
},
{
segmentType = curve;
smooth = 1;
x = 316;
y = -12;
},
{
smooth = 0;
x = 451;
y = -12;
},
{
smooth = 0;
x = 516;
y = 66;
},
{
segmentType = curve;
smooth = 0;
x = 548;
y = 137;
},
{
segmentType = line;
smooth = 0;
x = 528;
y = 137;
},
{
smooth = 0;
x = 505;
y = 60;
},
{
smooth = 0;
x = 424;
y = -1;
},
{
segmentType = curve;
smooth = 1;
x = 316;
y = -1;
},
{
smooth = 0;
x = 186;
y = -1;
},
{
smooth = 0;
x = 81;
y = 93;
},
{
segmentType = curve;
smooth = 1;
x = 81;
y = 269;
},
{
segmentType = line;
smooth = 1;
x = 81;
y = 274;
},
{
smooth = 0;
x = 81;
y = 447;
},
{
smooth = 0;
x = 183;
y = 541;
},
{
segmentType = curve;
smooth = 1;
x = 316;
y = 541;
},
{
smooth = 0;
x = 448;
y = 541;
},
{
smooth = 0;
x = 551;
y = 448;
},
{
segmentType = curve;
smooth = 0;
x = 549;
y = 290;
},
{
segmentType = line;
smooth = 0;
x = 53;
y = 290;
}
);
}
);
lib = {
};
name = e;
unicodes = (
);
width = 628;
};
};
com.typesupply.AccentFactory.yCoordinates = {
bottom = {
name = origin;
type = glyphMetric;
};
top = {
name = xHeight;
type = fontInfo;
};
};
};
},
{
glyphname = f;
lastChange = "2024-07-30 10:39:23 +0000";
layers = (
{
layerId = "CDDB5E63-2DBC-4745-B175-3A13AC81D5EA";
shapes = (
{
closed = 1;
nodes = (
(98,0,l),
(168,0,l),
(168,584,ls),
(168,663,o),
(198,697,o),
(291,697,c),
(291,757,l),
(153,757,o),
(98,701,o),
(98,584,cs)
);
},
{
closed = 1;
nodes = (
(22,487,l),
(295,487,l),
(295,546,l),
(22,546,l)
);
}
);
width = 325;
}
);
unicode = 102;
userData = {
com.schriftgestaltung.Glyphs.ColorIndex = 4;
com.typemytype.robofont.layerData = {
b = {
anchors = (
);
components = (
);
contours = (
{
points = (
{
segmentType = line;
smooth = 0;
x = 108;
y = 0;
},
{
segmentType = line;
smooth = 0;
x = 128;
y = 0;
},
{
segmentType = line;
smooth = 1;
x = 128;
y = 609;
},
{
smooth = 0;
x = 128;
y = 701;
},
{
smooth = 0;
x = 162;
y = 742;
},
{
segmentType = curve;
smooth = 0;
x = 275;
y = 742;
},
{
segmentType = line;
smooth = 0;
x = 275;
y = 753;
},
{
smooth = 0;
x = 158;
y = 753;
},
{
smooth = 0;
x = 108;
y = 711;
},
{
segmentType = curve;
smooth = 1;
x = 108;
y = 609;
}
);
}
);
lib = {
};
name = f;
unicodes = (
);
width = 318;
};
};
com.typesupply.AccentFactory.yCoordinates = {
bottom = {
name = origin;
type = glyphMetric;
};
top = {
name = ascender;
type = fontInfo;
};
};
};
},
{
glyphname = g;
lastChange = "2024-07-30 10:39:23 +0000";
layers = (
{
anchors = (
{
name = top;
pos = (339,546);
}
);
layerId = "CDDB5E63-2DBC-4745-B175-3A13AC81D5EA";
shapes = (
{
closed = 1;
nodes = (
(159,554,o),
(48,445,o),
(48,274,c),
(48,103,o),
(159,-8,o),
(309,-8,c),
(417,-8,o),
(493,51,o),
(525,121,c),
(525,-14,l),
(525,-138,o),
(444,-207,o),
(340,-207,cs),
(240,-207,o),
(171,-156,o),
(148,-82,c),
(79,-82,l),
(101,-196,o),
(199,-268,o),
(340,-268,cs),
(490,-268,o),
(595,-167,o),
(595,-14,c),
(595,546,l),
(525,546,l),
(525,427,l),
(494,496,o),
(417,554,o),
(309,554,c)
);
},
{
closed = 1;
nodes = (
(525,273,c),
(525,137,o),
(434,53,o),
(322,53,c),
(207,53,o),
(119,136,o),
(119,274,c),
(119,413,o),
(207,493,o),
(322,493,c),
(434,493,o),
(525,409,o)
);
}
);
width = 675;
}
);
unicode = 103;
userData = {
com.schriftgestaltung.Glyphs.ColorIndex = 4;
com.typesupply.AccentFactory.yCoordinates = {
top = {
name = xHeight;
type = fontInfo;
};
};
};
},
{
glyphname = gcommaaccent;
lastChange = "2024-07-30 10:39:23 +0000";
layers = (
{
layerId = "CDDB5E63-2DBC-4745-B175-3A13AC81D5EA";
shapes = (
{
closed = 1;
nodes = (
(373,595,l),
(373,672,l),
(327,672,l),
(327,696,ls),
(327,730,o),
(340,747,o),
(374,747,c),
(374,783,l),
(316,783,o),
(283,754,o),
(283,680,cs),
(283,656,o),
(286,628,o),
(292,595,c)
);
},
{
alignment = -1;
ref = g;
}
);
width = 675;
}
);
unicode = 291;
userData = {
com.schriftgestaltung.Glyphs.ColorIndex = 8;
com.typesupply.AccentFactory.compileType = manual;
};
},
{
glyphname = h;
lastChange = "2024-07-30 10:39:23 +0000";
layers = (
{
layerId = "CDDB5E63-2DBC-4745-B175-3A13AC81D5EA";
shapes = (
{
closed = 1;
nodes = (
(80,0,l),
(150,0,l),
(150,740,l),
(80,740,l)
);
},
{
closed = 1;
nodes = (
(489,0,l),
(558,0,l),
(558,320,ls),
(558,480,o),
(461,556,o),
(340,556,c),
(234,556,o),
(146,498,o),
(130,389,c),
(150,298,l),
(150,431,o),
(221,495,o),
(323,495,c),
(423,495,o),
(489,433,o),
(489,312,cs)
);
}
);
width = 633;
}
);
unicode = 104;
userData = {
com.schriftgestaltung.Glyphs.ColorIndex = 4;
com.typesupply.AccentFactory.yCoordinates = {
bottom = {
name = origin;
type = glyphMetric;
};
top = {
name = ascender;
type = fontInfo;
};
};
};
},
{
glyphname = i;
lastChange = "2024-07-30 10:39:23 +0000";
layers = (
{
anchors = (
{
name = ogonek;
pos = (150,1);
}
);
layerId = "CDDB5E63-2DBC-4745-B175-3A13AC81D5EA";
shapes = (
{
closed = 1;
nodes = (
(80,0,l),
(150,0,l),
(150,546,l),
(80,546,l)
);
},
{
closed = 1;
nodes = (
(115,649,c),
(143,649,o),
(166,671,o),
(166,701,cs),
(166,731,o),
(143,752,o),
(115,752,c),
(87,752,o),
(64,731,o),
(64,701,cs),
(64,671,o),
(87,649,o)
);
}
);
width = 229;
}
);
unicode = 105;
userData = {
com.schriftgestaltung.Glyphs.ColorIndex = 4;
com.typemytype.robofont.guides = (
{
angle = 0;
isGlobal = 0;
magnetic = 5;
x = 82;
y = 540;
}
);
com.typesupply.AccentFactory.yCoordinates = {
bottom = {
name = origin;
type = glyphMetric;
};
};
};
},
{
glyphname = dotlessi;
lastChange = "2024-07-30 10:39:23 +0000";
layers = (
{
anchors = (
{
name = ogonek;
pos = (203,10);
},
{
name = top;
pos = (115,546);
}
);
layerId = "CDDB5E63-2DBC-4745-B175-3A13AC81D5EA";
shapes = (
{
closed = 1;
nodes = (
(80,0,l),
(150,0,l),
(150,546,l),
(80,546,l)
);
}
);
width = 229;
}
);
unicode = 305;
userData = {
com.schriftgestaltung.Glyphs.ColorIndex = 4;
com.typesupply.AccentFactory.yCoordinates = {
bottom = {
name = origin;
type = glyphMetric;
};
top = {
name = xHeight;
type = fontInfo;
};
};
};
},
{
glyphname = j;
lastChange = "2024-07-30 10:39:23 +0000";
layers = (
{
layerId = "CDDB5E63-2DBC-4745-B175-3A13AC81D5EA";
shapes = (
{
closed = 1;
nodes = (
(120,649,c),
(148,649,o),
(170,671,o),
(170,701,cs),
(170,731,o),
(148,752,o),
(120,752,c),
(92,752,o),
(69,731,o),
(69,701,cs),
(69,671,o),
(92,649,o)
);
},
{
closed = 1;
nodes = (
(84,546,l),
(84,-126,ls),
(84,-179,o),
(63,-198,o),
(11,-198,cs),
(-27,-198,l),
(-27,-258,l),
(22,-258,ls),
(110,-258,o),
(154,-217,o),
(154,-129,cs),
(154,546,l)
);
}
);
width = 234;
}
);
unicode = 106;
userData = {
com.schriftgestaltung.Glyphs.ColorIndex = 4;
com.typesupply.AccentFactory.yCoordinates = {
bottom = {
name = origin;
type = glyphMetric;
};
};
};
},
{
glyphname = k;
lastChange = "2024-07-30 10:39:23 +0000";
layers = (
{
anchors = (
{
name = bottom;
pos = (243,0);
}
);
layerId = "CDDB5E63-2DBC-4745-B175-3A13AC81D5EA";
shapes = (
{
closed = 1;
nodes = (
(80,0,l),
(150,0,l),
(150,740,l),
(80,740,l)
);
},
{
closed = 1;
nodes = (
(124,273,l),
(375,0,l),
(470,0,l),
(192,291,l),
(191,255,l),
(468,546,l),
(370,546,l)
);
}
);
width = 480;
}
);
unicode = 107;
userData = {
com.schriftgestaltung.Glyphs.ColorIndex = 4;
com.typemytype.robofont.guides = (
{
angle = 0;
isGlobal = 0;
magnetic = 5;
x = 86;
y = 740;
}
);
com.typesupply.AccentFactory.yCoordinates = {
bottom = {
name = origin;
type = glyphMetric;
};
top = {
name = ascender;
type = fontInfo;
};
};
};
},
{
glyphname = kcommaaccent;
lastChange = "2024-07-30 10:39:23 +0000";
layers = (
{
layerId = "CDDB5E63-2DBC-4745-B175-3A13AC81D5EA";
shapes = (
{
closed = 1;
nodes = (
(201,-52,l),
(201,-121,l),
(244,-121,l),
(244,-135,ls),
(244,-171,o),
(231,-191,o),
(198,-191,c),
(198,-226,l),
(254,-226,o),
(288,-197,o),
(288,-119,cs),
(288,-100,o),
(285,-76,o),
(280,-52,c)
);
},
{
alignment = -1;
ref = k;
}
);
width = 480;
}
);
unicode = 311;
userData = {
com.schriftgestaltung.Glyphs.ColorIndex = 8;
com.typesupply.AccentFactory.compileType = manual;
};
},
{
glyphname = l;
lastChange = "2024-07-30 10:39:23 +0000";
layers = (
{
anchors = (
{
name = bottom;
pos = (115,0);
},
{
name = commaaccent;
pos = (115,10);
},
{
name = top;
pos = (115,740);
},
{
name = topright;
pos = (205,546);
}
);
layerId = "CDDB5E63-2DBC-4745-B175-3A13AC81D5EA";
shapes = (
{
closed = 1;
nodes = (
(80,0,l),
(150,0,l),
(150,740,l),
(80,740,l)
);
}
);
width = 229;
}
);
unicode = 108;
userData = {
com.schriftgestaltung.Glyphs.ColorIndex = 4;
com.typesupply.AccentFactory.yCoordinates = {
bottom = {
name = origin;
type = glyphMetric;
};
top = {
name = ascender;
type = fontInfo;
};
};
};
},
{
glyphname = lcaron;
lastChange = "2024-07-30 10:39:23 +0000";
layers = (
{
layerId = "CDDB5E63-2DBC-4745-B175-3A13AC81D5EA";
shapes = (
{
closed = 1;
nodes = (
(218,740,l),
(218,664,l),
(264,664,l),
(264,639,ls),
(264,606,o),
(251,588,o),
(217,588,c),
(217,552,l),
(275,552,o),
(308,581,o),
(308,655,cs),
(308,679,o),
(306,707,o),
(299,740,c)
);
},
{
alignment = -1;
ref = l;
}
);
width = 316;
}
);
unicode = 318;
userData = {
com.schriftgestaltung.Glyphs.ColorIndex = 8;
com.typesupply.AccentFactory.compileType = manual;
};
},
{
glyphname = lcommaaccent;
lastChange = "2024-07-30 10:39:23 +0000";
layers = (
{
layerId = "CDDB5E63-2DBC-4745-B175-3A13AC81D5EA";
shapes = (
{
closed = 1;
nodes = (
(73,-52,l),
(73,-121,l),
(116,-121,l),
(116,-135,ls),
(116,-171,o),
(102,-191,o),
(69,-191,c),
(69,-226,l),
(126,-226,o),
(160,-197,o),
(160,-119,cs),
(160,-100,o),
(157,-76,o),
(152,-52,c)
);
},
{
alignment = -1;
ref = l;
}
);
width = 229;
}
);
unicode = 316;
userData = {
com.schriftgestaltung.Glyphs.ColorIndex = 8;
com.typesupply.AccentFactory.compileType = manual;
};
},
{
color = 4;
glyphname = ldot;
lastChange = "2024-07-30 10:39:23 +0000";
layers = (
{
layerId = "CDDB5E63-2DBC-4745-B175-3A13AC81D5EA";
shapes = (
{
closed = 1;
nodes = (
(150,0,l),
(150,740,l),
(80,740,l),
(80,0,l)
);
},
{
closed = 1;
nodes = (
(280,322,o),
(301,343,o),
(301,368,cs),
(301,393,o),
(280,414,o),
(255,414,cs),
(229,414,o),
(209,393,o),
(209,368,cs),
(209,343,o),
(229,322,o),
(255,322,cs)
);
}
);
width = 278;
}
);
unicode = 320;
userData = {
com.typesupply.AccentFactory.compileType = manual;
};
},
{
glyphname = lslash;
lastChange = "2024-07-30 10:39:23 +0000";
layers = (
{
layerId = "CDDB5E63-2DBC-4745-B175-3A13AC81D5EA";
shapes = (
{
closed = 1;
nodes = (
(9,343,l),
(230,439,l),
(230,494,l),
(9,398,l)
);
},
{
closed = 1;
nodes = (
(84,0,l),
(154,0,l),
(154,740,l),
(84,740,l)
);
}
);
width = 239;
}
);
unicode = 322;
userData = {
com.schriftgestaltung.Glyphs.ColorIndex = 4;
};
},
{
glyphname = m;
lastChange = "2024-07-30 10:39:23 +0000";
layers = (
{
layerId = "CDDB5E63-2DBC-4745-B175-3A13AC81D5EA";
shapes = (
{
closed = 1;
nodes = (
(80,0,l),
(150,0,l),
(150,546,l),
(80,546,l)
);
},
{
closed = 1;
nodes = (
(480,0,l),
(549,0,l),
(549,320,ls),
(549,480,o),
(452,556,o),
(331,556,cs),
(231,556,o),
(145,498,o),
(129,383,c),
(150,296,l),
(150,429,o),
(219,495,o),
(319,495,cs),
(416,495,o),
(480,433,o),
(480,312,cs)
);
},
{
closed = 1;
nodes = (
(878,0,l),
(947,0,l),
(947,320,ls),
(947,480,o),
(851,556,o),
(730,556,cs),
(631,556,o),
(541,498,o),
(523,383,c),
(549,296,l),
(549,429,o),
(619,495,o),
(718,495,cs),
(815,495,o),
(878,433,o),
(878,312,cs)
);
}
);
width = 1022;
}
);
unicode = 109;
userData = {
com.schriftgestaltung.Glyphs.ColorIndex = 4;
com.typemytype.robofont.layerData = {
b = {
anchors = (
);
components = (
);
contours = (
{
points = (
{
segmentType = line;
smooth = 0;
x = 85;
y = 0;
},
{
segmentType = line;
smooth = 0;
x = 105;
y = 0;
},
{
segmentType = line;
smooth = 0;
x = 105;
y = 540;
},
{
segmentType = line;
smooth = 0;
x = 85;
y = 540;
}
);
},
{
points = (
{
segmentType = line;
smooth = 0;
x = 485;
y = 0;
},
{
segmentType = line;
smooth = 0;
x = 504;
y = 0;
},
{
segmentType = line;
smooth = 1;
x = 504;
y = 325;
},
{
smooth = 0;
x = 504;
y = 485;
},
{
smooth = 0;
x = 399;
y = 552;
},
{
segmentType = curve;
smooth = 1;
x = 292;
y = 552;
},
{
smooth = 0;
x = 189;
y = 552;
},
{
smooth = 0;
x = 91;
y = 494;
},
{
segmentType = curve;
smooth = 0;
x = 72;
y = 345;
},
{
segmentType = line;
smooth = 0;
x = 105;
y = 317;
},
{
smooth = 0;
x = 105;
y = 465;
},
{
smooth = 0;
x = 181;
y = 536;
},
{
segmentType = curve;
smooth = 1;
x = 296;
y = 536;
},
{
smooth = 0;
x = 410;
y = 536;
},
{
smooth = 0;
x = 485;
y = 465;
},
{
segmentType = curve;
smooth = 1;
x = 485;
y = 317;
}
);
},
{
points = (
{
segmentType = line;
smooth = 0;
x = 884;
y = 0;
},
{
segmentType = line;
smooth = 0;
x = 903;
y = 0;
},
{
segmentType = line;
smooth = 1;
x = 903;
y = 325;
},
{
smooth = 0;
x = 903;
y = 485;
},
{
smooth = 0;
x = 796;
y = 552;
},
{
segmentType = curve;
smooth = 1;
x = 694;
y = 552;
},
{
smooth = 0;
x = 580;
y = 552;
},
{
smooth = 0;
x = 492;
y = 487;
},
{
segmentType = curve;
smooth = 0;
x = 468;
y = 357;
},
{
segmentType = line;
smooth = 0;
x = 504;
y = 317;
},
{
smooth = 0;
x = 504;
y = 465;
},
{
smooth = 0;
x = 580;
y = 536;
},
{
segmentType = curve;
smooth = 1;
x = 695;
y = 536;
},
{
smooth = 0;
x = 809;
y = 536;
},
{
smooth = 0;
x = 884;
y = 465;
},
{
segmentType = curve;
smooth = 1;
x = 884;
y = 317;
}
);
}
);
lib = {
};
name = m;
unicodes = (
);
width = 1003;
};
};
com.typesupply.AccentFactory.yCoordinates = {
bottom = {
name = origin;
type = glyphMetric;
};
top = {
name = xHeight;
type = fontInfo;
};
};
};
},
{
glyphname = n;
lastChange = "2024-07-30 10:39:23 +0000";
layers = (
{
anchors = (
{
name = bottom;
pos = (310,0);
},
{
name = top;
pos = (310,546);
}
);
layerId = "CDDB5E63-2DBC-4745-B175-3A13AC81D5EA";
shapes = (
{
closed = 1;
nodes = (
(80,0,l),
(150,0,l),
(150,546,l),
(80,546,l)
);
},
{
closed = 1;
nodes = (
(489,0,l),
(558,0,l),
(558,320,ls),
(558,480,o),
(460,556,o),
(336,556,c),
(233,556,o),
(146,498,o),
(130,389,c),
(150,298,l),
(150,431,o),
(221,495,o),
(323,495,c),
(423,495,o),
(489,433,o),
(489,312,cs)
);
}
);
width = 633;
}
);
unicode = 110;
userData = {
com.schriftgestaltung.Glyphs.ColorIndex = 4;
com.typesupply.AccentFactory.yCoordinates = {
bottom = {
name = origin;
type = glyphMetric;
};
top = {
name = xHeight;
type = fontInfo;
};
};
};
},
{
glyphname = ncommaaccent;
lastChange = "2024-07-30 10:39:23 +0000";
layers = (
{
layerId = "CDDB5E63-2DBC-4745-B175-3A13AC81D5EA";
shapes = (
{
closed = 1;
nodes = (
(278,-52,l),
(278,-121,l),
(321,-121,l),
(321,-135,ls),
(321,-171,o),
(308,-191,o),
(275,-191,c),
(275,-226,l),
(331,-226,o),
(365,-197,o),
(365,-119,cs),
(365,-100,o),
(362,-76,o),
(357,-52,c)
);
},
{
alignment = -1;
ref = n;
}
);
width = 633;
}
);
unicode = 326;
userData = {
com.schriftgestaltung.Glyphs.ColorIndex = 8;
com.typesupply.AccentFactory.compileType = manual;
};
},
{
glyphname = o;
lastChange = "2024-07-30 10:39:23 +0000";
layers = (
{
anchors = (
{
name = top;
pos = (323,551);
}
);
layerId = "CDDB5E63-2DBC-4745-B175-3A13AC81D5EA";
shapes = (
{
closed = 1;
nodes = (
(473,-8,o),
(594,100,o),
(594,273,c),
(594,447,o),
(475,554,o),
(321,554,c),
(168,554,o),
(48,447,o),
(48,273,c),
(48,100,o),
(165,-8,o),
(319,-8,c)
);
},
{
closed = 1;
nodes = (
(215,53,o),
(119,123,o),
(119,273,c),
(119,423,o),
(216,493,o),
(320,493,c),
(424,493,o),
(522,423,o),
(522,273,c),
(522,123,o),
(422,53,o),
(319,53,c)
);
}
);
width = 642;
}
);
unicode = 111;
userData = {
com.schriftgestaltung.Glyphs.ColorIndex = 4;
com.typesupply.AccentFactory.yCoordinates = {
bottom = {
name = origin;
type = glyphMetric;
};
top = {
name = xHeight;
type = fontInfo;
};
};
};
},
{
glyphname = oslash;
lastChange = "2024-07-30 10:39:23 +0000";
layers = (
{
layerId = "CDDB5E63-2DBC-4745-B175-3A13AC81D5EA";
shapes = (
{
closed = 1;
nodes = (
(47,0,l),
(100,0,l),
(596,546,l),
(544,546,l)
);
},
{
alignment = -1;
ref = o;
}
);
width = 642;
}
);
unicode = 248;
userData = {
com.schriftgestaltung.Glyphs.ColorIndex = 4;
};
},
{
glyphname = oe;
lastChange = "2024-07-30 10:39:23 +0000";
layers = (
{
layerId = "CDDB5E63-2DBC-4745-B175-3A13AC81D5EA";
shapes = (
{
closed = 1;
nodes = (
(522,273,c),
(522,123,o),
(422,51,o),
(319,51,c),
(215,51,o),
(119,123,o),
(119,273,c),
(119,423,o),
(216,494,o),
(320,494,c),
(424,494,o),
(522,423,o)
);
},
{
closed = 1;
nodes = (
(48,273,c),
(48,100,o),
(164,-8,o),
(319,-8,c),
(426,-8,o),
(515,47,o),
(556,144,c),
(595,47,o),
(680,-8,o),
(787,-8,cs),
(924,-8,o),
(1013,70,o),
(1038,173,c),
(964,173,l),
(944,100,o),
(881,51,o),
(787,51,cs),
(682,51,o),
(594,122,o),
(594,258,cs),
(594,286,ls),
(594,424,o),
(684,494,o),
(787,494,cs),
(888,494,o),
(980,429,o),
(977,298,c),
(567,298,l),
(567,248,l),
(1044,248,l),
(1047,267,o),
(1048,281,o),
(1048,302,cs),
(1048,440,o),
(951,554,o),
(790,554,cs),
(681,554,o),
(595,499,o),
(557,403,c),
(516,499,o),
(428,554,o),
(321,554,c),
(168,554,o),
(48,447,o)
);
}
);
width = 1096;
}
);
unicode = 339;
userData = {
com.schriftgestaltung.Glyphs.ColorIndex = 4;
com.typemytype.robofont.layerData = {
b = {
anchors = (
);
components = (
);
contours = (
{
points = (
{
segmentType = curve;
smooth = 1;
x = 569;
y = 270;
},
{
smooth = 0;
x = 569;
y = 98;
},
{
smooth = 0;
x = 444;
y = -1;
},
{
segmentType = curve;
smooth = 1;
x = 312;
y = -1;
},
{
smooth = 0;
x = 179;
y = -1;
},
{
smooth = 0;
x = 84;
y = 98;
},
{
segmentType = curve;
smooth = 1;
x = 84;
y = 270;
},
{
smooth = 0;
x = 84;
y = 444;
},
{
smooth = 0;
x = 191;
y = 541;
},
{
segmentType = curve;
smooth = 1;
x = 322;
y = 541;
},
{
smooth = 0;
x = 455;
y = 541;
},
{
smooth = 0;
x = 569;
y = 444;
}
);
},
{
points = (
{
segmentType = curve;
smooth = 1;
x = 64;
y = 270;
},
{
smooth = 0;
x = 64;
y = 103;
},
{
smooth = 0;
x = 162;
y = -12;
},
{
segmentType = curve;
smooth = 1;
x = 312;
y = -12;
},
{
smooth = 0;
x = 430;
y = -12;
},
{
smooth = 0;
x = 531;
y = 48;
},
{
segmentType = curve;
smooth = 0;
x = 578;
y = 146;
},
{
smooth = 0;
x = 620;
y = 48;
},
{
smooth = 0;
x = 709;
y = -12;
},
{
segmentType = curve;
smooth = 1;
x = 826;
y = -12;
},
{
smooth = 0;
x = 962;
y = -12;
},
{
smooth = 0;
x = 1026;
y = 66;
},
{
segmentType = curve;
smooth = 0;
x = 1059;
y = 137;
},
{
segmentType = line;
smooth = 0;
x = 1039;
y = 137;
},
{
smooth = 0;
x = 1015;
y = 60;
},
{
smooth = 0;
x = 934;
y = -1;
},
{
segmentType = curve;
smooth = 1;
x = 826;
y = -1;
},
{
smooth = 0;
x = 697;
y = -1;
},
{
smooth = 0;
x = 592;
y = 93;
},
{
segmentType = curve;
smooth = 1;
x = 592;
y = 269;
},
{
segmentType = line;
smooth = 1;
x = 592;
y = 274;
},
{
smooth = 0;
x = 592;
y = 447;
},
{
smooth = 0;
x = 694;
y = 541;
},
{
segmentType = curve;
smooth = 1;
x = 827;
y = 541;
},
{
smooth = 0;
x = 958;
y = 541;
},
{
smooth = 0;
x = 1062;
y = 448;
},
{
segmentType = curve;
smooth = 0;
x = 1059;
y = 290;
},
{
segmentType = line;
smooth = 0;
x = 570;
y = 290;
},
{
segmentType = line;
smooth = 0;
x = 571;
y = 261;
},
{
segmentType = line;
smooth = 0;
x = 1074;
y = 261;
},
{
smooth = 0;
x = 1077;
y = 280;
},
{
smooth = 0;
x = 1078;
y = 298;
},
{
segmentType = curve;
smooth = 1;
x = 1078;
y = 315;
},
{
smooth = 0;
x = 1078;
y = 434;
},
{
smooth = 0;
x = 993;
y = 552;
},
{
segmentType = curve;
smooth = 1;
x = 840;
y = 552;
},
{
smooth = 0;
x = 715;
y = 552;
},
{
smooth = 0;
x = 623;
y = 495;
},
{
segmentType = curve;
smooth = 0;
x = 582;
y = 400;
},
{
smooth = 0;
x = 537;
y = 495;
},
{
smooth = 0;
x = 442;
y = 552;
},
{
segmentType = curve;
smooth = 1;
x = 328;
y = 552;
},
{
smooth = 0;
x = 177;
y = 552;
},
{
smooth = 0;
x = 64;
y = 438;
}
);
}
);
lib = {
};
name = oe;
unicodes = (
);
width = 1135;
};
};
com.typesupply.AccentFactory.yCoordinates = {
bottom = {
name = origin;
type = glyphMetric;
};
top = {
name = xHeight;
type = fontInfo;
};
};
};
},
{
glyphname = p;
lastChange = "2024-07-30 10:39:23 +0000";
layers = (
{
layerId = "CDDB5E63-2DBC-4745-B175-3A13AC81D5EA";
shapes = (
{
closed = 1;
nodes = (
(149,426,c),
(149,546,l),
(80,546,l),
(80,-258,l),
(149,-258,l),
(149,120,l),
(181,52,o),
(257,-8,o),
(366,-8,c),
(515,-8,o),
(626,103,o),
(626,274,c),
(626,445,o),
(515,554,o),
(366,554,c),
(257,554,o),
(181,495,o)
);
},
{
closed = 1;
nodes = (
(555,274,c),
(555,136,o),
(467,53,o),
(352,53,c),
(241,53,o),
(149,137,o),
(149,273,c),
(149,409,o),
(241,493,o),
(352,493,c),
(467,493,o),
(555,413,o)
);
}
);
width = 675;
}
);
unicode = 112;
userData = {
com.schriftgestaltung.Glyphs.ColorIndex = 4;
com.typemytype.robofont.guides = (
{
angle = 0;
isGlobal = 0;
magnetic = 5;
x = -74;
y = -254;
}
);
com.typesupply.AccentFactory.yCoordinates = {
top = {
name = xHeight;
type = fontInfo;
};
};
};
},
{
glyphname = thorn;
lastChange = "2024-07-30 10:39:23 +0000";
layers = (
{
layerId = "CDDB5E63-2DBC-4745-B175-3A13AC81D5EA";
shapes = (
{
closed = 1;
nodes = (
(149,412,c),
(149,740,l),
(80,740,l),
(80,-258,l),
(149,-258,l),
(149,136,l),
(181,53,o),
(257,-8,o),
(366,-8,c),
(515,-8,o),
(626,103,o),
(626,274,c),
(626,445,o),
(515,554,o),
(366,554,c),
(257,554,o),
(181,494,o)
);
},
{
closed = 1;
nodes = (
(555,274,c),
(555,136,o),
(467,53,o),
(352,53,c),
(241,53,o),
(149,137,o),
(149,273,c),
(149,409,o),
(241,493,o),
(352,493,c),
(467,493,o),
(555,413,o)
);
}
);
width = 675;
}
);
unicode = 254;
userData = {
com.schriftgestaltung.Glyphs.ColorIndex = 4;
};
},
{
glyphname = q;
lastChange = "2024-07-30 10:39:23 +0000";
layers = (
{
layerId = "CDDB5E63-2DBC-4745-B175-3A13AC81D5EA";
shapes = (
{
closed = 1;
nodes = (
(48,274,c),
(48,103,o),
(159,-8,o),
(308,-8,c),
(417,-8,o),
(495,52,o),
(525,120,c),
(525,-258,l),
(595,-258,l),
(595,546,l),
(525,546,l),
(525,426,l),
(495,495,o),
(418,554,o),
(310,554,c),
(159,554,o),
(48,445,o)
);
},
{
closed = 1;
nodes = (
(525,273,c),
(525,137,o),
(434,53,o),
(322,53,c),
(207,53,o),
(119,136,o),
(119,274,c),
(119,413,o),
(207,493,o),
(322,493,c),
(434,493,o),
(525,409,o)
);
}
);
width = 675;
}
);
unicode = 113;
userData = {
com.schriftgestaltung.Glyphs.ColorIndex = 4;
com.typesupply.AccentFactory.yCoordinates = {
top = {
name = xHeight;
type = fontInfo;
};
};
};
},
{
glyphname = r;
lastChange = "2024-07-30 10:39:23 +0000";
layers = (
{
anchors = (
{
name = bottom;
pos = (117,0);
},
{
name = top;
pos = (222,546);
}
);
layerId = "CDDB5E63-2DBC-4745-B175-3A13AC81D5EA";
shapes = (
{
closed = 1;
nodes = (
(150,305,l),
(150,442,o),
(227,483,o),
(318,483,cs),
(337,483,l),
(337,556,l),
(197,556,o),
(128,468,o),
(128,335,c)
);
},
{
closed = 1;
nodes = (
(80,0,l),
(150,0,l),
(150,546,l),
(80,546,l)
);
}
);
width = 362;
}
);
unicode = 114;
userData = {
com.schriftgestaltung.Glyphs.ColorIndex = 4;
com.typesupply.AccentFactory.yCoordinates = {
bottom = {
name = origin;
type = glyphMetric;
};
top = {
name = xHeight;
type = fontInfo;
};
};
};
},
{
glyphname = rcommaaccent;
lastChange = "2024-07-30 10:39:23 +0000";
layers = (
{
layerId = "CDDB5E63-2DBC-4745-B175-3A13AC81D5EA";
shapes = (
{
closed = 1;
nodes = (
(72,-52,l),
(72,-121,l),
(115,-121,l),
(115,-135,ls),
(115,-171,o),
(102,-191,o),
(69,-191,c),
(69,-226,l),
(126,-226,o),
(159,-197,o),
(159,-119,cs),
(159,-100,o),
(157,-76,o),
(151,-52,c)
);
},
{
alignment = -1;
ref = r;
}
);
width = 362;
}
);
unicode = 343;
userData = {
com.schriftgestaltung.Glyphs.ColorIndex = 8;
com.typesupply.AccentFactory.compileType = manual;
};
},
{
glyphname = s;
lastChange = "2024-07-30 10:39:23 +0000";
layers = (
{
anchors = (
{
name = bottom;
pos = (256,0);
},
{
name = top;
pos = (256,551);
}
);
layerId = "CDDB5E63-2DBC-4745-B175-3A13AC81D5EA";
shapes = (
{
closed = 1;
nodes = (
(381,-8,o),
(458,57,o),
(458,145,c),
(455,338,o),
(132,259,o),
(132,407,c),
(132,455,o),
(178,494,o),
(251,494,cs),
(334,494,o),
(379,448,o),
(383,387,c),
(453,387,l),
(447,492,o),
(370,554,o),
(253,554,cs),
(138,554,o),
(61,487,o),
(61,406,c),
(61,201,o),
(389,280,o),
(389,145,c),
(389,93,o),
(345,51,o),
(267,51,cs),
(178,51,o),
(126,94,o),
(120,154,c),
(48,154,l),
(57,54,o),
(144,-8,o),
(268,-8,cs)
);
}
);
width = 510;
}
);
unicode = 115;
userData = {
com.schriftgestaltung.Glyphs.ColorIndex = 4;
com.typesupply.AccentFactory.yCoordinates = {
bottom = {
name = origin;
type = glyphMetric;
};
top = {
name = xHeight;
type = fontInfo;
};
};
};
},
{
glyphname = scommaaccent;
lastChange = "2024-07-30 10:39:23 +0000";
layers = (
{
layerId = "CDDB5E63-2DBC-4745-B175-3A13AC81D5EA";
shapes = (
{
closed = 1;
nodes = (
(224,-52,l),
(224,-121,l),
(267,-121,l),
(267,-135,ls),
(267,-171,o),
(254,-191,o),
(221,-191,c),
(221,-226,l),
(277,-226,o),
(311,-197,o),
(311,-119,cs),
(311,-100,o),
(308,-76,o),
(303,-52,c)
);
},
{
alignment = -1;
ref = s;
}
);
width = 510;
}
);
unicode = 537;
userData = {
com.schriftgestaltung.Glyphs.ColorIndex = 8;
com.typesupply.AccentFactory.compileType = manual;
};
},
{
glyphname = germandbls;
lastChange = "2024-07-30 10:39:23 +0000";
layers = (
{
layerId = "CDDB5E63-2DBC-4745-B175-3A13AC81D5EA";
shapes = (
{
closed = 1;
nodes = (
(66,0,l),
(136,0,l),
(136,552,ls),
(136,649,o),
(184,709,o),
(288,709,cs),
(374,709,o),
(427,668,o),
(427,604,cs),
(427,509,o),
(280,479,o),
(280,376,cs),
(280,316,o),
(321,284,o),
(426,249,cs),
(503,224,o),
(532,195,o),
(532,142,cs),
(532,83,o),
(492,47,o),
(424,47,cs),
(349,47,o),
(303,95,o),
(297,167,c),
(226,167,l),
(236,57,o),
(313,-10,o),
(424,-10,cs),
(537,-10,o),
(604,54,o),
(604,147,cs),
(604,222,o),
(564,271,o),
(468,302,cs),
(375,332,o),
(351,352,o),
(351,385,cs),
(351,453,o),
(497,486,o),
(497,609,cs),
(497,695,o),
(424,768,o),
(289,768,cs),
(140,768,o),
(66,679,o),
(66,560,cs)
);
}
);
width = 665;
}
);
unicode = 223;
userData = {
com.schriftgestaltung.Glyphs.ColorIndex = 4;
};
},
{
glyphname = t;
lastChange = "2024-07-30 10:39:23 +0000";
layers = (
{
anchors = (
{
name = bottom;
pos = (173,0);
},
{
name = topright;
pos = (174,780);
}
);
layerId = "CDDB5E63-2DBC-4745-B175-3A13AC81D5EA";
shapes = (
{
closed = 1;
nodes = (
(100,148,ls),
(100,39,o),
(151,0,o),
(246,0,cs),
(321,0,l),
(321,60,l),
(257,60,ls),
(194,60,o),
(171,81,o),
(171,148,cs),
(171,683,l),
(100,683,l)
);
},
{
closed = 1;
nodes = (
(321,487,l),
(321,546,l),
(24,546,l),
(24,487,l)
);
}
);
width = 356;
}
);
unicode = 116;
userData = {
com.schriftgestaltung.Glyphs.ColorIndex = 4;
com.typesupply.AccentFactory.yCoordinates = {
bottom = {
name = origin;
type = glyphMetric;
};
};
};
},
{
glyphname = tcaron;
lastChange = "2024-07-30 10:39:23 +0000";
layers = (
{
layerId = "CDDB5E63-2DBC-4745-B175-3A13AC81D5EA";
shapes = (
{
closed = 1;
nodes = (
(244,763,l),
(244,687,l),
(290,687,l),
(290,665,ls),
(290,640,o),
(277,627,o),
(243,627,c),
(243,591,l),
(301,591,o),
(334,616,o),
(334,683,cs),
(334,708,o),
(331,730,o),
(325,763,c)
);
},
{
alignment = -1;
ref = t;
}
);
width = 359;
}
);
unicode = 357;
userData = {
com.schriftgestaltung.Glyphs.ColorIndex = 5;
com.typesupply.AccentFactory.compileType = manual;
};
},
{
glyphname = tcedilla;
lastChange = "2024-07-30 10:39:23 +0000";
layers = (
{
layerId = "CDDB5E63-2DBC-4745-B175-3A13AC81D5EA";
shapes = (
{
closed = 1;
nodes = (
(100,148,ls),
(100,39,o),
(151,0,o),
(246,0,cs),
(321,0,l),
(321,60,l),
(257,60,ls),
(194,60,o),
(171,81,o),
(171,148,cs),
(171,683,l),
(100,683,l)
);
},
{
closed = 1;
nodes = (
(321,487,l),
(321,546,l),
(24,546,l),
(24,487,l)
);
},
{
closed = 1;
nodes = (
(226,35,l),
(176,35,l),
(176,-112,l),
(223,-112,ls),
(273,-112,o),
(294,-129,o),
(294,-160,cs),
(294,-194,o),
(273,-211,o),
(223,-211,cs),
(137,-211,l),
(137,-258,l),
(237,-258,ls),
(307,-258,o),
(354,-220,o),
(354,-160,cs),
(354,-98,o),
(304,-65,o),
(226,-67,c)
);
}
);
width = 356;
}
);
unicode = 355;
userData = {
com.schriftgestaltung.Glyphs.ColorIndex = 8;
};
},
{
glyphname = tcommaaccent;
lastChange = "2024-07-30 10:39:23 +0000";
layers = (
{
layerId = "CDDB5E63-2DBC-4745-B175-3A13AC81D5EA";
shapes = (
{
closed = 1;
nodes = (
(153,-52,l),
(153,-121,l),
(196,-121,l),
(196,-135,ls),
(196,-171,o),
(183,-191,o),
(150,-191,c),
(150,-226,l),
(206,-226,o),
(240,-197,o),
(240,-119,cs),
(240,-100,o),
(238,-76,o),
(232,-52,c)
);
},
{
alignment = -1;
ref = t;
}
);
width = 356;
}
);
unicode = 539;
userData = {
com.schriftgestaltung.Glyphs.ColorIndex = 8;
com.typesupply.AccentFactory.compileType = manual;
};
},
{
glyphname = u;
lastChange = "2024-07-30 10:39:23 +0000";
layers = (
{
anchors = (
{
name = ogonek;
pos = (553,-1);
},
{
name = top;
pos = (317,546);
}
);
layerId = "CDDB5E63-2DBC-4745-B175-3A13AC81D5EA";
shapes = (
{
closed = 1;
nodes = (
(553,546,l),
(483,546,l),
(483,0,l),
(553,0,l)
);
},
{
closed = 1;
nodes = (
(144,546,l),
(75,546,l),
(75,227,ls),
(75,67,o),
(173,-9,o),
(297,-9,c),
(399,-9,o),
(487,49,o),
(501,158,c),
(483,249,l),
(483,116,o),
(412,52,o),
(310,52,c),
(210,52,o),
(144,114,o),
(144,235,cs)
);
}
);
width = 633;
}
);
unicode = 117;
userData = {
com.schriftgestaltung.Glyphs.ColorIndex = 4;
com.typesupply.AccentFactory.yCoordinates = {
bottom = {
name = origin;
type = glyphMetric;
};
top = {
name = xHeight;
type = fontInfo;
};
};
};
},
{
glyphname = v;
lastChange = "2024-07-30 10:39:23 +0000";
layers = (
{
layerId = "CDDB5E63-2DBC-4745-B175-3A13AC81D5EA";
shapes = (
{
closed = 1;
nodes = (
(15,546,l),
(234,0,l),
(313,0,l),
(532,546,l),
(458,546,l),
(274,68,l),
(90,546,l)
);
}
);
width = 547;
}
);
unicode = 118;
userData = {
com.schriftgestaltung.Glyphs.ColorIndex = 4;
com.typesupply.AccentFactory.yCoordinates = {
bottom = {
name = origin;
type = glyphMetric;
};
top = {
name = xHeight;
type = fontInfo;
};
};
};
},
{
glyphname = w;
lastChange = "2024-07-30 10:39:23 +0000";
layers = (
{
layerId = "CDDB5E63-2DBC-4745-B175-3A13AC81D5EA";
shapes = (
{
closed = 1;
nodes = (
(186,0,l),
(257,0,l),
(424,507,l),
(391,508,l),
(559,0,l),
(629,0,l),
(800,546,l),
(731,546,l),
(583,25,l),
(610,25,l),
(445,546,l),
(375,546,l),
(207,25,l),
(235,25,l),
(86,546,l),
(15,546,l)
);
}
);
width = 815;
}
);
unicode = 119;
userData = {
com.schriftgestaltung.Glyphs.ColorIndex = 4;
com.typemytype.robofont.layerData = {
b = {
anchors = (
);
components = (
);
contours = (
{
points = (
{
segmentType = line;
smooth = 0;
x = 211;
y = 0;
},
{
segmentType = line;
smooth = 0;
x = 225;
y = 0;
},
{
segmentType = line;
smooth = 0;
x = 405;
y = 569;
},
{
segmentType = line;
smooth = 0;
x = 373;
y = 569;
},
{
segmentType = line;
smooth = 0;
x = 555;
y = 0;
},
{
segmentType = line;
smooth = 0;
x = 569;
y = 0;
},
{
segmentType = line;
smooth = 0;
x = 747;
y = 540;
},
{
segmentType = line;
smooth = 0;
x = 716;
y = 540;
},
{
segmentType = line;
smooth = 0;
x = 552;
y = 32;
},
{
segmentType = line;
smooth = 0;
x = 560;
y = 32;
},
{
segmentType = line;
smooth = 0;
x = 401;
y = 540;
},
{
segmentType = line;
smooth = 0;
x = 386;
y = 540;
},
{
segmentType = line;
smooth = 0;
x = 214;
y = 32;
},
{
segmentType = line;
smooth = 0;
x = 222;
y = 32;
},
{
segmentType = line;
smooth = 0;
x = 56;
y = 540;
},
{
segmentType = line;
smooth = 0;
x = 30;
y = 540;
}
);
}
);
lib = {
};
name = w;
unicodes = (
);
width = 803;
};
};
com.typesupply.AccentFactory.yCoordinates = {
bottom = {
name = origin;
type = glyphMetric;
};
top = {
name = xHeight;
type = fontInfo;
};
};
};
},
{
glyphname = x;
lastChange = "2024-07-30 10:39:23 +0000";
layers = (
{
layerId = "CDDB5E63-2DBC-4745-B175-3A13AC81D5EA";
shapes = (
{
closed = 1;
nodes = (
(366,0,l),
(445,0,l),
(96,546,l),
(17,546,l)
);
},
{
closed = 1;
nodes = (
(208,299,l),
(15,0,l),
(89,0,l),
(239,242,l)
);
},
{
closed = 1;
nodes = (
(250,247,l),
(443,546,l),
(370,546,l),
(220,305,l)
);
}
);
width = 460;
}
);
unicode = 120;
userData = {
com.schriftgestaltung.Glyphs.ColorIndex = 4;
com.typesupply.AccentFactory.yCoordinates = {
bottom = {
name = origin;
type = glyphMetric;
};
top = {
name = xHeight;
type = fontInfo;
};
};
};
},
{
glyphname = y;
lastChange = "2024-07-30 10:39:23 +0000";
layers = (
{
anchors = (
{
name = top;
pos = (273,546);
}
);
layerId = "CDDB5E63-2DBC-4745-B175-3A13AC81D5EA";
shapes = (
{
closed = 1;
nodes = (
(278,80,l),
(92,546,l),
(15,546,l),
(239,3,l),
(133,-257,l),
(206,-257,l),
(530,546,l),
(458,546,l)
);
}
);
width = 545;
}
);
unicode = 121;
userData = {
com.schriftgestaltung.Glyphs.ColorIndex = 4;
com.typesupply.AccentFactory.yCoordinates = {
top = {
name = xHeight;
type = fontInfo;
};
};
};
},
{
glyphname = z;
lastChange = "2024-07-30 10:39:23 +0000";
layers = (
{
anchors = (
{
name = top;
pos = (221,546);
}
);
layerId = "CDDB5E63-2DBC-4745-B175-3A13AC81D5EA";
shapes = (
{
closed = 1;
nodes = (
(398,546,l),
(42,546,l),
(42,488,l),
(318,488,l),
(37,58,l),
(37,0,l),
(403,0,l),
(403,58,l),
(117,58,l),
(398,488,l)
);
}
);
width = 441;
}
);
unicode = 122;
userData = {
com.schriftgestaltung.Glyphs.ColorIndex = 4;
com.typesupply.AccentFactory.yCoordinates = {
bottom = {
name = origin;
type = glyphMetric;
};
top = {
name = xHeight;
type = fontInfo;
};
};
};
},
{
glyphname = fi;
lastChange = "2024-07-30 10:39:23 +0000";
layers = (
{
layerId = "CDDB5E63-2DBC-4745-B175-3A13AC81D5EA";
shapes = (
{
closed = 1;
nodes = (
(98,0,l),
(168,0,l),
(168,584,ls),
(168,663,o),
(198,697,o),
(291,697,c),
(291,757,l),
(153,757,o),
(98,701,o),
(98,584,cs)
);
},
{
closed = 1;
nodes = (
(439,649,c),
(467,649,o),
(490,671,o),
(490,701,cs),
(490,731,o),
(467,752,o),
(439,752,c),
(411,752,o),
(388,731,o),
(388,701,cs),
(388,671,o),
(411,649,o)
);
},
{
closed = 1;
nodes = (
(23,546,l),
(23,487,l),
(403,487,l),
(403,0,l),
(473,0,l),
(473,546,l)
);
}
);
width = 548;
}
);
unicode = 64257;
userData = {
com.schriftgestaltung.Glyphs.ColorIndex = 4;
};
},
{
glyphname = ordfeminine;
lastChange = "2024-07-30 10:39:23 +0000";
layers = (
{
layerId = "CDDB5E63-2DBC-4745-B175-3A13AC81D5EA";
shapes = (
{
closed = 1;
nodes = (
(35,423,o),
(105,347,o),
(202,347,cs),
(270,347,o),
(318,380,o),
(337,426,c),
(337,353,l),
(394,353,l),
(394,703,l),
(337,703,l),
(337,629,l),
(317,675,o),
(270,709,o),
(200,709,cs),
(105,709,o),
(35,636,o),
(35,529,c)
);
},
{
closed = 1;
nodes = (
(94,614,o),
(148,664,o),
(214,664,cs),
(283,664,o),
(337,613,o),
(337,528,c),
(337,443,o),
(283,392,o),
(214,392,cs),
(148,392,o),
(94,443,o),
(94,529,c)
);
}
);
width = 445;
}
);
unicode = 170;
userData = {
com.schriftgestaltung.Glyphs.ColorIndex = 4;
};
},
{
glyphname = ordmasculine;
lastChange = "2024-07-30 10:39:23 +0000";
layers = (
{
layerId = "CDDB5E63-2DBC-4745-B175-3A13AC81D5EA";
shapes = (
{
closed = 1;
nodes = (
(35,527,c),
(35,418,o),
(111,345,o),
(214,345,c),
(316,345,o),
(395,418,o),
(395,527,c),
(395,637,o),
(318,709,o),
(215,709,c),
(113,709,o),
(35,637,o)
);
},
{
closed = 1;
nodes = (
(336,527,c),
(336,439,o),
(279,392,o),
(214,392,c),
(148,392,o),
(94,439,o),
(94,527,c),
(94,616,o),
(149,663,o),
(214,663,c),
(280,663,o),
(336,616,o)
);
}
);
width = 429;
}
);
unicode = 186;
userData = {
com.schriftgestaltung.Glyphs.ColorIndex = 4;
};
},
{
glyphname = pi;
lastChange = "2024-07-30 10:39:23 +0000";
layers = (
{
layerId = "CDDB5E63-2DBC-4745-B175-3A13AC81D5EA";
shapes = (
{
closed = 1;
nodes = (
(47,490,l),
(128,490,l),
(128,0,l),
(198,0,l),
(198,490,l),
(512,490,l),
(512,0,l),
(582,0,l),
(582,490,l),
(663,490,l),
(663,546,l),
(47,546,l)
);
}
);
width = 713;
}
);
unicode = 960;
userData = {
com.schriftgestaltung.Glyphs.ColorIndex = 8;
};
},
{
glyphname = zero;
lastChange = "2024-07-30 10:39:23 +0000";
layers = (
{
layerId = "CDDB5E63-2DBC-4745-B175-3A13AC81D5EA";
shapes = (
{
closed = 1;
nodes = (
(65,570,o),
(65,365,c),
(65,156,o),
(111,-2,o),
(308,-2,cs),
(504,-2,o),
(551,156,o),
(551,365,c),
(551,570,o),
(504,727,o),
(308,727,cs),
(111,727,o)
);
},
{
closed = 1;
nodes = (
(482,527,o),
(482,365,c),
(482,197,o),
(460,62,o),
(308,62,cs),
(156,62,o),
(134,197,o),
(134,365,c),
(134,527,o),
(156,664,o),
(308,664,cs),
(460,664,o)
);
}
);
width = 616;
}
);
unicode = 48;
userData = {
com.schriftgestaltung.Glyphs.ColorIndex = 3;
};
},
{
glyphname = one;
lastChange = "2024-07-30 10:39:23 +0000";
layers = (
{
layerId = "CDDB5E63-2DBC-4745-B175-3A13AC81D5EA";
shapes = (
{
closed = 1;
nodes = (
(130,0,l),
(201,0,l),
(201,717,l),
(31,717,l),
(31,654,l),
(130,654,l)
);
}
);
width = 292;
}
);
unicode = 49;
userData = {
com.schriftgestaltung.Glyphs.ColorIndex = 3;
};
},
{
glyphname = two;
lastChange = "2024-07-30 10:39:23 +0000";
layers = (
{
layerId = "CDDB5E63-2DBC-4745-B175-3A13AC81D5EA";
shapes = (
{
closed = 1;
nodes = (
(51,5,l),
(528,5,l),
(528,64,l),
(158,64,l),
(299,168,o),
(506,337,o),
(506,520,cs),
(506,658,o),
(414,729,o),
(289,729,cs),
(157,729,o),
(65,646,o),
(57,495,c),
(125,495,l),
(131,595,o),
(183,669,o),
(289,669,cs),
(400,669,o),
(436,600,o),
(436,517,cs),
(436,364,o),
(257,209,o),
(51,55,c)
);
}
);
width = 572;
}
);
unicode = 50;
userData = {
com.schriftgestaltung.Glyphs.ColorIndex = 3;
};
},
{
glyphname = three;
lastChange = "2024-07-30 10:39:23 +0000";
layers = (
{
layerId = "CDDB5E63-2DBC-4745-B175-3A13AC81D5EA";
shapes = (
{
closed = 1;
nodes = (
(62,534,c),
(130,534,l),
(141,621,o),
(206,669,o),
(295,669,cs),
(390,669,o),
(441,616,o),
(441,540,cs),
(441,452,o),
(374,407,o),
(237,407,cs),
(214,407,l),
(214,348,l),
(236,348,ls),
(375,348,o),
(455,302,o),
(455,196,cs),
(455,117,o),
(404,54,o),
(298,54,cs),
(192,54,o),
(130,119,o),
(118,204,c),
(50,204,l),
(65,68,o),
(163,-5,o),
(298,-5,cs),
(449,-5,o),
(522,81,o),
(522,190,cs),
(522,296,o),
(458,358,o),
(367,376,c),
(367,381,l),
(461,396,o),
(509,466,o),
(509,547,cs),
(509,649,o),
(435,730,o),
(297,730,cs),
(163,730,o),
(72,656,o)
);
}
);
width = 585;
}
);
unicode = 51;
userData = {
com.schriftgestaltung.Glyphs.ColorIndex = 3;
};
},
{
glyphname = four;
lastChange = "2024-07-30 10:39:23 +0000";
layers = (
{
layerId = "CDDB5E63-2DBC-4745-B175-3A13AC81D5EA";
shapes = (
{
closed = 1;
nodes = (
(412,0,l),
(481,0,l),
(481,170,l),
(588,170,l),
(588,231,l),
(481,231,l),
(481,713,l),
(398,713,l),
(34,223,l),
(34,170,l),
(412,170,l)
);
},
{
closed = 1;
nodes = (
(115,231,l),
(415,636,l),
(415,231,l)
);
}
);
width = 613;
}
);
unicode = 52;
userData = {
com.schriftgestaltung.Glyphs.ColorIndex = 3;
};
},
{
glyphname = five;
lastChange = "2024-07-30 10:39:23 +0000";
layers = (
{
layerId = "CDDB5E63-2DBC-4745-B175-3A13AC81D5EA";
shapes = (
{
closed = 1;
nodes = (
(86,718,l),
(86,321,l),
(152,321,l),
(180,381,o),
(240,421,o),
(319,421,cs),
(433,421,o),
(493,354,o),
(493,245,cs),
(493,137,o),
(438,57,o),
(317,57,cs),
(226,57,o),
(159,106,o),
(141,195,c),
(72,195,l),
(90,76,o),
(178,-3,o),
(317,-3,cs),
(486,-3,o),
(560,111,o),
(560,246,cs),
(560,359,o),
(501,481,o),
(328,481,cs),
(252,481,o),
(183,446,o),
(151,401,c),
(151,657,l),
(517,657,l),
(517,718,l)
);
}
);
width = 617;
}
);
unicode = 53;
userData = {
com.schriftgestaltung.Glyphs.ColorIndex = 3;
};
},
{
glyphname = six;
lastChange = "2024-07-30 10:39:23 +0000";
layers = (
{
layerId = "CDDB5E63-2DBC-4745-B175-3A13AC81D5EA";
shapes = (
{
closed = 1;
nodes = (
(542,542,l),
(529,647,o),
(460,731,o),
(326,731,cs),
(143,731,o),
(72,588,o),
(72,361,cs),
(72,155,o),
(120,-3,o),
(334,-3,cs),
(496,-3,o),
(568,107,o),
(568,234,cs),
(568,385,o),
(480,476,o),
(340,476,cs),
(245,476,o),
(161,429,o),
(134,347,c),
(129,585,o),
(200,672,o),
(326,672,cs),
(416,672,o),
(463,623,o),
(477,542,c)
);
},
{
closed = 1;
nodes = (
(327,416,cs),
(438,416,o),
(500,347,o),
(500,231,cs),
(500,123,o),
(434,56,o),
(331,56,cs),
(201,56,o),
(143,144,o),
(143,245,cs),
(143,363,o),
(238,416,o)
);
}
);
width = 629;
}
);
unicode = 54;
userData = {
com.schriftgestaltung.Glyphs.ColorIndex = 3;
};
},
{
glyphname = seven;
lastChange = "2024-07-30 10:39:23 +0000";
layers = (
{
layerId = "CDDB5E63-2DBC-4745-B175-3A13AC81D5EA";
shapes = (
{
closed = 1;
nodes = (
(26,716,l),
(26,656,l),
(426,656,l),
(144,0,l),
(215,0,l),
(494,662,l),
(494,716,l)
);
}
);
width = 533;
}
);
unicode = 55;
userData = {
com.schriftgestaltung.Glyphs.ColorIndex = 3;
};
},
{
glyphname = eight;
lastChange = "2024-07-30 10:39:23 +0000";
layers = (
{
layerId = "CDDB5E63-2DBC-4745-B175-3A13AC81D5EA";
shapes = (
{
closed = 1;
nodes = (
(204,372,c),
(115,349,o),
(58,283,o),
(58,190,cs),
(58,61,o),
(158,-21,o),
(312,-21,c),
(466,-21,o),
(566,61,o),
(566,190,cs),
(566,283,o),
(509,349,o),
(420,372,c),
(503,398,o),
(547,460,o),
(547,539,cs),
(547,645,o),
(465,727,o),
(312,727,c),
(159,727,o),
(77,645,o),
(77,539,cs),
(77,459,o),
(120,399,o)
);
},
{
closed = 1;
nodes = (
(479,448,o),
(412,395,o),
(312,395,c),
(212,395,o),
(145,448,o),
(145,531,cs),
(145,622,o),
(212,669,o),
(312,669,c),
(413,669,o),
(479,621,o),
(479,531,cs)
);
},
{
closed = 1;
nodes = (
(312,341,c),
(415,341,o),
(497,295,o),
(497,192,cs),
(497,97,o),
(425,38,o),
(312,38,c),
(198,38,o),
(126,96,o),
(126,192,cs),
(126,297,o),
(210,341,o)
);
}
);
width = 624;
}
);
unicode = 56;
userData = {
com.schriftgestaltung.Glyphs.ColorIndex = 3;
};
},
{
glyphname = nine;
lastChange = "2024-07-30 10:39:23 +0000";
layers = (
{
layerId = "CDDB5E63-2DBC-4745-B175-3A13AC81D5EA";
shapes = (
{
closed = 1;
nodes = (
(93,191,l),
(105,82,o),
(173,-3,o),
(312,-3,cs),
(500,-3,o),
(558,136,o),
(558,372,cs),
(558,582,o),
(506,730,o),
(304,730,cs),
(144,730,o),
(69,624,o),
(69,493,cs),
(69,341,o),
(163,255,o),
(301,255,cs),
(391,255,o),
(470,299,o),
(496,373,c),
(502,138,o),
(435,56,o),
(315,56,cs),
(223,56,o),
(172,106,o),
(158,191,c)
);
},
{
closed = 1;
nodes = (
(312,315,cs),
(198,315,o),
(136,385,o),
(136,495,cs),
(136,602,o),
(203,671,o),
(306,671,cs),
(428,671,o),
(486,586,o),
(486,483,cs),
(486,374,o),
(404,315,o)
);
}
);
width = 625;
}
);
unicode = 57;
userData = {
com.schriftgestaltung.Glyphs.ColorIndex = 3;
};
},
{
glyphname = onesuperior;
lastChange = "2024-07-30 10:39:23 +0000";
layers = (
{
layerId = "CDDB5E63-2DBC-4745-B175-3A13AC81D5EA";
shapes = (
{
closed = 1;
nodes = (
(83,352,l),
(140,352,l),
(140,704,l),
(29,704,l),
(29,659,l),
(83,659,l)
);
}
);
width = 183;
}
);
unicode = 185;
userData = {
com.schriftgestaltung.Glyphs.ColorIndex = 4;
};
},
{
glyphname = twosuperior;
lastChange = "2024-07-30 10:39:23 +0000";
layers = (
{
layerId = "CDDB5E63-2DBC-4745-B175-3A13AC81D5EA";
shapes = (
{
closed = 1;
nodes = (
(33,602,c),
(90,602,l),
(95,642,o),
(117,665,o),
(155,665,cs),
(188,665,o),
(215,644,o),
(215,601,cs),
(215,553,o),
(183,520,o),
(145,487,cs),
(34,392,l),
(34,352,l),
(281,352,l),
(281,399,l),
(82,399,l),
(76,380,l),
(183,463,ls),
(242,510,o),
(275,547,o),
(275,603,cs),
(275,663,o),
(229,709,o),
(157,709,cs),
(78,709,o),
(37,661,o)
);
}
);
width = 322;
}
);
unicode = 178;
userData = {
com.schriftgestaltung.Glyphs.ColorIndex = 4;
};
},
{
glyphname = threesuperior;
lastChange = "2024-07-30 10:39:23 +0000";
layers = (
{
layerId = "CDDB5E63-2DBC-4745-B175-3A13AC81D5EA";
shapes = (
{
closed = 1;
nodes = (
(31,614,c),
(85,614,l),
(93,644,o),
(115,664,o),
(157,664,cs),
(198,664,o),
(225,641,o),
(225,606,cs),
(225,568,o),
(195,547,o),
(154,547,cs),
(106,547,l),
(106,508,l),
(154,508,ls),
(196,508,o),
(227,487,o),
(227,449,cs),
(227,413,o),
(200,391,o),
(157,391,cs),
(119,391,o),
(90,406,o),
(84,451,c),
(28,451,l),
(34,383,o),
(82,347,o),
(157,347,cs),
(238,347,o),
(287,392,o),
(287,443,cs),
(287,487,o),
(258,515,o),
(221,526,c),
(221,528,l),
(260,539,o),
(285,567,o),
(285,608,cs),
(285,666,o),
(230,709,o),
(161,709,cs),
(85,709,o),
(38,669,o)
);
}
);
width = 323;
}
);
unicode = 179;
userData = {
com.schriftgestaltung.Glyphs.ColorIndex = 4;
};
},
{
glyphname = fraction;
lastChange = "2024-07-30 10:39:23 +0000";
layers = (
{
layerId = "CDDB5E63-2DBC-4745-B175-3A13AC81D5EA";
shapes = (
{
closed = 1;
nodes = (
(-29,0,l),
(42,0,l),
(453,700,l),
(381,700,l)
);
}
);
width = 409;
}
);
unicode = 8260;
userData = {
com.schriftgestaltung.Glyphs.ColorIndex = 4;
};
},
{
glyphname = onehalf;
lastChange = "2024-07-30 10:39:23 +0000";
layers = (
{
layerId = "CDDB5E63-2DBC-4745-B175-3A13AC81D5EA";
shapes = (
{
closed = 1;
nodes = (
(52,0,l),
(119,0,l),
(479,700,l),
(412,700,l)
);
},
{
alignment = -1;
pos = (9,0);
ref = onesuperior;
},
{
alignment = -1;
pos = (318,-353);
ref = twosuperior;
}
);
width = 650;
}
);
unicode = 189;
userData = {
com.schriftgestaltung.Glyphs.ColorIndex = 4;
};
},
{
glyphname = onequarter;
lastChange = "2024-07-30 10:39:23 +0000";
layers = (
{
layerId = "CDDB5E63-2DBC-4745-B175-3A13AC81D5EA";
shapes = (
{
closed = 1;
nodes = (
(60,0,l),
(127,0,l),
(493,700,l),
(427,700,l)
);
},
{
closed = 1;
nodes = (
(518,110,l),
(518,354,l),
(445,354,l),
(282,106,l),
(282,71,l),
(461,71,l),
(461,0,l),
(518,0,l),
(518,71,l),
(568,71,l),
(568,110,l)
);
},
{
closed = 1;
nodes = (
(340,110,l),
(462,296,l),
(462,110,l)
);
},
{
alignment = -1;
pos = (12,0);
ref = onesuperior;
}
);
width = 602;
}
);
unicode = 188;
userData = {
com.schriftgestaltung.Glyphs.ColorIndex = 4;
};
},
{
glyphname = threequarters;
lastChange = "2024-07-30 10:39:23 +0000";
layers = (
{
layerId = "CDDB5E63-2DBC-4745-B175-3A13AC81D5EA";
shapes = (
{
closed = 1;
nodes = (
(146,0,l),
(212,0,l),
(589,700,l),
(523,700,l)
);
},
{
closed = 1;
nodes = (
(602,110,l),
(602,354,l),
(529,354,l),
(366,106,l),
(366,71,l),
(545,71,l),
(545,0,l),
(602,0,l),
(602,71,l),
(652,71,l),
(652,110,l)
);
},
{
closed = 1;
nodes = (
(425,110,l),
(547,296,l),
(547,110,l)
);
},
{
alignment = -1;
pos = (10,0);
ref = threesuperior;
}
);
width = 680;
}
);
unicode = 190;
userData = {
com.schriftgestaltung.Glyphs.ColorIndex = 4;
};
},
{
glyphname = asterisk;
lastChange = "2024-07-30 10:39:23 +0000";
layers = (
{
layerId = "CDDB5E63-2DBC-4745-B175-3A13AC81D5EA";
shapes = (
{
closed = 1;
nodes = (
(266,732,l),
(207,732,l),
(219,575,l),
(89,662,l),
(60,610,l),
(201,547,l),
(59,483,l),
(89,430,l),
(218,517,l),
(207,360,l),
(265,360,l),
(253,517,l),
(382,431,l),
(411,483,l),
(269,547,l),
(410,611,l),
(382,662,l),
(253,575,l)
);
}
);
width = 469;
}
);
unicode = 42;
userData = {
com.schriftgestaltung.Glyphs.ColorIndex = 3;
};
},
{
glyphname = backslash;
lastChange = "2024-07-30 10:39:23 +0000";
layers = (
{
layerId = "CDDB5E63-2DBC-4745-B175-3A13AC81D5EA";
shapes = (
{
closed = 1;
nodes = (
(172,940,l),
(101,940,l),
(427,-166,l),
(496,-166,l)
);
}
);
width = 603;
}
);
unicode = 92;
userData = {
com.schriftgestaltung.Glyphs.ColorIndex = 3;
};
},
{
glyphname = bullet;
lastChange = "2024-07-30 10:39:23 +0000";
layers = (
{
layerId = "CDDB5E63-2DBC-4745-B175-3A13AC81D5EA";
shapes = (
{
closed = 1;
nodes = (
(182,218,cs),
(247,218,o),
(298,269,o),
(298,333,cs),
(298,398,o),
(247,449,o),
(182,449,cs),
(119,449,o),
(67,398,o),
(67,333,cs),
(67,269,o),
(119,218,o)
);
}
);
width = 366;
}
);
unicode = 8226;
userData = {
com.schriftgestaltung.Glyphs.ColorIndex = 4;
};
},
{
glyphname = comma;
lastChange = "2024-07-30 10:39:23 +0000";
layers = (
{
layerId = "CDDB5E63-2DBC-4745-B175-3A13AC81D5EA";
shapes = (
{
closed = 1;
nodes = (
(-8,-146,l),
(40,-146,l),
(144,116,l),
(66,116,l)
);
}
);
width = 173;
}
);
unicode = 44;
userData = {
com.schriftgestaltung.Glyphs.ColorIndex = 8;
com.typemytype.robofont.layerData = {
b = {
anchors = (
);
components = (
);
contours = (
{
points = (
{
segmentType = line;
smooth = 0;
x = 37;
y = 31;
},
{
segmentType = line;
smooth = 0;
x = 37;
y = -7;
},
{
segmentType = line;
smooth = 0;
x = 68;
y = -7;
},
{
segmentType = line;
smooth = 1;
x = 68;
y = -14;
},
{
smooth = 0;
x = 68;
y = -47;
},
{
smooth = 0;
x = 57;
y = -68;
},
{
segmentType = curve;
smooth = 0;
x = 25;
y = -68;
},
{
segmentType = line;
smooth = 0;
x = 25;
y = -86;
},
{
smooth = 0;
x = 61;
y = -86;
},
{
smooth = 0;
x = 90;
y = -71;
},
{
segmentType = curve;
smooth = 1;
x = 90;
y = 0;
},
{
smooth = 0;
x = 90;
y = 9;
},
{
smooth = 0;
x = 89;
y = 22;
},
{
segmentType = curve;
smooth = 0;
x = 88;
y = 31;
}
);
}
);
lib = {
};
name = comma;
unicodes = (
);
width = 119.5644;
};
};
};
},
{
glyphname = exclam;
lastChange = "2024-07-30 10:39:23 +0000";
layers = (
{
layerId = "CDDB5E63-2DBC-4745-B175-3A13AC81D5EA";
shapes = (
{
closed = 1;
nodes = (
(106,185,l),
(165,185,l),
(174,699,l),
(98,699,l)
);
},
{
alignment = -1;
pos = (47,0);
ref = period;
}
);
width = 277;
}
);
unicode = 33;
userData = {
com.schriftgestaltung.Glyphs.ColorIndex = 3;
};
},
{
glyphname = numbersign;
lastChange = "2024-07-30 10:39:23 +0000";
layers = (
{
layerId = "CDDB5E63-2DBC-4745-B175-3A13AC81D5EA";
shapes = (
{
closed = 1;
nodes = (
(148,0,l),
(215,0,l),
(373,740,l),
(306,740,l)
);
},
{
closed = 1;
nodes = (
(437,0,l),
(504,0,l),
(662,740,l),
(595,740,l)
);
},
{
closed = 1;
nodes = (
(35,214,l),
(706,214,l),
(706,276,l),
(35,276,l)
);
},
{
closed = 1;
nodes = (
(90,461,l),
(761,461,l),
(761,523,l),
(90,523,l)
);
}
);
width = 812;
}
);
unicode = 35;
userData = {
com.schriftgestaltung.Glyphs.ColorIndex = 3;
};
},
{
glyphname = period;
lastChange = "2024-07-30 10:39:23 +0000";
layers = (
{
layerId = "CDDB5E63-2DBC-4745-B175-3A13AC81D5EA";
shapes = (
{
closed = 1;
nodes = (
(120,-5,o),
(142,18,o),
(142,47,cs),
(142,76,o),
(120,98,o),
(92,98,cs),
(63,98,o),
(41,76,o),
(41,47,cs),
(41,18,o),
(63,-5,o),
(92,-5,cs)
);
}
);
width = 182;
}
);
unicode = 46;
userData = {
com.schriftgestaltung.Glyphs.ColorIndex = 3;
};
},
{
glyphname = question;
lastChange = "2024-07-30 10:39:23 +0000";
layers = (
{
layerId = "CDDB5E63-2DBC-4745-B175-3A13AC81D5EA";
shapes = (
{
closed = 1;
nodes = (
(123,708,o),
(34,631,o),
(34,510,c),
(101,510,l),
(101,595,o),
(158,648,o),
(249,648,cs),
(339,648,o),
(400,593,o),
(400,504,cs),
(400,367,o),
(293,345,o),
(178,345,cs),
(152,345,l),
(156,185,l),
(216,185,l),
(219,295,l),
(363,295,o),
(467,353,o),
(467,504,cs),
(467,628,o),
(377,708,o),
(249,708,cs)
);
},
{
alignment = -1;
pos = (94,0);
ref = period;
}
);
width = 512;
}
);
unicode = 63;
userData = {
com.schriftgestaltung.Glyphs.ColorIndex = 3;
};
},
{
glyphname = quotedbl;
lastChange = "2024-07-30 10:39:23 +0000";
layers = (
{
layerId = "CDDB5E63-2DBC-4745-B175-3A13AC81D5EA";
shapes = (
{
closed = 1;
nodes = (
(47,602,l),
(96,602,l),
(106,795,l),
(37,795,l)
);
},
{
closed = 1;
nodes = (
(168,602,l),
(217,602,l),
(226,795,l),
(157,795,l)
);
}
);
width = 264;
}
);
unicode = 34;
userData = {
com.schriftgestaltung.Glyphs.ColorIndex = 4;
};
},
{
glyphname = quotesingle;
lastChange = "2024-07-30 10:39:23 +0000";
layers = (
{
layerId = "CDDB5E63-2DBC-4745-B175-3A13AC81D5EA";
shapes = (
{
closed = 1;
nodes = (
(49,602,l),
(98,602,l),
(110,795,l),
(37,795,l)
);
}
);
width = 147;
}
);
unicode = 39;
userData = {
com.schriftgestaltung.Glyphs.ColorIndex = 4;
};
},
{
glyphname = slash;
lastChange = "2024-07-30 10:39:23 +0000";
layers = (
{
layerId = "CDDB5E63-2DBC-4745-B175-3A13AC81D5EA";
shapes = (
{
closed = 1;
nodes = (
(46,-166,l),
(115,-166,l),
(391,940,l),
(320,940,l)
);
}
);
width = 441;
}
);
unicode = 47;
userData = {
com.schriftgestaltung.Glyphs.ColorIndex = 3;
};
},
{
glyphname = underscore;
lastChange = "2024-07-30 10:39:23 +0000";
layers = (
{
layerId = "CDDB5E63-2DBC-4745-B175-3A13AC81D5EA";
shapes = (
{
closed = 1;
nodes = (
(86,-100,l),
(595,-100,l),
(595,-35,l),
(86,-35,l)
);
}
);
width = 674;
}
);
unicode = 95;
userData = {
com.schriftgestaltung.Glyphs.ColorIndex = 3;
};
},
{
glyphname = braceleft;
lastChange = "2024-07-30 10:39:23 +0000";
layers = (
{
layerId = "CDDB5E63-2DBC-4745-B175-3A13AC81D5EA";
shapes = (
{
closed = 1;
nodes = (
(170,325,o),
(191,276,o),
(191,227,cs),
(191,148,o),
(169,46,o),
(169,-42,cs),
(169,-140,o),
(227,-187,o),
(314,-187,cs),
(364,-187,l),
(364,-126,l),
(326,-126,ls),
(269,-126,o),
(237,-101,o),
(237,-37,cs),
(237,45,o),
(259,149,o),
(259,229,cs),
(259,299,o),
(226,354,o),
(147,372,c),
(147,374,l),
(226,392,o),
(259,447,o),
(259,517,cs),
(259,598,o),
(237,701,o),
(237,783,cs),
(237,847,o),
(269,872,o),
(326,872,cs),
(364,872,l),
(364,933,l),
(314,933,ls),
(227,933,o),
(169,886,o),
(169,788,cs),
(169,700,o),
(191,599,o),
(191,519,cs),
(191,470,o),
(170,421,o),
(86,402,c),
(86,345,l)
);
}
);
width = 413;
}
);
unicode = 123;
userData = {
com.schriftgestaltung.Glyphs.ColorIndex = 3;
};
},
{
glyphname = bracketleft;
lastChange = "2024-07-30 10:39:23 +0000";
layers = (
{
layerId = "CDDB5E63-2DBC-4745-B175-3A13AC81D5EA";
shapes = (
{
closed = 1;
nodes = (
(119,-186,l),
(273,-186,l),
(273,-127,l),
(185,-127,l),
(185,876,l),
(273,876,l),
(273,934,l),
(119,934,l)
);
}
);
width = 367;
}
);
unicode = 91;
userData = {
com.schriftgestaltung.Glyphs.ColorIndex = 3;
};
},
{
glyphname = parenleft;
lastChange = "2024-07-30 10:39:23 +0000";
layers = (
{
layerId = "CDDB5E63-2DBC-4745-B175-3A13AC81D5EA";
shapes = (
{
closed = 1;
nodes = (
(370,-186,l),
(370,-179,l),
(233,-37,o),
(162,160,o),
(162,369,cs),
(162,577,o),
(233,783,o),
(380,927,c),
(380,934,l),
(307,934,l),
(173,807,o),
(94,601,o),
(94,369,cs),
(94,137,o),
(173,-64,o),
(296,-186,c)
);
}
);
width = 420;
}
);
unicode = 40;
userData = {
com.schriftgestaltung.Glyphs.ColorIndex = 3;
};
},
{
glyphname = emdash;
lastChange = "2024-07-30 10:39:23 +0000";
layers = (
{
layerId = "CDDB5E63-2DBC-4745-B175-3A13AC81D5EA";
shapes = (
{
closed = 1;
nodes = (
(65,341,l),
(784,341,l),
(784,400,l),
(65,400,l)
);
}
);
width = 849;
}
);
unicode = 8212;
userData = {
com.schriftgestaltung.Glyphs.ColorIndex = 4;
};
},
{
glyphname = endash;
lastChange = "2024-07-30 10:39:23 +0000";
layers = (
{
layerId = "CDDB5E63-2DBC-4745-B175-3A13AC81D5EA";
shapes = (
{
closed = 1;
nodes = (
(65,341,l),
(584,341,l),
(584,400,l),
(65,400,l)
);
}
);
width = 649;
}
);
unicode = 8211;
userData = {
com.schriftgestaltung.Glyphs.ColorIndex = 4;
};
},
{
glyphname = guillemotleft;
lastChange = "2024-07-30 10:39:23 +0000";
layers = (
{
layerId = "CDDB5E63-2DBC-4745-B175-3A13AC81D5EA";
shapes = (
{
closed = 1;
nodes = (
(113,295,l),
(215,470,l),
(144,470,l),
(45,295,l),
(144,120,l),
(215,120,l)
);
},
{
closed = 1;
nodes = (
(283,295,l),
(385,470,l),
(314,470,l),
(215,295,l),
(314,120,l),
(385,120,l)
);
}
);
width = 435;
}
);
unicode = 171;
userData = {
com.schriftgestaltung.Glyphs.ColorIndex = 4;
};
},
{
glyphname = guillemotright;
lastChange = "2024-07-30 10:39:23 +0000";
layers = (
{
layerId = "CDDB5E63-2DBC-4745-B175-3A13AC81D5EA";
shapes = (
{
closed = 1;
nodes = (
(291,120,l),
(390,295,l),
(291,470,l),
(220,470,l),
(322,295,l),
(220,120,l)
);
},
{
closed = 1;
nodes = (
(121,120,l),
(220,295,l),
(121,470,l),
(50,470,l),
(152,295,l),
(50,120,l)
);
}
);
width = 435;
}
);
unicode = 187;
userData = {
com.schriftgestaltung.Glyphs.ColorIndex = 4;
};
},
{
glyphname = guilsinglleft;
lastChange = "2024-07-30 10:39:23 +0000";
layers = (
{
layerId = "CDDB5E63-2DBC-4745-B175-3A13AC81D5EA";
shapes = (
{
closed = 1;
nodes = (
(113,295,l),
(215,470,l),
(144,470,l),
(45,295,l),
(144,120,l),
(215,120,l)
);
}
);
width = 265;
}
);
unicode = 8249;
userData = {
com.schriftgestaltung.Glyphs.ColorIndex = 4;
};
},
{
glyphname = guilsinglright;
lastChange = "2024-07-30 10:39:23 +0000";
layers = (
{
layerId = "CDDB5E63-2DBC-4745-B175-3A13AC81D5EA";
shapes = (
{
closed = 1;
nodes = (
(121,120,l),
(220,295,l),
(121,470,l),
(50,470,l),
(152,295,l),
(50,120,l)
);
}
);
width = 265;
}
);
unicode = 8250;
userData = {
com.schriftgestaltung.Glyphs.ColorIndex = 4;
};
},
{
glyphname = quotedblbase;
lastChange = "2024-07-30 10:39:23 +0000";
layers = (
{
layerId = "CDDB5E63-2DBC-4745-B175-3A13AC81D5EA";
shapes = (
{
closed = 1;
nodes = (
(43,-120,l),
(131,96,l),
(50,96,l),
(-8,-120,l)
);
},
{
closed = 1;
nodes = (
(191,-120,l),
(278,96,l),
(197,96,l),
(140,-120,l)
);
}
);
width = 307;
}
);
unicode = 8222;
userData = {
com.schriftgestaltung.Glyphs.ColorIndex = 8;
};
},
{
glyphname = quotedblleft;
lastChange = "2024-07-30 10:39:23 +0000";
layers = (
{
layerId = "CDDB5E63-2DBC-4745-B175-3A13AC81D5EA";
shapes = (
{
closed = 1;
nodes = (
(111,699,l),
(24,483,l),
(105,483,l),
(162,699,l)
);
},
{
closed = 1;
nodes = (
(257,699,l),
(169,483,l),
(250,483,l),
(308,699,l)
);
}
);
width = 342;
}
);
metricLeft = quoteleft;
metricRight = quoteleft;
unicode = 8220;
userData = {
com.schriftgestaltung.Glyphs.ColorIndex = 8;
};
},
{
glyphname = quotedblright;
lastChange = "2024-07-30 10:39:23 +0000";
layers = (
{
layerId = "CDDB5E63-2DBC-4745-B175-3A13AC81D5EA";
shapes = (
{
closed = 1;
nodes = (
(227,483,l),
(315,699,l),
(234,699,l),
(176,483,l)
);
},
{
closed = 1;
nodes = (
(82,483,l),
(170,699,l),
(89,699,l),
(31,483,l)
);
}
);
width = 342;
}
);
metricLeft = quoteright;
metricRight = quoteright;
unicode = 8221;
userData = {
com.schriftgestaltung.Glyphs.ColorIndex = 8;
};
},
{
glyphname = quoteleft;
lastChange = "2024-07-30 10:39:23 +0000";
layers = (
{
layerId = "CDDB5E63-2DBC-4745-B175-3A13AC81D5EA";
shapes = (
{
closed = 1;
nodes = (
(111,699,l),
(24,483,l),
(105,483,l),
(162,699,l)
);
}
);
width = 197;
}
);
unicode = 8216;
userData = {
com.schriftgestaltung.Glyphs.ColorIndex = 8;
};
},
{
glyphname = quoteright;
lastChange = "2024-07-30 10:39:23 +0000";
layers = (
{
layerId = "CDDB5E63-2DBC-4745-B175-3A13AC81D5EA";
shapes = (
{
closed = 1;
nodes = (
(82,483,l),
(170,699,l),
(89,699,l),
(31,483,l)
);
}
);
width = 197;
}
);
unicode = 8217;
userData = {
com.schriftgestaltung.Glyphs.ColorIndex = 8;
com.typemytype.robofont.layerData = {
b = {
anchors = (
{
name = _bottom;
x = 64;
y = 787;
}
);
components = (
);
contours = (
{
points = (
{
segmentType = line;
smooth = 0;
x = 32;
y = 732;
},
{
segmentType = line;
smooth = 0;
x = 32;
y = 680;
},
{
segmentType = line;
smooth = 0;
x = 68;
y = 680;
},
{
segmentType = line;
smooth = 1;
x = 68;
y = 650;
},
{
smooth = 0;
x = 68;
y = 625;
},
{
smooth = 0;
x = 57;
y = 610;
},
{
segmentType = curve;
smooth = 0;
x = 25;
y = 610;
},
{
segmentType = line;
smooth = 0;
x = 25;
y = 585;
},
{
smooth = 0;
x = 64;
y = 585;
},
{
smooth = 0;
x = 91;
y = 593;
},
{
segmentType = curve;
smooth = 1;
x = 91;
y = 664;
},
{
smooth = 0;
x = 91;
y = 682;
},
{
smooth = 0;
x = 90;
y = 704;
},
{
segmentType = curve;
smooth = 0;
x = 88;
y = 732;
}
);
}
);
lib = {
};
name = quoteright;
unicodes = (
);
width = 122;
};
};
};
},
{
glyphname = quotesinglbase;
lastChange = "2024-07-30 10:39:23 +0000";
layers = (
{
layerId = "CDDB5E63-2DBC-4745-B175-3A13AC81D5EA";
shapes = (
{
closed = 1;
nodes = (
(43,-120,l),
(131,96,l),
(50,96,l),
(-8,-120,l)
);
}
);
width = 160;
}
);
unicode = 8218;
userData = {
com.schriftgestaltung.Glyphs.ColorIndex = 8;
};
},
{
glyphname = Euro;
lastChange = "2024-07-30 10:39:23 +0000";
layers = (
{
layerId = "CDDB5E63-2DBC-4745-B175-3A13AC81D5EA";
shapes = (
{
closed = 1;
nodes = (
(455,402,l),
(455,452,l),
(23,452,l),
(23,402,l)
);
},
{
closed = 1;
nodes = (
(455,239,l),
(455,289,l),
(23,289,l),
(23,239,l)
);
},
{
closed = 1;
nodes = (
(112,350,c),
(112,140,o),
(260,-6,o),
(454,-6,c),
(610,-6,o),
(725,72,o),
(776,204,c),
(694,204,l),
(655,115,o),
(573,57,o),
(454,57,c),
(301,57,o),
(184,170,o),
(184,350,c),
(184,531,o),
(301,644,o),
(454,644,c),
(573,644,o),
(655,586,o),
(694,495,c),
(776,495,l),
(725,629,o),
(610,707,o),
(454,707,c),
(260,707,o),
(112,560,o)
);
}
);
width = 818;
}
);
unicode = 8364;
userData = {
com.schriftgestaltung.Glyphs.ColorIndex = 4;
};
},
{
glyphname = cent;
lastChange = "2024-07-30 10:39:23 +0000";
layers = (
{
layerId = "CDDB5E63-2DBC-4745-B175-3A13AC81D5EA";
shapes = (
{
closed = 1;
nodes = (
(315,461,cs),
(406,461,o),
(466,413,o),
(482,337,c),
(548,337,l),
(533,442,o),
(447,519,o),
(315,519,cs),
(158,519,o),
(63,414,o),
(63,264,c),
(63,115,o),
(158,10,o),
(315,10,cs),
(447,10,o),
(533,87,o),
(548,192,c),
(482,192,l),
(466,116,o),
(406,68,o),
(315,68,cs),
(212,68,o),
(130,134,o),
(130,264,c),
(130,394,o),
(212,461,o)
);
},
{
closed = 1;
nodes = (
(289,477,l),
(333,477,l),
(333,614,l),
(289,614,l)
);
},
{
closed = 1;
nodes = (
(289,-90,l),
(333,-90,l),
(333,47,l),
(289,47,l)
);
}
);
width = 642;
}
);
unicode = 162;
userData = {
com.schriftgestaltung.Glyphs.ColorIndex = 4;
};
},
{
glyphname = currency;
lastChange = "2024-07-30 10:39:23 +0000";
layers = (
{
layerId = "CDDB5E63-2DBC-4745-B175-3A13AC81D5EA";
shapes = (
{
closed = 1;
nodes = (
(167,552,o),
(94,483,o),
(94,377,cs),
(94,271,o),
(164,202,o),
(262,202,cs),
(356,202,o),
(432,271,o),
(432,377,cs),
(432,483,o),
(357,552,o),
(263,552,cs)
);
},
{
closed = 1;
nodes = (
(320,507,o),
(372,459,o),
(372,377,cs),
(372,294,o),
(319,248,o),
(262,248,cs),
(202,248,o),
(154,294,o),
(154,377,cs),
(154,459,o),
(202,507,o),
(262,507,cs)
);
},
{
closed = 1;
nodes = (
(177,502,l),
(99,580,l),
(66,547,l),
(146,468,l)
);
},
{
closed = 1;
nodes = (
(377,465,l),
(459,547,l),
(426,580,l),
(348,501,l)
);
},
{
closed = 1;
nodes = (
(350,252,l),
(426,176,l),
(459,209,l),
(381,287,l)
);
},
{
closed = 1;
nodes = (
(146,289,l),
(66,209,l),
(99,176,l),
(179,256,l)
);
}
);
width = 526;
}
);
unicode = 164;
userData = {
com.schriftgestaltung.Glyphs.ColorIndex = 4;
com.typemytype.robofont.guides = (
{
angle = 90;
isGlobal = 0;
magnetic = 5;
x = 250;
y = 554;
}
);
};
},
{
glyphname = dollar;
lastChange = "2024-07-30 10:39:23 +0000";
layers = (
{
layerId = "CDDB5E63-2DBC-4745-B175-3A13AC81D5EA";
shapes = (
{
closed = 1;
nodes = (
(264,-87,l),
(308,-87,l),
(308,791,l),
(264,791,l)
);
},
{
closed = 1;
nodes = (
(131,524,cs),
(131,608,o),
(192,649,o),
(275,649,c),
(371,649,o),
(418,587,o),
(426,537,c),
(500,537,l),
(488,634,o),
(410,707,o),
(278,707,c),
(143,707,o),
(60,629,o),
(60,521,cs),
(60,261,o),
(442,391,o),
(442,181,cs),
(442,109,o),
(391,50,o),
(295,50,cs),
(188,50,o),
(142,119,o),
(136,178,c),
(61,178,l),
(66,70,o),
(159,-7,o),
(295,-7,cs),
(443,-7,o),
(512,91,o),
(512,184,cs),
(512,449,o),
(131,317,o)
);
}
);
width = 597;
}
);
unicode = 36;
userData = {
com.schriftgestaltung.Glyphs.ColorIndex = 4;
};
},
{
glyphname = florin;
lastChange = "2024-07-30 10:39:23 +0000";
layers = (
{
layerId = "CDDB5E63-2DBC-4745-B175-3A13AC81D5EA";
shapes = (
{
closed = 1;
nodes = (
(36,488,l),
(309,488,l),
(314,546,l),
(41,546,l)
);
},
{
closed = 1;
nodes = (
(123,599,cs),
(54,-50,ls),
(48,-105,o),
(28,-121,o),
(-15,-121,cs),
(-36,-121,l),
(-41,-179,l),
(-16,-179,ls),
(73,-179,o),
(115,-139,o),
(124,-50,cs),
(193,599,ls),
(201,673,o),
(240,704,o),
(324,704,c),
(329,763,l),
(203,763,o),
(135,714,o)
);
}
);
width = 332;
}
);
unicode = 402;
userData = {
com.schriftgestaltung.Glyphs.ColorIndex = 4;
};
},
{
glyphname = indianrupee;
lastChange = "2024-07-30 10:39:23 +0000";
layers = (
{
layerId = "CDDB5E63-2DBC-4745-B175-3A13AC81D5EA";
shapes = (
{
closed = 1;
nodes = (
(393,667,l),
(393,544,ls),
(393,363,o),
(363,340,o),
(103,340,c),
(103,196,ls),
(103,69,o),
(168,-10,o),
(300,-10,cs),
(422,-10,o),
(493,57,o),
(494,189,c),
(429,189,l),
(429,100,o),
(389,46,o),
(301,46,cs),
(206,46,o),
(169,105,o),
(169,196,cs),
(169,290,l),
(396,290,o),
(459,345,o),
(459,543,cs),
(459,667,l)
);
},
{
closed = 1;
nodes = (
(55,647,l),
(599,647,l),
(599,700,l),
(55,700,l)
);
},
{
closed = 1;
nodes = (
(599,471,l),
(599,523,l),
(55,523,l),
(55,471,l)
);
}
);
width = 646;
}
);
userData = {
com.schriftgestaltung.Glyphs.ColorIndex = 4;
};
},
{
glyphname = ruble;
lastChange = "2024-07-30 10:39:23 +0000";
layers = (
{
layerId = "CDDB5E63-2DBC-4745-B175-3A13AC81D5EA";
shapes = (
{
closed = 1;
nodes = (
(44,298,l),
(340,298,ls),
(505,298,o),
(576,385,o),
(576,498,cs),
(576,613,o),
(503,699,o),
(340,699,cs),
(129,699,l),
(129,0,l),
(199,0,l),
(199,643,l),
(340,643,ls),
(458,643,o),
(505,588,o),
(505,498,cs),
(505,412,o),
(458,356,o),
(340,356,cs),
(44,356,l)
);
},
{
closed = 1;
nodes = (
(44,133,l),
(433,133,l),
(433,190,l),
(44,190,l)
);
}
);
width = 613;
}
);
unicode = 8381;
userData = {
com.schriftgestaltung.Glyphs.ColorIndex = 8;
};
},
{
glyphname = rupee;
lastChange = "2024-07-30 10:39:23 +0000";
layers = (
{
layerId = "CDDB5E63-2DBC-4745-B175-3A13AC81D5EA";
shapes = (
{
closed = 1;
nodes = (
(455,496,cs),
(455,410,o),
(409,351,o),
(291,351,cs),
(150,351,l),
(150,643,l),
(291,643,ls),
(409,643,o),
(455,585,o)
);
},
{
closed = 1;
nodes = (
(80,699,l),
(80,0,l),
(150,0,l),
(150,294,l),
(291,294,ls),
(455,294,o),
(527,382,o),
(527,496,cs),
(527,611,o),
(453,699,o),
(291,699,cs)
);
},
{
closed = 1;
nodes = (
(244,315,l),
(450,0,l),
(536,0,l),
(325,315,l)
);
},
{
closed = 1;
nodes = (
(600,400,c),
(600,200,o),
(929,301,o),
(929,145,c),
(929,90,o),
(887,48,o),
(811,48,cs),
(724,48,o),
(675,98,o),
(669,163,c),
(597,163,l),
(607,55,o),
(690,-8,o),
(810,-8,cs),
(921,-8,o),
(998,54,o),
(998,144,c),
(998,353,o),
(669,249,o),
(669,402,c),
(669,457,o),
(712,498,o),
(789,498,cs),
(872,498,o),
(915,447,o),
(921,383,c),
(992,383,l),
(984,488,o),
(908,554,o),
(793,554,cs),
(674,554,o),
(600,488,o)
);
}
);
width = 1074;
}
);
unicode = 8360;
},
{
glyphname = sterling;
lastChange = "2024-07-30 10:39:23 +0000";
layers = (
{
layerId = "CDDB5E63-2DBC-4745-B175-3A13AC81D5EA";
shapes = (
{
closed = 1;
nodes = (
(195,716,o),
(111,635,o),
(111,513,cs),
(111,391,o),
(174,329,o),
(174,233,cs),
(174,146,o),
(139,97,o),
(90,41,c),
(102,-1,l),
(533,-1,l),
(533,58,l),
(165,58,l),
(215,111,o),
(240,166,o),
(240,235,c),
(240,327,o),
(177,405,o),
(177,510,cs),
(177,614,o),
(244,657,o),
(319,657,cs),
(412,657,o),
(463,596,o),
(468,514,c),
(532,514,l),
(525,624,o),
(457,716,o),
(319,716,cs)
);
},
{
closed = 1;
nodes = (
(46,364,l),
(46,314,l),
(404,314,l),
(404,364,l)
);
}
);
width = 596;
}
);
unicode = 163;
userData = {
com.schriftgestaltung.Glyphs.ColorIndex = 4;
};
},
{
glyphname = yen;
lastChange = "2024-07-30 10:39:23 +0000";
layers = (
{
layerId = "CDDB5E63-2DBC-4745-B175-3A13AC81D5EA";
shapes = (
{
closed = 1;
nodes = (
(329,319,l),
(530,320,l),
(530,372,l),
(340,372,l)
);
},
{
closed = 1;
nodes = (
(60,172,l),
(530,172,l),
(530,225,l),
(60,225,l)
);
},
{
closed = 1;
nodes = (
(260,272,l),
(260,0,l),
(330,0,l),
(330,272,l),
(554,699,l),
(475,699,l),
(278,304,l),
(310,304,l),
(113,699,l),
(34,699,l)
);
},
{
closed = 1;
nodes = (
(60,320,l),
(269,319,l),
(258,372,l),
(60,372,l)
);
}
);
width = 585;
}
);
unicode = 165;
userData = {
com.schriftgestaltung.Glyphs.ColorIndex = 4;
};
},
{
glyphname = plus;
lastChange = "2024-07-30 10:39:23 +0000";
layers = (
{
layerId = "CDDB5E63-2DBC-4745-B175-3A13AC81D5EA";
shapes = (
{
closed = 1;
nodes = (
(295,625,l),
(295,115,l),
(360,115,l),
(360,625,l)
);
},
{
closed = 1;
nodes = (
(73,340,l),
(583,340,l),
(583,400,l),
(73,400,l)
);
}
);
width = 655;
}
);
unicode = 43;
userData = {
com.schriftgestaltung.Glyphs.ColorIndex = 3;
};
},
{
glyphname = minus;
lastChange = "2024-07-30 10:39:23 +0000";
layers = (
{
layerId = "CDDB5E63-2DBC-4745-B175-3A13AC81D5EA";
shapes = (
{
closed = 1;
nodes = (
(65,341,l),
(454,341,l),
(454,400,l),
(65,400,l)
);
}
);
width = 519;
}
);
unicode = 8722;
userData = {
com.schriftgestaltung.Glyphs.ColorIndex = 3;
};
},
{
glyphname = multiply;
lastChange = "2024-07-30 10:39:23 +0000";
layers = (
{
layerId = "CDDB5E63-2DBC-4745-B175-3A13AC81D5EA";
shapes = (
{
closed = 1;
nodes = (
(86,536,l),
(461,160,l),
(507,205,l),
(132,581,l)
);
},
{
closed = 1;
nodes = (
(131,160,l),
(505,534,l),
(459,580,l),
(85,206,l)
);
}
);
width = 591;
}
);
unicode = 215;
userData = {
com.schriftgestaltung.Glyphs.ColorIndex = 3;
};
},
{
glyphname = divide;
lastChange = "2024-07-30 10:39:23 +0000";
layers = (
{
layerId = "CDDB5E63-2DBC-4745-B175-3A13AC81D5EA";
shapes = (
{
closed = 1;
nodes = (
(67,341,l),
(576,341,l),
(576,400,l),
(67,400,l)
);
},
{
alignment = -1;
pos = (232,110);
ref = period;
},
{
alignment = -1;
pos = (232,539);
ref = period;
}
);
width = 637;
}
);
unicode = 247;
userData = {
com.schriftgestaltung.Glyphs.ColorIndex = 3;
};
},
{
glyphname = equal;
lastChange = "2024-07-30 10:39:23 +0000";
layers = (
{
layerId = "CDDB5E63-2DBC-4745-B175-3A13AC81D5EA";
shapes = (
{
closed = 1;
nodes = (
(83,239,l),
(593,239,l),
(593,298,l),
(83,298,l)
);
},
{
closed = 1;
nodes = (
(83,442,l),
(593,442,l),
(593,502,l),
(83,502,l)
);
}
);
width = 676;
}
);
unicode = 61;
userData = {
com.schriftgestaltung.Glyphs.ColorIndex = 3;
};
},
{
glyphname = notequal;
lastChange = "2024-07-30 10:39:23 +0000";
layers = (
{
layerId = "CDDB5E63-2DBC-4745-B175-3A13AC81D5EA";
shapes = (
{
closed = 1;
nodes = (
(116,137,l),
(171,137,l),
(560,603,l),
(504,603,l)
);
},
{
alignment = -1;
ref = equal;
}
);
width = 664;
}
);
unicode = 8800;
userData = {
com.schriftgestaltung.Glyphs.ColorIndex = 8;
};
},
{
glyphname = greater;
lastChange = "2024-07-30 10:39:23 +0000";
layers = (
{
layerId = "CDDB5E63-2DBC-4745-B175-3A13AC81D5EA";
shapes = (
{
closed = 1;
nodes = (
(78,138,l),
(167,138,l),
(418,370,l),
(167,602,l),
(78,602,l),
(330,370,l)
);
}
);
width = 492;
}
);
unicode = 62;
userData = {
com.schriftgestaltung.Glyphs.ColorIndex = 3;
};
},
{
glyphname = less;
lastChange = "2024-07-30 10:39:23 +0000";
layers = (
{
layerId = "CDDB5E63-2DBC-4745-B175-3A13AC81D5EA";
shapes = (
{
closed = 1;
nodes = (
(159,370,l),
(411,602,l),
(322,602,l),
(71,370,l),
(322,138,l),
(411,138,l)
);
}
);
width = 504;
}
);
unicode = 60;
userData = {
com.schriftgestaltung.Glyphs.ColorIndex = 3;
};
},
{
glyphname = greaterequal;
lastChange = "2024-07-30 10:39:23 +0000";
layers = (
{
layerId = "CDDB5E63-2DBC-4745-B175-3A13AC81D5EA";
shapes = (
{
closed = 1;
nodes = (
(159,215,l),
(412,408,l),
(159,602,l),
(67,602,l),
(326,401,l),
(326,416,l),
(67,215,l)
);
},
{
closed = 1;
nodes = (
(66,157,l),
(66,103,l),
(407,103,l),
(407,157,l)
);
}
);
width = 476;
}
);
unicode = 8805;
userData = {
com.schriftgestaltung.Glyphs.ColorIndex = 8;
com.typemytype.robofont.layerData = {
b = {
anchors = (
);
components = (
);
contours = (
{
points = (
{
segmentType = line;
smooth = 0;
x = 89;
y = 221;
},
{
segmentType = line;
smooth = 0;
x = 365;
y = 419;
},
{
segmentType = line;
smooth = 0;
x = 89;
y = 618;
},
{
segmentType = line;
smooth = 0;
x = 49;
y = 618;
},
{
segmentType = line;
smooth = 0;
x = 356;
y = 398;
},
{
segmentType = line;
smooth = 0;
x = 356;
y = 442;
},
{
segmentType = line;
smooth = 0;
x = 49;
y = 221;
}
);
},
{
points = (
{
segmentType = line;
smooth = 0;
x = 52;
y = 191;
},
{
segmentType = line;
smooth = 0;
x = 52;
y = 180;
},
{
segmentType = line;
smooth = 0;
x = 372;
y = 180;
},
{
segmentType = line;
smooth = 0;
x = 372;
y = 191;
}
);
}
);
lib = {
};
name = greaterequal;
unicodes = (
);
width = 392;
};
};
};
},
{
glyphname = lessequal;
lastChange = "2024-07-30 10:39:23 +0000";
layers = (
{
layerId = "CDDB5E63-2DBC-4745-B175-3A13AC81D5EA";
shapes = (
{
closed = 1;
nodes = (
(68,103,l),
(409,103,l),
(409,157,l),
(68,157,l)
);
},
{
closed = 1;
nodes = (
(150,416,l),
(150,401,l),
(409,602,l),
(316,602,l),
(64,408,l),
(316,215,l),
(409,215,l)
);
}
);
width = 476;
}
);
unicode = 8804;
userData = {
com.schriftgestaltung.Glyphs.ColorIndex = 8;
com.typemytype.robofont.layerData = {
b = {
anchors = (
);
components = (
);
contours = (
{
points = (
{
segmentType = line;
smooth = 0;
x = 57;
y = 442;
},
{
segmentType = line;
smooth = 0;
x = 57;
y = 398;
},
{
segmentType = line;
smooth = 0;
x = 365;
y = 618;
},
{
segmentType = line;
smooth = 0;
x = 325;
y = 618;
},
{
segmentType = line;
smooth = 0;
x = 49;
y = 419;
},
{
segmentType = line;
smooth = 0;
x = 325;
y = 221;
},
{
segmentType = line;
smooth = 0;
x = 365;
y = 221;
}
);
}
);
lib = {
};
name = lessequal;
unicodes = (
);
width = 392;
};
};
};
},
{
glyphname = plusminus;
lastChange = "2024-07-30 10:39:23 +0000";
layers = (
{
layerId = "CDDB5E63-2DBC-4745-B175-3A13AC81D5EA";
shapes = (
{
closed = 1;
nodes = (
(296,628,l),
(296,166,l),
(361,166,l),
(361,628,l)
);
},
{
closed = 1;
nodes = (
(74,381,l),
(583,381,l),
(583,440,l),
(74,440,l)
);
},
{
closed = 1;
nodes = (
(74,110,l),
(583,110,l),
(583,170,l),
(74,170,l)
);
}
);
width = 657;
}
);
unicode = 177;
userData = {
com.schriftgestaltung.Glyphs.ColorIndex = 3;
com.typemytype.robofont.layerData = {
b = {
anchors = (
);
components = (
);
contours = (
{
points = (
{
segmentType = line;
smooth = 0;
x = 290;
y = 630;
},
{
segmentType = line;
smooth = 0;
x = 290;
y = 184;
},
{
segmentType = line;
smooth = 0;
x = 305;
y = 184;
},
{
segmentType = line;
smooth = 0;
x = 305;
y = 630;
}
);
},
{
points = (
{
segmentType = line;
smooth = 0;
x = 43;
y = 392;
},
{
segmentType = line;
smooth = 0;
x = 552;
y = 392;
},
{
segmentType = line;
smooth = 0;
x = 552;
y = 405;
},
{
segmentType = line;
smooth = 0;
x = 43;
y = 405;
}
);
},
{
points = (
{
segmentType = line;
smooth = 0;
x = 43;
y = 150;
},
{
segmentType = line;
smooth = 0;
x = 552;
y = 150;
},
{
segmentType = line;
smooth = 0;
x = 552;
y = 163;
},
{
segmentType = line;
smooth = 0;
x = 43;
y = 163;
}
);
}
);
lib = {
};
name = plusminus;
unicodes = (
);
width = 589;
};
};
};
},
{
glyphname = asciitilde;
lastChange = "2024-07-30 10:39:23 +0000";
layers = (
{
layerId = "CDDB5E63-2DBC-4745-B175-3A13AC81D5EA";
shapes = (
{
closed = 1;
nodes = (
(38,257,c),
(91,257,l),
(97,295,o),
(122,323,o),
(158,323,cs),
(217,323,o),
(252,256,o),
(325,256,cs),
(393,256,o),
(435,299,o),
(449,385,c),
(396,385,l),
(391,346,o),
(366,319,o),
(330,319,cs),
(274,319,o),
(236,386,o),
(162,386,cs),
(96,386,o),
(53,343,o)
);
}
);
width = 487;
}
);
unicode = 126;
userData = {
com.schriftgestaltung.Glyphs.ColorIndex = 4;
};
},
{
glyphname = logicalnot;
lastChange = "2024-07-30 10:39:23 +0000";
layers = (
{
layerId = "CDDB5E63-2DBC-4745-B175-3A13AC81D5EA";
shapes = (
{
closed = 1;
nodes = (
(45,373,l),
(538,373,l),
(538,230,l),
(607,230,l),
(607,430,l),
(45,430,l)
);
}
);
width = 651;
}
);
unicode = 172;
userData = {
com.schriftgestaltung.Glyphs.ColorIndex = 4;
};
},
{
glyphname = infinity;
lastChange = "2024-07-30 10:39:23 +0000";
layers = (
{
layerId = "CDDB5E63-2DBC-4745-B175-3A13AC81D5EA";
shapes = (
{
closed = 1;
nodes = (
(38,347,cs),
(38,257,o),
(99,206,o),
(182,205,cs),
(275,205,o),
(336,278,o),
(360,348,c),
(327,377,l),
(300,309,o),
(248,258,o),
(187,258,cs),
(131,258,o),
(98,292,o),
(98,347,cs),
(98,402,o),
(133,438,o),
(189,438,cs),
(307,438,o),
(342,205,o),
(505,205,c),
(587,205,o),
(653,258,o),
(653,348,cs),
(653,438,o),
(591,489,o),
(509,490,cs),
(416,490,o),
(354,417,o),
(331,347,c),
(364,318,l),
(391,386,o),
(443,437,o),
(504,437,cs),
(560,437,o),
(593,403,o),
(593,348,cs),
(593,293,o),
(558,257,o),
(502,257,c),
(375,257,o),
(345,490,o),
(186,490,cs),
(103,490,o),
(38,437,o)
);
}
);
width = 691;
}
);
unicode = 8734;
userData = {
com.schriftgestaltung.Glyphs.ColorIndex = 8;
};
},
{
glyphname = integral;
lastChange = "2024-07-30 10:39:23 +0000";
layers = (
{
layerId = "CDDB5E63-2DBC-4745-B175-3A13AC81D5EA";
shapes = (
{
closed = 1;
nodes = (
(50,-50,ls),
(44,-104,o),
(31,-121,o),
(-8,-121,cs),
(-30,-121,l),
(-36,-179,l),
(-11,-179,ls),
(73,-179,o),
(110,-139,o),
(120,-50,cs),
(213,786,ls),
(219,837,o),
(239,852,o),
(274,852,cs),
(293,852,l),
(299,911,l),
(276,911,ls),
(196,911,o),
(153,874,o),
(143,786,cs)
);
}
);
width = 253;
}
);
unicode = 8747;
userData = {
com.schriftgestaltung.Glyphs.ColorIndex = 8;
};
},
{
glyphname = Ohm;
lastChange = "2024-07-30 10:39:23 +0000";
layers = (
{
layerId = "CDDB5E63-2DBC-4745-B175-3A13AC81D5EA";
shapes = (
{
closed = 1;
nodes = (
(44,350,c),
(44,210,o),
(114,89,o),
(241,43,c),
(254,56,l),
(58,56,l),
(58,0,l),
(334,0,l),
(334,59,l),
(207,84,o),
(115,191,o),
(114,347,c),
(114,524,o),
(233,644,o),
(394,644,cs),
(552,644,o),
(675,527,o),
(675,347,cs),
(675,191,o),
(582,84,o),
(455,59,c),
(455,0,l),
(730,0,l),
(730,56,l),
(534,56,l),
(548,43,l),
(675,89,o),
(746,210,o),
(746,350,cs),
(746,561,o),
(590,707,o),
(394,707,cs),
(199,707,o),
(44,561,o)
);
}
);
width = 789;
}
);
unicode = 8486;
userData = {
com.schriftgestaltung.Glyphs.ColorIndex = 8;
};
},
{
glyphname = increment;
lastChange = "2024-07-30 10:39:23 +0000";
layers = (
{
layerId = "CDDB5E63-2DBC-4745-B175-3A13AC81D5EA";
shapes = (
{
closed = 1;
nodes = (
(20,55,l),
(20,0,l),
(646,0,l),
(646,55,l),
(362,690,l),
(303,690,l)
);
},
{
closed = 1;
nodes = (
(575,55,l),
(91,55,l),
(332,610,l)
);
}
);
width = 666;
}
);
unicode = 8710;
userData = {
com.schriftgestaltung.Glyphs.ColorIndex = 8;
};
},
{
glyphname = product;
lastChange = "2024-07-30 10:39:23 +0000";
layers = (
{
layerId = "CDDB5E63-2DBC-4745-B175-3A13AC81D5EA";
shapes = (
{
closed = 1;
nodes = (
(47,644,l),
(128,644,l),
(128,0,l),
(198,0,l),
(198,644,l),
(538,644,l),
(538,0,l),
(608,0,l),
(608,644,l),
(689,644,l),
(689,700,l),
(47,700,l)
);
}
);
width = 736;
}
);
unicode = 8719;
userData = {
com.schriftgestaltung.Glyphs.ColorIndex = 8;
};
},
{
glyphname = summation;
lastChange = "2024-07-30 10:39:23 +0000";
layers = (
{
layerId = "CDDB5E63-2DBC-4745-B175-3A13AC81D5EA";
shapes = (
{
closed = 1;
nodes = (
(40,610,l),
(306,310,l),
(40,11,l),
(40,-69,l),
(419,-69,l),
(419,-14,l),
(80,-14,l),
(83,-31,l),
(368,284,l),
(368,340,l),
(83,652,l),
(87,635,l),
(419,635,l),
(419,690,l),
(40,690,l)
);
}
);
width = 436;
}
);
unicode = 8721;
userData = {
com.schriftgestaltung.Glyphs.ColorIndex = 8;
};
},
{
glyphname = radical;
lastChange = "2024-07-30 10:39:23 +0000";
layers = (
{
layerId = "CDDB5E63-2DBC-4745-B175-3A13AC81D5EA";
shapes = (
{
closed = 1;
nodes = (
(240,29,l),
(259,23,l),
(138,236,l),
(18,167,l),
(40,128,l),
(101,163,l),
(219,-44,l),
(253,-44,l),
(734,859,l),
(681,859,l)
);
}
);
width = 750;
}
);
unicode = 8730;
userData = {
com.schriftgestaltung.Glyphs.ColorIndex = 8;
};
},
{
glyphname = micro;
lastChange = "2024-07-30 10:39:23 +0000";
layers = (
{
layerId = "CDDB5E63-2DBC-4745-B175-3A13AC81D5EA";
shapes = (
{
closed = 1;
nodes = (
(558,546,l),
(488,546,l),
(488,0,l),
(558,0,l)
);
},
{
closed = 1;
nodes = (
(488,248,l),
(488,115,o),
(419,51,o),
(320,51,c),
(219,51,o),
(149,116,o),
(149,252,c),
(149,546,l),
(80,546,l),
(80,-258,l),
(149,-258,l),
(149,106,l),
(141,101,l),
(168,17,o),
(235,-10,o),
(301,-10,c),
(402,-10,o),
(490,51,o),
(504,181,c)
);
}
);
width = 638;
}
);
unicode = 181;
userData = {
com.schriftgestaltung.Glyphs.ColorIndex = 4;
};
},
{
glyphname = partialdiff;
lastChange = "2024-07-30 10:39:23 +0000";
layers = (
{
layerId = "CDDB5E63-2DBC-4745-B175-3A13AC81D5EA";
shapes = (
{
closed = 1;
nodes = (
(436,328,cs),
(436,181,o),
(355,50,o),
(235,50,cs),
(166,50,o),
(111,101,o),
(111,216,cs),
(111,374,o),
(193,497,o),
(308,497,cs),
(387,497,o),
(436,443,o)
);
},
{
closed = 1;
nodes = (
(40,216,cs),
(40,61,o),
(125,-10,o),
(228,-10,cs),
(393,-10,o),
(519,153,o),
(519,414,cs),
(519,628,o),
(435,740,o),
(292,740,cs),
(262,740,o),
(234,736,o),
(201,727,c),
(201,683,l),
(231,691,o),
(257,696,o),
(283,696,cs),
(407,696,o),
(447,582,o),
(448,432,c),
(428,528,o),
(372,556,o),
(305,556,cs),
(145,556,o),
(40,391,o)
);
}
);
width = 559;
}
);
unicode = 8706;
userData = {
com.schriftgestaltung.Glyphs.ColorIndex = 8;
};
},
{
glyphname = percent;
lastChange = "2024-07-30 10:39:23 +0000";
layers = (
{
layerId = "CDDB5E63-2DBC-4745-B175-3A13AC81D5EA";
shapes = (
{
closed = 1;
nodes = (
(43,567,c),
(43,479,o),
(103,423,o),
(183,423,c),
(264,423,o),
(324,479,o),
(324,567,c),
(324,654,o),
(264,710,o),
(183,710,c),
(103,710,o),
(43,654,o)
);
},
{
closed = 1;
nodes = (
(183,665,c),
(233,665,o),
(267,630,o),
(267,567,c),
(267,504,o),
(233,468,o),
(183,468,c),
(133,468,o),
(100,504,o),
(100,567,c),
(100,630,o),
(133,665,o)
);
},
{
closed = 1;
nodes = (
(122,0,l),
(193,0,l),
(603,700,l),
(533,700,l)
);
},
{
closed = 1;
nodes = (
(403,133,c),
(403,45,o),
(463,-11,o),
(543,-11,c),
(623,-11,o),
(683,45,o),
(683,133,c),
(683,221,o),
(623,277,o),
(543,277,c),
(463,277,o),
(403,221,o)
);
},
{
closed = 1;
nodes = (
(543,231,c),
(593,231,o),
(626,196,o),
(626,133,c),
(626,70,o),
(593,35,o),
(543,35,c),
(493,35,o),
(459,70,o),
(459,133,c),
(459,196,o),
(493,231,o)
);
}
);
width = 726;
}
);
unicode = 37;
userData = {
com.schriftgestaltung.Glyphs.ColorIndex = 3;
};
},
{
glyphname = perthousand;
lastChange = "2024-07-30 10:39:23 +0000";
layers = (
{
layerId = "CDDB5E63-2DBC-4745-B175-3A13AC81D5EA";
shapes = (
{
closed = 1;
nodes = (
(41,567,c),
(41,480,o),
(100,424,o),
(181,424,c),
(261,424,o),
(321,480,o),
(321,567,c),
(321,652,o),
(261,708,o),
(181,708,c),
(100,708,o),
(41,652,o)
);
},
{
closed = 1;
nodes = (
(181,663,c),
(231,663,o),
(264,628,o),
(264,567,c),
(264,505,o),
(231,469,o),
(181,469,c),
(131,469,o),
(97,505,o),
(97,567,c),
(97,628,o),
(131,663,o)
);
},
{
closed = 1;
nodes = (
(76,0,l),
(145,0,l),
(556,700,l),
(486,700,l)
);
},
{
closed = 1;
nodes = (
(311,133,c),
(311,47,o),
(371,-9,o),
(451,-9,c),
(531,-9,o),
(591,47,o),
(591,133,c),
(591,219,o),
(531,275,o),
(451,275,c),
(371,275,o),
(311,219,o)
);
},
{
closed = 1;
nodes = (
(451,230,c),
(501,230,o),
(534,195,o),
(534,133,c),
(534,72,o),
(501,37,o),
(451,37,c),
(401,37,o),
(367,72,o),
(367,133,c),
(367,195,o),
(401,230,o)
);
},
{
closed = 1;
nodes = (
(632,133,c),
(632,47,o),
(692,-9,o),
(772,-9,c),
(853,-9,o),
(912,47,o),
(912,133,c),
(912,219,o),
(853,275,o),
(772,275,c),
(692,275,o),
(632,219,o)
);
},
{
closed = 1;
nodes = (
(772,230,c),
(822,230,o),
(856,195,o),
(856,133,c),
(856,72,o),
(822,37,o),
(772,37,c),
(722,37,o),
(689,72,o),
(689,133,c),
(689,195,o),
(722,230,o)
);
}
);
width = 953;
}
);
unicode = 8240;
userData = {
com.schriftgestaltung.Glyphs.ColorIndex = 4;
};
},
{
glyphname = lozenge;
lastChange = "2024-07-30 10:39:23 +0000";
layers = (
{
layerId = "CDDB5E63-2DBC-4745-B175-3A13AC81D5EA";
shapes = (
{
closed = 1;
nodes = (
(40,349,l),
(275,113,l),
(511,349,l),
(276,585,l)
);
},
{
closed = 1;
nodes = (
(435,349,l),
(275,189,l),
(117,349,l),
(276,509,l)
);
}
);
width = 551;
}
);
unicode = 9674;
userData = {
com.schriftgestaltung.Glyphs.ColorIndex = 8;
};
},
{
glyphname = at;
lastChange = "2024-07-30 10:39:23 +0000";
layers = (
{
layerId = "CDDB5E63-2DBC-4745-B175-3A13AC81D5EA";
shapes = (
{
closed = 1;
nodes = (
(611,47,o),
(643,-6,o),
(720,-6,cs),
(852,-6,o),
(927,151,o),
(927,303,cs),
(927,500,o),
(787,636,o),
(567,636,cs),
(281,636,o),
(75,417,o),
(75,136,cs),
(75,-67,o),
(217,-195,o),
(428,-195,cs),
(495,-195,o),
(560,-183,o),
(619,-159,c),
(608,-110,l),
(558,-133,o),
(499,-144,o),
(443,-144,cs),
(253,-144,o),
(133,-40,o),
(134,143,cs),
(134,389,o),
(314,585,o),
(558,585,cs),
(752,585,o),
(869,477,o),
(869,299,cs),
(869,186,o),
(820,43,o),
(730,43,cs),
(679,43,o),
(665,84,o),
(675,143,cs),
(726,434,l),
(665,434,l),
(642,301,l),
(662,313,l),
(654,400,o),
(602,446,o),
(518,446,cs),
(374,446,o),
(276,312,o),
(276,165,cs),
(276,61,o),
(335,-6,o),
(437,-6,cs),
(523,-6,o),
(604,47,o),
(639,133,c),
(623,157,l),
(619,122,ls)
);
},
{
closed = 1;
nodes = (
(605,391,o),
(643,322,o),
(633,238,c),
(621,126,o),
(547,49,o),
(457,49,cs),
(381,49,o),
(341,99,o),
(341,175,cs),
(341,283,o),
(408,391,o),
(518,391,cs)
);
}
);
width = 1002;
}
);
unicode = 64;
userData = {
com.schriftgestaltung.Glyphs.ColorIndex = 4;
};
},
{
glyphname = ampersand;
lastChange = "2024-07-30 10:39:23 +0000";
layers = (
{
layerId = "CDDB5E63-2DBC-4745-B175-3A13AC81D5EA";
shapes = (
{
closed = 1;
nodes = (
(479,555,l),
(483,647,o),
(413,710,o),
(313,710,cs),
(206,710,o),
(137,648,o),
(137,560,cs),
(137,501,o),
(163,456,o),
(223,395,cs),
(612,0,l),
(703,0,l),
(280,428,ls),
(232,479,o),
(207,516,o),
(207,561,cs),
(207,614,o),
(248,652,o),
(310,652,cs),
(364,652,o),
(410,618,o),
(409,555,c)
);
},
{
closed = 1;
nodes = (
(251,432,l),
(222,422,ls),
(103,381,o),
(39,303,o),
(39,200,cs),
(39,72,o),
(136,-12,o),
(277,-12,cs),
(422,-12,o),
(515,64,o),
(611,231,cs),
(687,362,l),
(612,362,l),
(548,255,ls),
(465,114,o),
(392,49,o),
(277,49,cs),
(178,49,o),
(109,114,o),
(109,202,cs),
(109,280,o),
(155,337,o),
(253,372,cs),
(290,385,l)
);
}
);
width = 719;
}
);
unicode = 38;
userData = {
com.schriftgestaltung.Glyphs.ColorIndex = 4;
com.typemytype.robofont.layerData = {
b = {
anchors = (
);
components = (
);
contours = (
{
points = (
{
segmentType = curve;
smooth = 1;
x = 61;
y = 192;
},
{
smooth = 0;
x = 61;
y = 306;
},
{
smooth = 0;
x = 135.7746;
y = 365;
},
{
segmentType = curve;
smooth = 1;
x = 229;
y = 365;
},
{
smooth = 0;
x = 306.57141;
y = 365;
},
{
smooth = 0;
x = 410;
y = 279.328;
},
{
segmentType = curve;
smooth = 1;
x = 410;
y = 189;
},
{
smooth = 0;
x = 410;
y = 89.0702;
},
{
smooth = 0;
x = 333;
y = 11;
},
{
segmentType = curve;
smooth = 1;
x = 240;
y = 11;
},
{
smooth = 0;
x = 127.5793;
y = 11;
},
{
smooth = 0;
x = 61;
y = 90;
}
);
},
{
points = (
{
segmentType = curve;
smooth = 1;
x = 175;
y = 570;
},
{
smooth = 0;
x = 175;
y = 485;
},
{
smooth = 0;
x = 220;
y = 473;
},
{
segmentType = curve;
smooth = 1;
x = 256;
y = 426;
},
{
segmentType = line;
smooth = 0;
x = 302;
y = 367;
},
{
smooth = 0;
x = 286.29559;
y = 375.97391;
},
{
smooth = 0;
x = 259.12701;
y = 383;
},
{
segmentType = curve;
smooth = 1;
x = 229;
y = 383;
},
{
smooth = 0;
x = 114.9672;
y = 383;
},
{
smooth = 0;
x = 41;
y = 307;
},
{
segmentType = curve;
smooth = 1;
x = 41;
y = 192;
},
{
smooth = 0;
x = 41;
y = 66;
},
{
smooth = 0;
x = 130.7663;
y = -7;
},
{
segmentType = curve;
smooth = 1;
x = 240;
y = -7;
},
{
smooth = 0;
x = 355;
y = -7;
},
{
smooth = 0;
x = 435.96179;
y = 84.1183;
},
{
segmentType = curve;
smooth = 0;
x = 432;
y = 200;
},
{
segmentType = line;
smooth = 0;
x = 425;
y = 206;
},
{
segmentType = line;
smooth = 0;
x = 588;
y = 0;
},
{
segmentType = line;
smooth = 0;
x = 621;
y = 0;
},
{
segmentType = line;
smooth = 1;
x = 352;
y = 341;
},
{
smooth = 0;
x = 285;
y = 425;
},
{
smooth = 0;
x = 195;
y = 505;
},
{
segmentType = curve;
smooth = 1;
x = 195;
y = 570;
},
{
smooth = 0;
x = 195;
y = 639;
},
{
smooth = 0;
x = 248;
y = 693;
},
{
segmentType = curve;
smooth = 0;
x = 331;
y = 693;
},
{
smooth = 0;
x = 434;
y = 693;
},
{
smooth = 0;
x = 477;
y = 632;
},
{
segmentType = curve;
smooth = 0;
x = 477;
y = 531;
},
{
segmentType = line;
smooth = 0;
x = 497;
y = 531;
},
{
smooth = 0;
x = 497;
y = 613;
},
{
smooth = 0;
x = 464;
y = 711;
},
{
segmentType = curve;
smooth = 0;
x = 331;
y = 711;
},
{
smooth = 0;
x = 233;
y = 711;
},
{
smooth = 0;
x = 175;
y = 642;
}
);
}
);
lib = {
};
name = ampersand;
unicodes = (
);
width = 672;
};
};
};
},
{
glyphname = paragraph;
lastChange = "2024-07-30 10:39:23 +0000";
layers = (
{
layerId = "CDDB5E63-2DBC-4745-B175-3A13AC81D5EA";
shapes = (
{
closed = 1;
nodes = (
(264,690,ls),
(104,690,o),
(28,604,o),
(28,489,cs),
(28,375,o),
(102,289,o),
(264,289,cs),
(272,289,l),
(272,0,l),
(335,0,l),
(335,634,l),
(421,634,l),
(421,0,l),
(484,0,l),
(484,690,l)
);
}
);
width = 564;
}
);
unicode = 182;
userData = {
com.schriftgestaltung.Glyphs.ColorIndex = 4;
};
},
{
glyphname = section;
lastChange = "2024-07-30 10:39:23 +0000";
layers = (
{
layerId = "CDDB5E63-2DBC-4745-B175-3A13AC81D5EA";
shapes = (
{
closed = 1;
nodes = (
(78,574,cs),
(78,483,o),
(167,446,o),
(252,419,c),
(258,440,l),
(122,436,o),
(50,358,o),
(50,270,c),
(50,165,o),
(136,120,o),
(261,83,cs),
(385,46,o),
(424,17,o),
(424,-38,cs),
(424,-101,o),
(375,-131,o),
(300,-131,c),
(203,-131,o),
(164,-76,o),
(157,-16,c),
(87,-16,l),
(94,-122,o),
(181,-182,o),
(300,-182,c),
(423,-182,o),
(494,-115,o),
(494,-32,cs),
(494,58,o),
(407,95,o),
(320,122,c),
(314,99,l),
(451,107,o),
(522,183,o),
(522,270,c),
(522,376,o),
(436,420,o),
(312,457,cs),
(187,495,o),
(148,524,o),
(148,580,cs),
(148,642,o),
(198,672,o),
(274,672,c),
(370,672,o),
(410,614,o),
(415,557,c),
(485,557,l),
(478,663,o),
(393,722,o),
(274,722,c),
(151,722,o),
(78,656,o)
);
},
{
closed = 1;
nodes = (
(451,270,c),
(451,204,o),
(394,146,o),
(289,146,cs),
(184,146,o),
(121,200,o),
(121,270,c),
(121,336,o),
(179,394,o),
(284,394,cs),
(388,394,o),
(451,342,o)
);
}
);
width = 572;
}
);
unicode = 167;
userData = {
com.schriftgestaltung.Glyphs.ColorIndex = 4;
};
},
{
glyphname = copyright;
lastChange = "2024-07-30 10:39:23 +0000";
layers = (
{
layerId = "CDDB5E63-2DBC-4745-B175-3A13AC81D5EA";
shapes = (
{
closed = 1;
nodes = (
(193,703,o),
(53,557,o),
(53,350,c),
(53,143,o),
(193,-4,o),
(398,-4,cs),
(603,-4,o),
(743,143,o),
(743,350,c),
(743,557,o),
(603,703,o),
(398,703,cs)
);
},
{
closed = 1;
nodes = (
(588,670,o),
(707,539,o),
(707,350,c),
(707,162,o),
(588,30,o),
(398,30,cs),
(208,30,o),
(89,162,o),
(89,350,c),
(89,539,o),
(208,670,o),
(398,670,cs)
);
},
{
closed = 1;
nodes = (
(496,584,o),
(576,530,o),
(602,433,c),
(537,433,l),
(516,498,o),
(462,532,o),
(398,532,c),
(315,532,o),
(245,470,o),
(245,350,c),
(245,230,o),
(315,169,o),
(398,169,c),
(465,169,o),
(515,203,o),
(537,267,c),
(602,267,l),
(576,174,o),
(496,117,o),
(398,117,c),
(280,117,o),
(182,202,o),
(182,351,c),
(182,498,o),
(280,584,o),
(398,584,c)
);
}
);
width = 796;
}
);
unicode = 169;
userData = {
com.schriftgestaltung.Glyphs.ColorIndex = 4;
};
},
{
glyphname = registered;
lastChange = "2024-07-30 10:39:23 +0000";
layers = (
{
layerId = "CDDB5E63-2DBC-4745-B175-3A13AC81D5EA";
shapes = (
{
closed = 1;
nodes = (
(54,392,o),
(136,307,o),
(252,307,cs),
(367,307,o),
(449,392,o),
(449,507,cs),
(449,622,o),
(367,708,o),
(252,708,cs),
(136,708,o),
(54,622,o),
(54,507,cs)
);
},
{
closed = 1;
nodes = (
(90,604,o),
(154,674,o),
(252,674,cs),
(349,674,o),
(413,604,o),
(413,507,cs),
(413,410,o),
(349,340,o),
(252,340,cs),
(154,340,o),
(90,410,o),
(90,507,cs)
);
},
{
closed = 1;
nodes = (
(311,616,o),
(339,591,o),
(339,551,cs),
(339,511,o),
(311,486,o),
(267,486,cs),
(217,486,l),
(217,401,l),
(174,401,l),
(174,616,l),
(267,616,ls)
);
},
{
closed = 1;
nodes = (
(231,500,l),
(278,500,l),
(346,402,l),
(295,401,l)
);
},
{
closed = 1;
nodes = (
(217,577,l),
(217,522,l),
(264,522,ls),
(282,522,o),
(296,530,o),
(296,550,cs),
(296,569,o),
(282,577,o),
(264,577,cs)
);
}
);
width = 502;
}
);
unicode = 174;
userData = {
com.schriftgestaltung.Glyphs.ColorIndex = 4;
};
},
{
glyphname = trademark;
lastChange = "2024-07-30 10:39:23 +0000";
layers = (
{
layerId = "CDDB5E63-2DBC-4745-B175-3A13AC81D5EA";
shapes = (
{
closed = 1;
nodes = (
(27,658,l),
(118,658,l),
(117,352,l),
(175,352,l),
(174,658,l),
(265,658,l),
(265,704,l),
(27,704,l)
);
},
{
closed = 1;
nodes = (
(320,352,l),
(372,352,l),
(372,658,l),
(355,664,l),
(489,352,l),
(531,352,l),
(668,664,l),
(649,658,l),
(650,352,l),
(703,352,l),
(703,704,l),
(635,704,l),
(500,394,l),
(522,394,l),
(391,704,l),
(320,704,l)
);
}
);
width = 754;
}
);
unicode = 8482;
userData = {
com.schriftgestaltung.Glyphs.ColorIndex = 4;
};
},
{
glyphname = degree;
lastChange = "2024-07-30 10:39:23 +0000";
layers = (
{
layerId = "CDDB5E63-2DBC-4745-B175-3A13AC81D5EA";
shapes = (
{
closed = 1;
nodes = (
(29,522,c),
(29,417,o),
(96,347,o),
(196,347,c),
(294,347,o),
(365,417,o),
(365,522,c),
(365,628,o),
(295,697,o),
(197,697,c),
(99,697,o),
(29,628,o)
);
},
{
closed = 1;
nodes = (
(307,522,c),
(307,437,o),
(258,391,o),
(196,391,c),
(132,391,o),
(86,437,o),
(86,522,c),
(86,607,o),
(134,654,o),
(196,654,c),
(259,654,o),
(307,607,o)
);
}
);
width = 394;
}
);
unicode = 176;
userData = {
com.schriftgestaltung.Glyphs.ColorIndex = 4;
};
},
{
glyphname = bar;
lastChange = "2024-07-30 10:39:23 +0000";
layers = (
{
layerId = "CDDB5E63-2DBC-4745-B175-3A13AC81D5EA";
shapes = (
{
closed = 1;
nodes = (
(96,790,l),
(96,-100,l),
(166,-100,l),
(166,790,l)
);
}
);
width = 261;
}
);
unicode = 124;
userData = {
com.schriftgestaltung.Glyphs.ColorIndex = 4;
};
},
{
glyphname = brokenbar;
lastChange = "2024-07-30 10:39:23 +0000";
layers = (
{
layerId = "CDDB5E63-2DBC-4745-B175-3A13AC81D5EA";
shapes = (
{
closed = 1;
nodes = (
(96,270,l),
(96,-100,l),
(166,-100,l),
(166,270,l)
);
},
{
closed = 1;
nodes = (
(166,420,l),
(166,790,l),
(96,790,l),
(96,420,l)
);
}
);
width = 261;
}
);
unicode = 166;
userData = {
com.schriftgestaltung.Glyphs.ColorIndex = 4;
};
},
{
glyphname = dagger;
lastChange = "2024-07-30 10:39:23 +0000";
layers = (
{
layerId = "CDDB5E63-2DBC-4745-B175-3A13AC81D5EA";
shapes = (
{
closed = 1;
nodes = (
(283,539,l),
(290,779,l),
(221,779,l),
(228,539,l),
(40,546,l),
(40,489,l),
(228,496,l),
(221,-258,l),
(290,-258,l),
(283,496,l),
(471,489,l),
(471,546,l)
);
}
);
width = 511;
}
);
unicode = 8224;
userData = {
com.schriftgestaltung.Glyphs.ColorIndex = 4;
};
},
{
glyphname = daggerdbl;
lastChange = "2024-07-30 10:39:23 +0000";
layers = (
{
layerId = "CDDB5E63-2DBC-4745-B175-3A13AC81D5EA";
shapes = (
{
closed = 1;
nodes = (
(472,546,l),
(284,539,l),
(290,779,l),
(221,779,l),
(229,539,l),
(41,546,l),
(41,489,l),
(229,496,l),
(229,25,l),
(41,32,l),
(41,-25,l),
(229,-18,l),
(221,-258,l),
(290,-258,l),
(284,-18,l),
(472,-25,l),
(472,32,l),
(284,25,l),
(284,496,l),
(472,489,l)
);
}
);
width = 512;
}
);
unicode = 8225;
userData = {
com.schriftgestaltung.Glyphs.ColorIndex = 4;
};
},
{
glyphname = estimated;
lastChange = "2024-07-30 10:39:23 +0000";
layers = (
{
layerId = "CDDB5E63-2DBC-4745-B175-3A13AC81D5EA";
shapes = (
{
closed = 1;
nodes = (
(686,137,c),
(650,175,l),
(567,93,o),
(494,43,o),
(391,43,cs),
(288,43,o),
(223,79,o),
(170,149,c),
(170,313,l),
(714,313,l),
(714,374,ls),
(714,540,o),
(596,697,o),
(382,697,cs),
(168,697,o),
(50,534,o),
(50,329,cs),
(50,113,o),
(196,-7,o),
(391,-7,cs),
(506,-7,o),
(604,49,o)
);
},
{
closed = 1;
nodes = (
(170,371,l),
(170,538,l),
(219,613,o),
(295,646,o),
(382,646,cs),
(469,646,o),
(540,611,o),
(583,550,c),
(583,371,l)
);
}
);
width = 764;
}
);
unicode = 8494;
userData = {
com.schriftgestaltung.Glyphs.ColorIndex = 8;
};
},
{
glyphname = asciicircum;
lastChange = "2024-07-30 10:39:23 +0000";
layers = (
{
layerId = "CDDB5E63-2DBC-4745-B175-3A13AC81D5EA";
shapes = (
{
closed = 1;
nodes = (
(496,171,l),
(569,171,l),
(335,690,l),
(272,690,l),
(38,171,l),
(110,171,l),
(304,602,l)
);
}
);
width = 606;
}
);
unicode = 94;
userData = {
com.schriftgestaltung.Glyphs.ColorIndex = 3;
};
},
{
glyphname = acute;
lastChange = "2024-07-30 10:39:23 +0000";
layers = (
{
anchors = (
{
name = _top;
pos = (137,546);
}
);
layerId = "CDDB5E63-2DBC-4745-B175-3A13AC81D5EA";
shapes = (
{
closed = 1;
nodes = (
(24,642,l),
(24,588,l),
(229,707,l),
(229,770,l)
);
}
);
width = 253;
}
);
unicode = 180;
userData = {
com.schriftgestaltung.Glyphs.ColorIndex = 4;
com.typesupply.AccentFactory.yCoordinates = {
below = {
name = xHeight;
type = fontInfo;
};
};
};
},
{
glyphname = breve;
lastChange = "2024-07-30 10:39:23 +0000";
layers = (
{
anchors = (
{
name = _top;
pos = (159,546);
}
);
layerId = "CDDB5E63-2DBC-4745-B175-3A13AC81D5EA";
shapes = (
{
closed = 1;
nodes = (
(295,729,cs),
(295,742,l),
(250,742,l),
(250,691,o),
(223,662,o),
(159,662,c),
(95,662,o),
(68,691,o),
(68,742,c),
(24,742,l),
(24,729,ls),
(24,662,o),
(69,606,o),
(159,606,c),
(249,606,o),
(295,662,o)
);
}
);
width = 319;
}
);
unicode = 728;
userData = {
com.schriftgestaltung.Glyphs.ColorIndex = 4;
com.typesupply.AccentFactory.yCoordinates = {
below = {
name = xHeight;
type = fontInfo;
};
};
};
},
{
glyphname = caron;
lastChange = "2024-07-30 10:39:23 +0000";
layers = (
{
anchors = (
{
name = _top;
pos = (158,546);
}
);
layerId = "CDDB5E63-2DBC-4745-B175-3A13AC81D5EA";
shapes = (
{
closed = 1;
nodes = (
(158,658,l),
(24,741,l),
(24,685,l),
(158,603,l),
(292,685,l),
(292,741,l)
);
}
);
width = 316;
}
);
unicode = 711;
userData = {
com.schriftgestaltung.Glyphs.ColorIndex = 4;
com.typesupply.AccentFactory.yCoordinates = {
below = {
name = xHeight;
type = fontInfo;
};
};
};
},
{
glyphname = cedilla;
lastChange = "2024-07-30 10:39:23 +0000";
layers = (
{
anchors = (
{
name = _bottom;
pos = (85,0);
}
);
layerId = "CDDB5E63-2DBC-4745-B175-3A13AC81D5EA";
shapes = (
{
closed = 1;
nodes = (
(113,7,l),
(64,7,l),
(64,-112,l),
(110,-112,ls),
(160,-112,o),
(182,-129,o),
(182,-160,cs),
(182,-194,o),
(160,-211,o),
(110,-211,cs),
(24,-211,l),
(24,-258,l),
(124,-258,ls),
(194,-258,o),
(241,-220,o),
(241,-160,cs),
(241,-98,o),
(191,-65,o),
(113,-67,c)
);
}
);
width = 265;
}
);
unicode = 184;
userData = {
com.schriftgestaltung.Glyphs.ColorIndex = 4;
com.typesupply.AccentFactory.yCoordinates = {
top = {
name = origin;
type = glyphMetric;
};
};
};
},
{
glyphname = circumflex;
lastChange = "2024-07-30 10:39:23 +0000";
layers = (
{
anchors = (
{
name = _top;
pos = (158,546);
}
);
layerId = "CDDB5E63-2DBC-4745-B175-3A13AC81D5EA";
shapes = (
{
closed = 1;
nodes = (
(292,661,l),
(158,743,l),
(24,661,l),
(24,604,l),
(158,688,l),
(292,604,l)
);
}
);
width = 316;
}
);
unicode = 710;
userData = {
com.schriftgestaltung.Glyphs.ColorIndex = 4;
com.typesupply.AccentFactory.yCoordinates = {
below = {
name = xHeight;
type = fontInfo;
};
};
};
},
{
glyphname = dieresis;
lastChange = "2024-07-30 10:39:23 +0000";
layers = (
{
anchors = (
{
name = _top;
pos = (157,546);
}
);
layerId = "CDDB5E63-2DBC-4745-B175-3A13AC81D5EA";
shapes = (
{
closed = 1;
nodes = (
(81,623,cs),
(106,623,o),
(127,644,o),
(127,669,cs),
(127,694,o),
(106,715,o),
(81,715,cs),
(55,715,o),
(35,694,o),
(35,669,cs),
(35,644,o),
(55,623,o)
);
},
{
closed = 1;
nodes = (
(235,623,cs),
(260,623,o),
(280,644,o),
(280,669,cs),
(280,694,o),
(260,715,o),
(235,715,cs),
(209,715,o),
(189,694,o),
(189,669,cs),
(189,644,o),
(209,623,o)
);
}
);
width = 315;
}
);
unicode = 168;
userData = {
com.schriftgestaltung.Glyphs.ColorIndex = 4;
com.typesupply.AccentFactory.yCoordinates = {
below = {
name = xHeight;
type = fontInfo;
};
};
};
},
{
glyphname = dotaccent;
lastChange = "2024-07-30 10:39:23 +0000";
layers = (
{
anchors = (
{
name = _top;
pos = (73,556);
}
);
layerId = "CDDB5E63-2DBC-4745-B175-3A13AC81D5EA";
shapes = (
{
closed = 1;
nodes = (
(73,623,cs),
(98,623,o),
(119,644,o),
(119,669,cs),
(119,694,o),
(98,715,o),
(73,715,cs),
(48,715,o),
(27,694,o),
(27,669,cs),
(27,644,o),
(48,623,o)
);
}
);
width = 147;
}
);
unicode = 729;
userData = {
com.schriftgestaltung.Glyphs.ColorIndex = 4;
com.typesupply.AccentFactory.yCoordinates = {
below = {
name = xHeight;
type = fontInfo;
};
};
};
},
{
glyphname = grave;
lastChange = "2024-07-30 10:39:23 +0000";
layers = (
{
anchors = (
{
name = _top;
pos = (137,546);
}
);
layerId = "CDDB5E63-2DBC-4745-B175-3A13AC81D5EA";
shapes = (
{
closed = 1;
nodes = (
(24,707,l),
(229,588,l),
(229,642,l),
(24,770,l)
);
}
);
width = 260;
}
);
unicode = 96;
userData = {
com.schriftgestaltung.Glyphs.ColorIndex = 4;
com.typesupply.AccentFactory.yCoordinates = {
below = {
name = xHeight;
type = fontInfo;
};
};
};
},
{
glyphname = hungarumlaut;
lastChange = "2024-07-30 10:39:23 +0000";
layers = (
{
anchors = (
{
name = _top;
pos = (126,546);
}
);
layerId = "CDDB5E63-2DBC-4745-B175-3A13AC81D5EA";
shapes = (
{
closed = 1;
nodes = (
(89,740,l),
(24,601,l),
(73,601,l),
(152,740,l)
);
},
{
closed = 1;
nodes = (
(231,740,l),
(162,601,l),
(210,601,l),
(294,740,l)
);
}
);
width = 325;
}
);
unicode = 733;
userData = {
com.schriftgestaltung.Glyphs.ColorIndex = 4;
com.typesupply.AccentFactory.yCoordinates = {
below = {
name = xHeight;
type = fontInfo;
};
};
};
},
{
glyphname = macron;
lastChange = "2024-07-30 10:39:23 +0000";
layers = (
{
anchors = (
{
name = _top;
pos = (194,546);
}
);
layerId = "CDDB5E63-2DBC-4745-B175-3A13AC81D5EA";
shapes = (
{
closed = 1;
nodes = (
(24,646,l),
(363,646,l),
(363,700,l),
(24,700,l)
);
}
);
width = 387;
}
);
unicode = 175;
userData = {
com.schriftgestaltung.Glyphs.ColorIndex = 4;
com.typesupply.AccentFactory.yCoordinates = {
below = {
name = xHeight;
type = fontInfo;
};
};
};
},
{
glyphname = ogonek;
lastChange = "2024-07-30 10:39:23 +0000";
layers = (
{
anchors = (
{
name = _ogonek;
pos = (211,0);
}
);
layerId = "CDDB5E63-2DBC-4745-B175-3A13AC81D5EA";
shapes = (
{
closed = 1;
nodes = (
(137,13,ls),
(58,-23,o),
(29,-64,o),
(29,-109,cs),
(29,-176,o),
(85,-201,o),
(142,-201,cs),
(166,-201,o),
(192,-196,o),
(214,-188,c),
(214,-139,l),
(192,-148,o),
(169,-153,o),
(150,-153,cs),
(113,-153,o),
(88,-135,o),
(88,-102,cs),
(88,-76,o),
(104,-52,o),
(151,-29,cs),
(211,0,l),
(192,38,l)
);
}
);
width = 248;
}
);
unicode = 731;
userData = {
com.schriftgestaltung.Glyphs.ColorIndex = 8;
com.typesupply.AccentFactory.yCoordinates = {
top = {
name = origin;
type = glyphMetric;
};
};
};
},
{
glyphname = ring;
lastChange = "2024-07-30 10:39:23 +0000";
layers = (
{
anchors = (
{
name = _top;
pos = (124,546);
}
);
layerId = "CDDB5E63-2DBC-4745-B175-3A13AC81D5EA";
shapes = (
{
closed = 1;
nodes = (
(226,772,o),
(181,810,o),
(124,810,cs),
(69,810,o),
(22,772,o),
(22,710,cs),
(22,648,o),
(69,610,o),
(124,610,cs),
(181,610,o),
(226,648,o),
(226,710,cs)
);
},
{
closed = 1;
nodes = (
(183,673,o),
(157,649,o),
(124,649,cs),
(92,649,o),
(66,673,o),
(66,710,cs),
(66,748,o),
(92,771,o),
(124,771,cs),
(157,771,o),
(183,748,o),
(183,710,cs)
);
}
);
width = 248;
}
);
unicode = 730;
userData = {
com.schriftgestaltung.Glyphs.ColorIndex = 4;
com.typesupply.AccentFactory.yCoordinates = {
below = {
name = xHeight;
type = fontInfo;
};
};
};
},
{
glyphname = tilde;
lastChange = "2024-07-30 10:39:23 +0000";
layers = (
{
anchors = (
{
name = _top;
pos = (156,546);
}
);
layerId = "CDDB5E63-2DBC-4745-B175-3A13AC81D5EA";
shapes = (
{
closed = 1;
nodes = (
(24,606,c),
(67,606,l),
(71,637,o),
(87,651,o),
(109,651,cs),
(150,651,o),
(168,604,o),
(221,604,cs),
(268,604,o),
(304,638,o),
(310,697,c),
(268,697,l),
(264,667,o),
(246,652,o),
(224,652,cs),
(181,652,o),
(164,699,o),
(112,699,cs),
(65,699,o),
(32,667,o)
);
}
);
width = 334;
}
);
unicode = 732;
userData = {
com.schriftgestaltung.Glyphs.ColorIndex = 4;
com.typesupply.AccentFactory.yCoordinates = {
below = {
name = xHeight;
type = fontInfo;
};
};
};
},
{
glyphname = turkishlira;
lastChange = "2024-07-30 10:39:23 +0000";
layers = (
{
layerId = "CDDB5E63-2DBC-4745-B175-3A13AC81D5EA";
shapes = (
{
closed = 1;
nodes = (
(280,702,l),
(280,53,l),
(307,47,o),
(333,45,o),
(357,45,cs),
(558,45,o),
(645,172,o),
(645,406,c),
(717,406,l),
(717,127,o),
(609,-20,o),
(357,-20,cs),
(311,-20,o),
(261,-13,o),
(208,-1,c),
(208,702,l)
);
},
{
closed = 1;
nodes = (
(36,369,l),
(36,420,l),
(470,534,l),
(470,482,l)
);
},
{
closed = 1;
nodes = (
(38,204,l),
(38,256,l),
(468,366,l),
(468,314,l)
);
}
);
width = 812;
}
);
},
{
glyphname = Schwa;
lastChange = "2024-07-30 10:39:23 +0000";
layers = (
{
anchors = (
{
name = top;
pos = (398,707);
}
);
layerId = "CDDB5E63-2DBC-4745-B175-3A13AC81D5EA";
shapes = (
{
closed = 1;
nodes = (
(653,325,ls),
(653,154,o),
(541,56,o),
(395,56,cs),
(243,56,o),
(143,157,o),
(146,311,c),
(668,311,l),
(668,376,l),
(76,376,l),
(74,356,o),
(73,337,o),
(73,318,cs),
(73,112,o),
(206,-7,o),
(395,-7,cs),
(595,-7,o),
(729,137,o),
(729,350,cs),
(729,560,o),
(594,707,o),
(398,707,cs),
(239,707,o),
(118,616,o),
(77,476,c),
(157,476,l),
(189,581,o),
(283,643,o),
(398,643,cs),
(545,643,o),
(653,534,o),
(653,362,cs)
);
}
);
width = 788;
}
);
unicode = 399;
},
{
glyphname = a.ss02;
lastChange = "2024-07-30 10:39:23 +0000";
layers = (
{
anchors = (
{
name = ogonek;
pos = (511,0);
},
{
name = top;
pos = (291,557);
}
);
layerId = "CDDB5E63-2DBC-4745-B175-3A13AC81D5EA";
shapes = (
{
closed = 1;
nodes = (
(440,0,l),
(511,0,l),
(511,319,ls),
(511,471,o),
(418,554,o),
(290,554,cs),
(160,554,o),
(78,470,o),
(62,359,c),
(131,359,l),
(144,443,o),
(204,493,o),
(288,493,cs),
(384,493,o),
(437,430,o),
(440,320,c),
(259,320,ls),
(116,320,o),
(48,246,o),
(48,150,cs),
(48,56,o),
(123,-10,o),
(230,-10,cs),
(327,-10,o),
(408,44,o),
(440,116,c)
);
},
{
closed = 1;
nodes = (
(167,51,o),
(118,93,o),
(118,155,cs),
(118,218,o),
(164,263,o),
(259,263,cs),
(440,263,l),
(440,245,ls),
(440,122,o),
(344,51,o),
(243,51,cs)
);
}
);
width = 591;
}
);
metricLeft = a;
metricRight = a;
userData = {
com.schriftgestaltung.Glyphs.ColorIndex = 4;
com.typemytype.robofont.guides = (
{
angle = 90;
isGlobal = 0;
magnetic = 5;
x = 306;
y = 501;
},
{
angle = 0;
isGlobal = 0;
magnetic = 5;
x = 88;
y = 270;
}
);
com.typesupply.AccentFactory.yCoordinates = {
bottom = {
name = origin;
type = glyphMetric;
};
top = {
name = xHeight;
type = fontInfo;
};
};
};
},
{
glyphname = two.ss04;
lastChange = "2024-07-30 10:39:23 +0000";
layers = (
{
layerId = "CDDB5E63-2DBC-4745-B175-3A13AC81D5EA";
shapes = (
{
closed = 1;
nodes = (
(55,0,l),
(532,0,l),
(532,59,l),
(159,59,l),
(325,218,ls),
(464,351,o),
(511,430,o),
(511,519,cs),
(511,639,o),
(428,721,o),
(292,721,cs),
(162,721,o),
(64,638,o),
(62,484,c),
(130,484,l),
(131,587,o),
(187,661,o),
(292,661,cs),
(389,661,o),
(441,602,o),
(441,519,cs),
(441,442,o),
(396,375,o),
(271,256,cs),
(55,49,l)
);
}
);
width = 587;
}
);
userData = {
com.schriftgestaltung.Glyphs.ColorIndex = 3;
};
},
{
glyphname = three.ss04;
lastChange = "2024-07-30 10:39:23 +0000";
layers = (
{
layerId = "CDDB5E63-2DBC-4745-B175-3A13AC81D5EA";
shapes = (
{
closed = 1;
nodes = (
(221,433,l),
(264,409,l),
(502,666,l),
(502,719,l),
(99,719,l),
(99,660,l),
(468,660,l),
(439,684,l),
(201,427,l),
(201,376,l),
(301,376,ls),
(403,376,o),
(464,316,o),
(464,214,cs),
(464,114,o),
(400,54,o),
(297,54,cs),
(192,54,o),
(135,119,o),
(123,204,c),
(53,204,l),
(67,68,o),
(163,-5,o),
(296,-5,cs),
(443,-5,o),
(534,79,o),
(534,214,cs),
(534,353,o),
(447,433,o),
(302,433,cs)
);
}
);
width = 594;
}
);
userData = {
com.schriftgestaltung.Glyphs.ColorIndex = 3;
};
},
{
glyphname = six.ss04;
lastChange = "2024-07-30 10:39:23 +0000";
layers = (
{
layerId = "CDDB5E63-2DBC-4745-B175-3A13AC81D5EA";
shapes = (
{
closed = 1;
nodes = (
(451,-9,o),
(551,92,o),
(551,233,cs),
(551,372,o),
(456,468,o),
(315,468,cs),
(205,468,o),
(125,405,o),
(97,308,c),
(177,395,l),
(396,717,l),
(319,717,l),
(132,437,ls),
(84,366,o),
(61,301,o),
(61,234,cs),
(61,98,o),
(156,-9,o),
(307,-9,cs)
);
},
{
closed = 1;
nodes = (
(126,341,o),
(197,415,o),
(307,415,cs),
(417,415,o),
(487,341,o),
(487,233,cs),
(487,124,o),
(417,50,o),
(307,50,cs),
(197,50,o),
(126,124,o),
(126,234,cs)
);
}
);
width = 594;
}
);
userData = {
com.schriftgestaltung.Glyphs.ColorIndex = 3;
};
},
{
glyphname = nine.ss04;
lastChange = "2024-07-30 10:39:23 +0000";
layers = (
{
layerId = "CDDB5E63-2DBC-4745-B175-3A13AC81D5EA";
shapes = (
{
closed = 1;
nodes = (
(143,722,o),
(43,621,o),
(43,479,cs),
(43,338,o),
(138,242,o),
(281,242,cs),
(389,242,o),
(470,305,o),
(497,402,c),
(417,315,l),
(198,-4,l),
(275,-4,l),
(462,273,ls),
(511,345,o),
(533,409,o),
(533,479,cs),
(533,615,o),
(438,722,o),
(287,722,cs)
);
},
{
closed = 1;
nodes = (
(107,589,o),
(177,663,o),
(287,663,cs),
(397,663,o),
(468,589,o),
(468,478,cs),
(468,369,o),
(397,295,o),
(287,295,cs),
(177,295,o),
(107,369,o),
(107,479,cs)
);
}
);
width = 594;
}
);
userData = {
com.schriftgestaltung.Glyphs.ColorIndex = 3;
};
},
{
glyphname = colon.ss01;
lastChange = "2024-07-30 10:39:23 +0000";
layers = (
{
layerId = "CDDB5E63-2DBC-4745-B175-3A13AC81D5EA";
shapes = (
{
closed = 1;
nodes = (
(52,0,l),
(144,0,l),
(144,93,l),
(52,93,l)
);
},
{
closed = 1;
nodes = (
(52,435,l),
(144,435,l),
(144,529,l),
(52,529,l)
);
}
);
width = 201;
}
);
userData = {
com.schriftgestaltung.Glyphs.ColorIndex = 3;
};
},
{
glyphname = comma.ss01;
lastChange = "2024-07-30 10:39:23 +0000";
layers = (
{
layerId = "CDDB5E63-2DBC-4745-B175-3A13AC81D5EA";
shapes = (
{
closed = 1;
nodes = (
(34,75,l),
(34,-1,l),
(81,-1,l),
(81,-16,ls),
(81,-55,o),
(67,-76,o),
(32,-76,c),
(32,-114,l),
(93,-114,o),
(130,-80,o),
(130,0,cs),
(130,22,o),
(126,47,o),
(120,75,c)
);
}
);
width = 167;
}
);
userData = {
com.schriftgestaltung.Glyphs.ColorIndex = 8;
com.typemytype.robofont.layerData = {
b = {
anchors = (
);
components = (
);
contours = (
{
points = (
{
segmentType = line;
smooth = 0;
x = 37;
y = 31;
},
{
segmentType = line;
smooth = 0;
x = 37;
y = -7;
},
{
segmentType = line;
smooth = 0;
x = 68;
y = -7;
},
{
segmentType = line;
smooth = 1;
x = 68;
y = -14;
},
{
smooth = 0;
x = 68;
y = -47;
},
{
smooth = 0;
x = 57;
y = -68;
},
{
segmentType = curve;
smooth = 0;
x = 25;
y = -68;
},
{
segmentType = line;
smooth = 0;
x = 25;
y = -86;
},
{
smooth = 0;
x = 61;
y = -86;
},
{
smooth = 0;
x = 90;
y = -71;
},
{
segmentType = curve;
smooth = 1;
x = 90;
y = 0;
},
{
smooth = 0;
x = 90;
y = 9;
},
{
smooth = 0;
x = 89;
y = 22;
},
{
segmentType = curve;
smooth = 0;
x = 88;
y = 31;
}
);
}
);
lib = {
};
name = comma;
unicodes = (
);
width = 119.5644;
};
};
};
},
{
glyphname = exclam.ss01;
lastChange = "2024-07-30 10:39:23 +0000";
layers = (
{
layerId = "CDDB5E63-2DBC-4745-B175-3A13AC81D5EA";
shapes = (
{
closed = 1;
nodes = (
(101,185,l),
(157,185,l),
(167,700,l),
(91,700,l)
);
},
{
closed = 1;
nodes = (
(83,0,l),
(175,0,l),
(175,93,l),
(83,93,l)
);
}
);
width = 259;
}
);
userData = {
com.schriftgestaltung.Glyphs.ColorIndex = 3;
};
},
{
glyphname = period.ss01;
lastChange = "2024-07-30 10:39:23 +0000";
layers = (
{
layerId = "CDDB5E63-2DBC-4745-B175-3A13AC81D5EA";
shapes = (
{
closed = 1;
nodes = (
(43,0,l),
(135,0,l),
(135,93,l),
(43,93,l)
);
}
);
width = 178;
}
);
userData = {
com.schriftgestaltung.Glyphs.ColorIndex = 3;
};
},
{
glyphname = question.ss01;
lastChange = "2024-07-30 10:39:23 +0000";
layers = (
{
layerId = "CDDB5E63-2DBC-4745-B175-3A13AC81D5EA";
shapes = (
{
closed = 1;
nodes = (
(144,0,l),
(236,0,l),
(236,93,l),
(144,93,l)
);
},
{
closed = 1;
nodes = (
(123,708,o),
(34,631,o),
(34,510,c),
(101,510,l),
(101,595,o),
(158,648,o),
(249,648,cs),
(339,648,o),
(400,593,o),
(400,504,cs),
(400,367,o),
(293,345,o),
(178,345,cs),
(152,345,l),
(152,185,l),
(219,185,l),
(219,295,l),
(363,295,o),
(467,353,o),
(467,504,cs),
(467,628,o),
(377,708,o),
(249,708,cs)
);
}
);
width = 512;
}
);
userData = {
com.schriftgestaltung.Glyphs.ColorIndex = 3;
};
},
{
glyphname = semicolon.ss01;
lastChange = "2024-07-30 10:39:23 +0000";
layers = (
{
layerId = "CDDB5E63-2DBC-4745-B175-3A13AC81D5EA";
shapes = (
{
closed = 1;
nodes = (
(35,75,l),
(35,-1,l),
(82,-1,l),
(82,-16,ls),
(82,-55,o),
(68,-76,o),
(34,-76,c),
(34,-114,l),
(95,-114,o),
(131,-80,o),
(131,0,cs),
(131,22,o),
(127,47,o),
(122,75,c)
);
},
{
alignment = -1;
pos = (-10,434);
ref = period.ss01;
}
);
width = 168;
}
);
userData = {
com.schriftgestaltung.Glyphs.ColorIndex = 8;
};
},
{
glyphname = quotedblleft.ss01;
lastChange = "2024-07-30 10:39:23 +0000";
layers = (
{
anchors = (
{
name = _top;
pos = (76,530);
}
);
layerId = "CDDB5E63-2DBC-4745-B175-3A13AC81D5EA";
shapes = (
{
closed = 1;
nodes = (
(240,584,l),
(240,660,l),
(194,660,l),
(194,685,ls),
(194,718,o),
(207,736,o),
(242,736,c),
(242,772,l),
(183,772,o),
(150,743,o),
(150,669,cs),
(150,645,o),
(153,617,o),
(159,584,c)
);
},
{
closed = 1;
nodes = (
(120,584,l),
(120,660,l),
(74,660,l),
(74,685,ls),
(74,718,o),
(86,736,o),
(120,736,c),
(120,772,l),
(62,772,o),
(29,743,o),
(29,669,cs),
(29,645,o),
(32,617,o),
(39,584,c)
);
}
);
width = 271;
}
);
userData = {
com.schriftgestaltung.Glyphs.ColorIndex = 8;
};
},
{
glyphname = quotedblright.ss01;
lastChange = "2024-07-30 10:39:23 +0000";
layers = (
{
anchors = (
{
name = _bottom;
pos = (195,818);
}
);
layerId = "CDDB5E63-2DBC-4745-B175-3A13AC81D5EA";
shapes = (
{
closed = 1;
nodes = (
(152,772,l),
(152,696,l),
(197,696,l),
(197,671,ls),
(197,637,o),
(184,619,o),
(150,619,c),
(150,584,l),
(208,584,o),
(242,613,o),
(242,686,cs),
(242,710,o),
(239,739,o),
(233,772,c)
);
},
{
closed = 1;
nodes = (
(30,772,l),
(30,696,l),
(76,696,l),
(76,671,ls),
(76,637,o),
(64,619,o),
(30,619,c),
(30,584,l),
(88,584,o),
(121,613,o),
(121,686,cs),
(121,710,o),
(118,739,o),
(111,772,c)
);
}
);
width = 271;
}
);
userData = {
com.schriftgestaltung.Glyphs.ColorIndex = 8;
};
},
{
glyphname = quoteleft.ss01;
lastChange = "2024-07-30 10:39:23 +0000";
layers = (
{
anchors = (
{
name = _top;
pos = (76,530);
}
);
layerId = "CDDB5E63-2DBC-4745-B175-3A13AC81D5EA";
shapes = (
{
closed = 1;
nodes = (
(120,584,l),
(120,660,l),
(74,660,l),
(74,685,ls),
(74,718,o),
(86,736,o),
(120,736,c),
(120,772,l),
(62,772,o),
(29,743,o),
(29,669,cs),
(29,645,o),
(32,617,o),
(39,584,c)
);
}
);
width = 150;
}
);
userData = {
com.schriftgestaltung.Glyphs.ColorIndex = 8;
};
},
{
glyphname = quoteright.ss01;
lastChange = "2024-07-30 10:39:23 +0000";
layers = (
{
anchors = (
{
name = _bottom;
pos = (75,818);
}
);
layerId = "CDDB5E63-2DBC-4745-B175-3A13AC81D5EA";
shapes = (
{
closed = 1;
nodes = (
(30,772,l),
(30,696,l),
(76,696,l),
(76,671,ls),
(76,637,o),
(64,619,o),
(30,619,c),
(30,584,l),
(88,584,o),
(121,613,o),
(121,686,cs),
(121,710,o),
(118,739,o),
(111,772,c)
);
}
);
width = 150;
}
);
userData = {
com.schriftgestaltung.Glyphs.ColorIndex = 8;
com.typemytype.robofont.layerData = {
b = {
anchors = (
{
name = _bottom;
x = 64;
y = 787;
}
);
components = (
);
contours = (
{
points = (
{
segmentType = line;
smooth = 0;
x = 32;
y = 732;
},
{
segmentType = line;
smooth = 0;
x = 32;
y = 680;
},
{
segmentType = line;
smooth = 0;
x = 68;
y = 680;
},
{
segmentType = line;
smooth = 1;
x = 68;
y = 650;
},
{
smooth = 0;
x = 68;
y = 625;
},
{
smooth = 0;
x = 57;
y = 610;
},
{
segmentType = curve;
smooth = 0;
x = 25;
y = 610;
},
{
segmentType = line;
smooth = 0;
x = 25;
y = 585;
},
{
smooth = 0;
x = 64;
y = 585;
},
{
smooth = 0;
x = 91;
y = 593;
},
{
segmentType = curve;
smooth = 1;
x = 91;
y = 664;
},
{
smooth = 0;
x = 91;
y = 682;
},
{
smooth = 0;
x = 90;
y = 704;
},
{
segmentType = curve;
smooth = 0;
x = 88;
y = 732;
}
);
}
);
lib = {
};
name = quoteright;
unicodes = (
);
width = 122;
};
};
};
},
{
glyphname = divide.ss01;
lastChange = "2024-07-30 10:39:23 +0000";
layers = (
{
layerId = "CDDB5E63-2DBC-4745-B175-3A13AC81D5EA";
shapes = (
{
closed = 1;
nodes = (
(67,339,l),
(576,339,l),
(576,401,l),
(67,401,l)
);
},
{
closed = 1;
nodes = (
(276,111,l),
(368,111,l),
(368,205,l),
(276,205,l)
);
},
{
closed = 1;
nodes = (
(276,537,l),
(368,537,l),
(368,630,l),
(276,630,l)
);
}
);
width = 637;
}
);
userData = {
com.schriftgestaltung.Glyphs.ColorIndex = 3;
};
},
{
glyphname = ampersand.ss03;
lastChange = "2024-07-30 10:39:23 +0000";
layers = (
{
layerId = "CDDB5E63-2DBC-4745-B175-3A13AC81D5EA";
shapes = (
{
closed = 1;
nodes = (
(223,726,o),
(164,649,o),
(164,570,cs),
(164,507,o),
(194,462,o),
(237,411,cs),
(283,361,l),
(293,369,l),
(280,387,o),
(256,399,o),
(226,399,cs),
(124,399,o),
(38,324,o),
(38,199,c),
(38,73,o),
(131,-8,o),
(242,-8,c),
(348,-8,o),
(428,69,o),
(437,169,c),
(439,200,o),
(430,216,o),
(408,241,c),
(392,219,l),
(581,0,l),
(664,0,l),
(284,457,ls),
(252,495,o),
(234,524,o),
(234,569,cs),
(234,621,o),
(271,667,o),
(336,667,c),
(403,667,o),
(444,624,o),
(444,559,cs),
(444,549,o),
(443,536,o),
(440,526,c),
(508,526,l),
(512,538,o),
(514,552,o),
(514,566,cs),
(514,646,o),
(457,726,o),
(336,726,c)
);
},
{
closed = 1;
nodes = (
(166,52,o),
(101,109,o),
(101,199,c),
(101,289,o),
(159,342,o),
(233,342,c),
(307,342,o),
(379,278,o),
(379,193,c),
(379,112,o),
(320,52,o),
(242,52,c)
);
}
